<?xml version="1.0" encoding="utf-8"?>
<!-- Generator: Adobe Illustrator 16.0.0, SVG Export Plug-In . SVG Version: 6.00 Build 0)  -->
<!DOCTYPE svg PUBLIC "-//W3C//DTD SVG 1.1//EN" "http://www.w3.org/Graphics/SVG/1.1/DTD/svg11.dtd">
<svg version="1.1" id="Layer_1" xmlns="http://www.w3.org/2000/svg" xmlns:xlink="http://www.w3.org/1999/xlink" x="0px" y="0px"
	 width="500px" height="500px" viewBox="0 0 500 500" enable-background="new 0 0 500 500" xml:space="preserve">
<g id="Layer_1_1_">
	<g>
		<g>
			<polygon fill="#FEC12C" points="250.596,243.222 346.089,147.733 155.105,147.733 			"/>
			<rect x="223.778" y="40.223" fill="#FEC12C" width="53.996" height="99.74"/>
			<rect x="155.534" y="40.223" fill="#FEC12C" width="46.5" height="99.74"/>
			<rect x="299.521" y="40.223" fill="#FEC12C" width="47.994" height="99.74"/>
		</g>
		<g>
			<path fill="#FEC12C" d="M352.357,339.617l24.187-16.485l-27.626-9.665l19.089-22.188l-29.188-2.187l12.699-26.37l-28.754,5.441
				l5.442-28.754l-26.375,12.693l-2.185-29.186l-22.188,19.093l-9.663-27.628l-16.485,24.184l-16.488-24.184l-9.663,27.628
				l-22.188-19.093l-2.187,29.186l-26.366-12.693l5.442,28.754l-28.764-5.441l12.696,26.37l-29.183,2.187l19.094,22.188
				l-27.625,9.665l24.182,16.485l-24.182,16.486l27.625,9.665l-19.094,22.188l29.183,2.188l-12.696,26.366l28.764-5.439
				l-5.442,28.759l26.366-12.696l2.187,29.184l22.188-19.092l9.663,27.625l16.488-24.184l16.485,24.184l9.663-27.625l22.188,19.092
				l2.185-29.184l26.375,12.696l-5.442-28.759l28.754,5.439l-12.699-26.366l29.188-2.188l-19.089-22.188l27.626-9.665
				L352.357,339.617z M251.311,433.035c-51.593,0-93.418-41.821-93.418-93.418c0-51.59,41.827-93.417,93.418-93.417
				s93.418,41.827,93.418,93.417C344.729,391.214,302.902,433.035,251.311,433.035z"/>
			<path fill="#FEC12C" d="M251.311,256.732c-45.778,0-82.884,37.113-82.884,82.885c0,45.776,37.104,82.886,82.884,82.886
				c45.777,0,82.885-37.108,82.885-82.886C334.195,293.846,297.088,256.732,251.311,256.732z M251.311,407.415
				c-37.444,0-67.796-30.354-67.796-67.798c0-37.44,30.352-67.792,67.796-67.792c37.438,0,67.793,30.352,67.793,67.792
				C319.104,377.063,288.749,407.415,251.311,407.415z"/>
			<path fill="#FEC12C" d="M251.311,281.956c-31.846,0-57.665,25.815-57.665,57.661c0,31.848,25.819,57.666,57.665,57.666
				c31.848,0,57.664-25.818,57.664-57.666C308.975,307.771,283.157,281.956,251.311,281.956z M241.635,377.733l-10.499-6.708
				l-10.497,6.708l3.137-12.058l-9.625-7.91l12.438-0.737l4.545-11.603l4.546,11.603l12.438,0.737l-9.625,7.91L241.635,377.733z
				 M238.495,334.413l3.14,12.06l-10.499-6.71l-10.497,6.71l3.137-12.06l-9.625-7.909l12.438-0.742l4.545-11.598l4.546,11.598
				l12.438,0.742L238.495,334.413z M241.553,320.558l3.137-12.056l-9.624-7.912l12.438-0.739l4.546-11.601l4.55,11.601l12.438,0.739
				l-9.626,7.912l3.139,12.056l-10.5-6.706L241.553,320.558z M283.943,377.733l-10.495-6.708l-10.497,6.708l3.14-12.058l-9.627-7.91
				l12.435-0.737l4.551-11.603l4.549,11.603l12.438,0.737l-9.625,7.91L283.943,377.733z M280.811,334.413l3.135,12.06l-10.496-6.71
				l-10.497,6.71l3.14-12.06l-9.627-7.909l12.436-0.742l4.55-11.598l4.549,11.598l12.438,0.742L280.811,334.413z"/>
		</g>
	</g>
</g>
</svg>
