<?xml version="1.0" encoding="utf-8"?>
<!-- Generator: Adobe Illustrator 16.0.0, SVG Export Plug-In . SVG Version: 6.00 Build 0)  -->
<!DOCTYPE svg PUBLIC "-//W3C//DTD SVG 1.1//EN" "http://www.w3.org/Graphics/SVG/1.1/DTD/svg11.dtd">
<svg version="1.1" id="Layer_1" xmlns="http://www.w3.org/2000/svg" xmlns:xlink="http://www.w3.org/1999/xlink" x="0px" y="0px"
	 width="50px" height="50px" viewBox="0 0 50 50" enable-background="new 0 0 50 50" xml:space="preserve">
<g>
	<path fill="#FFFFFF" d="M28.207,26.93l-3.156-0.845l-0.845-3.156l5.494-5.494c-2.748-0.352-6.209,0.97-8.045,2.806
		c-2.551,2.551-2.001,6.139,0.551,8.69c2.551,2.552,6.139,3.103,8.69,0.551c1.836-1.836,3.157-5.296,2.807-8.045L28.207,26.93z"/>
	<path fill="#FFFFFF" d="M19.836,31.301c-0.407-0.407-1.07-0.407-1.476,0l-7.044,7.044l1.476,1.477l7.044-7.045
		C20.242,32.369,20.242,31.708,19.836,31.301z"/>
	<path fill="#FFFFFF" d="M9.545,36.574l0.958,0.959l7.044-7.045c0.854-0.854,2.245-0.854,3.1,0c0.855,0.856,0.855,2.247,0,3.101
		l-7.044,7.045l0.958,0.957l9.899-9.898c-1.078-0.399-2.115-1.073-3.029-1.987c-0.915-0.915-1.59-1.952-1.988-3.03L9.545,36.574z"/>
</g>
<path fill="#FFFFFF" d="M47.984,31.102c0.478-1.871,0.732-3.831,0.732-5.85c0-2.018-0.255-3.977-0.732-5.847h-5.293
	c-0.273-0.826-0.607-1.628-0.991-2.397l3.737-3.737c-2.019-3.403-4.868-6.253-8.272-8.271l-3.736,3.738
	c-0.771-0.386-1.57-0.718-2.397-0.994V2.452c-1.869-0.479-3.828-0.733-5.848-0.733s-3.979,0.255-5.849,0.733v5.291
	c-0.827,0.276-1.626,0.608-2.396,0.994l-3.737-3.738C9.797,7.017,6.948,9.866,4.93,13.27l3.737,3.738
	c-0.386,0.769-0.716,1.57-0.992,2.396H2.382c-0.478,1.87-0.733,3.829-0.733,5.847c0,2.019,0.255,3.979,0.733,5.85h5.292
	c0.276,0.825,0.608,1.628,0.992,2.396L4.93,37.235c2.018,3.402,4.867,6.253,8.271,8.271l3.737-3.738
	c0.77,0.386,1.57,0.717,2.396,0.993v5.291c1.871,0.479,3.83,0.734,5.849,0.734s3.979-0.255,5.848-0.734v-5.291
	c0.827-0.276,1.627-0.607,2.397-0.993l3.736,3.738c3.404-2.019,6.254-4.869,8.272-8.271L41.7,33.499
	c0.384-0.77,0.716-1.572,0.991-2.397H47.984z M25.184,38.78c-7.473,0-13.529-6.057-13.529-13.529c0-7.47,6.057-13.527,13.529-13.527
	c7.471,0,13.529,6.057,13.529,13.527C38.713,32.724,32.654,38.78,25.184,38.78z"/>
</svg>
