<?xml version="1.0" encoding="utf-8"?>
<!-- Generator: Adobe Illustrator 16.0.0, SVG Export Plug-In . SVG Version: 6.00 Build 0)  -->
<!DOCTYPE svg PUBLIC "-//W3C//DTD SVG 1.0//EN" "http://www.w3.org/TR/2001/REC-SVG-20010904/DTD/svg10.dtd">
<svg version="1.0" id="Layer_2" xmlns="http://www.w3.org/2000/svg" xmlns:xlink="http://www.w3.org/1999/xlink" x="0px" y="0px"
	 width="100px" height="100px" viewBox="0 0 100 100" enable-background="new 0 0 100 100" xml:space="preserve">
<g>
	<rect x="60.383" y="60.348" fill="#C5D3DD" width="4.03" height="4.029"/>
	<rect x="60.383" y="65.644" fill="#C5D3DD" width="4.03" height="4.031"/>
	<rect x="54.339" y="60.348" fill="#C5D3DD" width="4.029" height="4.029"/>
	<rect x="54.339" y="65.644" fill="#C5D3DD" width="4.029" height="4.031"/>
	<rect x="48.293" y="60.348" fill="#C5D3DD" width="4.029" height="4.029"/>
	<rect x="48.293" y="65.644" fill="#C5D3DD" width="4.029" height="4.031"/>
	<rect x="24.648" y="60.348" fill="#C5D3DD" width="4.03" height="4.029"/>
	<rect x="24.648" y="65.644" fill="#C5D3DD" width="4.03" height="4.031"/>
	<rect x="18.603" y="60.348" fill="#C5D3DD" width="4.031" height="4.029"/>
	<rect x="18.603" y="65.644" fill="#C5D3DD" width="4.031" height="4.031"/>
	<rect x="12.558" y="60.348" fill="#C5D3DD" width="4.031" height="4.029"/>
	<rect x="12.558" y="65.644" fill="#C5D3DD" width="4.031" height="4.031"/>
	<path fill="#C5D3DD" d="M70.543,50.961H47.226L17.188,35.144L2.148,51.469H6.27v20.689H3.161v8.879h32.064V61.893h6.698v19.145
		H73.65v-8.879h-3.107V50.961z M70.707,75.102v2.992H44.868V58.948H32.281v19.146H6.105v-2.992h3.109V53.905h58.385v21.196H70.707z"
		/>
	<path fill="#C5D3DD" d="M87.733,25.587c-1.317-1.724-7.577-0.549-9.539-0.131v-4.153h-2.339V47.72L29.059,21.095l-7.376,8.166
		l35.618,18.972h18.555v32.671h2.339V35.465c1.962-0.417,8.222-1.591,9.539,0.132c1.569,2.05,1.569,4.101,10.494,3.497v-10.01
		C89.303,29.687,89.303,27.638,87.733,25.587z"/>
</g>
</svg>
