<?xml version="1.0" encoding="utf-8"?>
<!-- Generator: Adobe Illustrator 16.0.0, SVG Export Plug-In . SVG Version: 6.00 Build 0)  -->
<!DOCTYPE svg PUBLIC "-//W3C//DTD SVG 1.1//EN" "http://www.w3.org/Graphics/SVG/1.1/DTD/svg11.dtd">
<svg version="1.1" id="Layer_2" xmlns="http://www.w3.org/2000/svg" xmlns:xlink="http://www.w3.org/1999/xlink" x="0px" y="0px"
	 width="100px" height="100px" viewBox="0 0 100 100" enable-background="new 0 0 100 100" xml:space="preserve">
<g>
	<polygon fill="#FFFFFF" points="22.978,25.553 25.201,25.553 25.201,21.229 49.848,28.918 49.999,28.967 82.85,18.717 
		50.152,8.516 49.999,8.467 17.15,18.717 22.978,20.535 	"/>
	<polygon fill="#FFFFFF" points="25.846,31.009 25.201,27.819 23.041,27.819 22.333,31.009 	"/>
	<rect x="23.005" y="25.578" fill="#FFFFFF" width="2.169" height="1.632"/>
	<path fill="#FFFFFF" d="M62.274,60.158c3.817-3.542,6.028-8.525,6.028-13.824c0-3.002-0.708-5.841-1.962-8.361h0.132V25.481
		l-16.474,5.14l-0.151-0.048l-16.786-5.237v11.653c-1.58,2.758-2.488,5.946-2.488,9.345c0,5.299,2.209,10.282,6.027,13.824
		c-8.799,5.691-14.546,16.872-14.88,29.376l-0.054,1.999h55.54l-0.054-1.999C76.821,77.03,71.073,65.851,62.274,60.158z
		 M57.944,62.169c0.094,0.047,0.184,0.104,0.277,0.151l-8.783,8.782l-8.783-8.782c0.094-0.048,0.183-0.104,0.277-0.151l3.036-1.492
		l-2.815-1.876c-4.186-2.787-6.685-7.446-6.685-12.467c0-3.098,0.953-5.974,2.572-8.361h24.802c1.617,2.389,2.566,5.266,2.566,8.361
		c0,5.021-2.5,9.68-6.686,12.467l-2.815,1.876L57.944,62.169z"/>
</g>
</svg>
