<?xml version="1.0" encoding="utf-8"?>
<!-- Generator: Adobe Illustrator 16.0.0, SVG Export Plug-In . SVG Version: 6.00 Build 0)  -->
<!DOCTYPE svg PUBLIC "-//W3C//DTD SVG 1.1//EN" "http://www.w3.org/Graphics/SVG/1.1/DTD/svg11.dtd">
<svg version="1.1" id="Layer_2" xmlns="http://www.w3.org/2000/svg" xmlns:xlink="http://www.w3.org/1999/xlink" x="0px" y="0px"
	 width="100px" height="100px" viewBox="0 0 100 100" enable-background="new 0 0 100 100" xml:space="preserve">
<g>
	<polygon fill="#C5D3DD" points="24.921,27.828 26.982,27.828 26.982,23.821 49.823,30.947 49.963,30.992 80.407,21.493 
		50.104,12.039 49.963,11.994 19.521,21.493 24.921,23.177 	"/>
	<polygon fill="#C5D3DD" points="27.579,32.884 26.982,29.928 24.98,29.928 24.323,32.884 	"/>
	<rect x="24.947" y="27.852" fill="#C5D3DD" width="2.009" height="1.513"/>
	<path fill="#C5D3DD" d="M61.339,59.898c3.538-3.282,5.587-7.901,5.587-12.812c0-2.782-0.656-5.413-1.818-7.749h0.122V27.761
		l-15.266,4.764l-0.14-0.045l-15.556-4.854v10.8c-1.464,2.555-2.306,5.511-2.306,8.66c0,4.911,2.048,9.529,5.586,12.812
		c-8.155,5.274-13.481,15.636-13.791,27.224l-0.049,1.853h51.471l-0.05-1.853C74.82,75.534,69.493,65.174,61.339,59.898z
		 M35.569,47.087c0-2.871,0.883-5.536,2.384-7.749h22.985c1.498,2.214,2.378,4.879,2.378,7.749c0,4.652-2.316,8.971-6.195,11.554
		l-2.609,1.738l2.814,1.383c0.087,0.044,0.17,0.096,0.257,0.141l-8.14,8.139l-8.14-8.139c0.087-0.045,0.169-0.097,0.257-0.141
		l2.813-1.383l-2.609-1.738C37.886,56.058,35.569,51.739,35.569,47.087z M27.461,85.366c0.534-6.86,2.998-13.099,6.796-17.702
		L49.443,82.85l15.186-15.186c3.799,4.604,6.262,10.842,6.796,17.702H27.461z"/>
</g>
</svg>
