<?xml version="1.0" encoding="utf-8"?>
<!-- Generator: Adobe Illustrator 16.0.0, SVG Export Plug-In . SVG Version: 6.00 Build 0)  -->
<!DOCTYPE svg PUBLIC "-//W3C//DTD SVG 1.0//EN" "http://www.w3.org/TR/2001/REC-SVG-20010904/DTD/svg10.dtd">
<svg version="1.0" id="Layer_2" xmlns="http://www.w3.org/2000/svg" xmlns:xlink="http://www.w3.org/1999/xlink" x="0px" y="0px"
	 width="100px" height="100px" viewBox="0 0 100 100" enable-background="new 0 0 100 100" xml:space="preserve">
<g>
	<path fill="#C5D3DD" d="M29.703,29.465c0,0-0.075-0.098-0.159-0.213c-0.032,0.002-0.05,0.004-0.05,0.004L29.703,29.465z"/>
	<path fill="#C5D3DD" d="M29.162,44.96c-0.228-0.086-0.228-0.086-0.228-0.086s-0.175-0.071-0.175-0.176c0-0.104,0-0.104,0-0.104
		l-0.07-0.21l-0.035-0.174c0,0-0.349,0-0.454,0.279c-0.105,0.28-0.28,0.454-0.28,0.454l-0.21,0.315l-0.209,0.209h1.153v0.246
		c0,0,0.035-0.176,0.175-0.176c0.14,0,0.14,0,0.14,0l0.192,0.176c0.296-0.142,0.366-0.315,0.366-0.315l-0.14-0.438
		C29.388,44.96,29.388,45.048,29.162,44.96z"/>
	<path fill="#C5D3DD" d="M39.451,34.776l-1.327-0.146c0,0,0.455-0.141,0.489-0.365c0.035-0.223,0.035-0.502,0.035-0.502l0.279,0.663
		l0.523,0.205l0.246-0.693l-0.315-0.432l-0.245-0.336l0.56-0.665l0.279,0.105l0.454-0.874l0.454-0.104v-0.63l-0.384-0.103
		l-0.383-0.865h0.453l0.314-0.359l-0.419-0.429v-0.339l0.245,0.174c0,0,0.245-0.594,0.174-0.873
		c-0.069-0.28,1.048-1.677,1.607-1.992c0,0-0.069-1.292-0.909-0.838l-0.859,0.414l-0.083,0.041l-0.508,0.175l0.648-0.726h-0.455
		h-0.627l0.174-0.322c0,0-0.949,0.021-1.372,0.115c0.233-0.17,0.631-0.45,0.988-0.361c0,0,1.257,0.419,1.642-0.174
		c0,0-0.629-0.419-0.978-0.419c0,0,0.314-0.524-0.036-0.524c0,0-0.837-1.328-2.515-0.245c0,0-1.188-0.246-1.188,0.174l-0.419,0.28
		l-0.489,0.105h-0.42l-0.628,0.035l-0.503,0.14l-0.72,0.035l-0.628,0.769l-1.468,0.698l0.663,0.28l-0.349,0.42l-0.314,0.383
		l-0.804-0.07l-0.245,0.21c0,0-0.943-0.104-0.925,0.069c0.017,0.176,0.366,0.944,0.471,0.944c0.105,0,0.384,0.245,0.384,0.245
		l0.314,0.209l-0.978-0.279l-0.192,0.315c0,0,0.122,0.489,0.157,0.594c0.019,0.055,0.127,0.213,0.225,0.345
		c0.049-0.002,0.127-0.004,0.229-0.005c0.541-0.002,1.692,0.078,1.853,0.787l-0.21,0.445l0.21,0.42c0,0,0.104,1.083,0.14,1.326
		c0.034,0.245-0.524,0.35-0.524,0.35v0.839l0.909-0.385l0.139,0.874c0,0-1.188-0.671-1.153,0.363c0,0,0.489,0.615,1.153,0.196
		l-0.524,1.083c0,0-0.524-0.56-0.629,0c-0.105,0.559-0.14,1.432,0.104,1.606c0,0-0.314,2.027,1.048,2.236l0.699,0.629l1.223-2.167
		c0,0,0.07-0.734,0.629-0.699c0,0,1.119,0,1.223-0.314c0,0,0.28-0.769,0.629-0.943C36.691,35.895,39.346,35.265,39.451,34.776z"/>
	<path fill="#C5D3DD" d="M29.131,35.978c-0.201-0.152-1.332-1.675-1.332-1.675l0.681-0.051c-0.524-1.521-1.467-2.045-1.467-2.045
		l-0.366-0.891v-0.733c-1.783-0.891-2.568,1.363-2.568,1.363c-0.262-0.158,0.838-1.887,0.838-1.887
		c-1.362-0.262-2.149,1.624-2.149,1.624l0.629,0.419h-0.629c0.105,0.735,2.496,1.102,2.496,1.102v-0.42l0.335,0.42v0.471
		c0.313,0,0.786,1.52,0.786,1.52h-0.367l-0.367,0.576l-0.21,0.419h-0.577c-1.624,0.683,0,0.631,0,0.631h0.787l0.314,1.047
		l1.101,0.629l-0.263-1.101l0.787,1.101l0.209-0.838l0.052-0.471l-0.734-0.944l0.472-0.158l0.524,1.102
		C28.114,37.188,28.959,36.086,29.131,35.978z"/>
	<polygon fill="#C5D3DD" points="40.377,38.497 41.111,38.183 41.268,37.554 40.954,36.925 40.901,37.71 40.324,36.925 
		39.277,36.925 39.015,36.925 38.752,36.925 38.752,37.71 38.752,38.497 39.172,38.497 39.854,38.497 	"/>
	<polygon fill="#C5D3DD" points="84.063,59.229 84.032,59.252 84.032,59.299 84.047,59.318 84.111,59.299 84.128,59.252 
		84.099,59.223 	"/>
	<polygon fill="#C5D3DD" points="23.449,29.744 22.767,29.535 22.295,29.535 22.034,30.374 22.295,30.636 22.164,31.133 
		22.558,30.636 23.449,30.334 	"/>
	<path fill="#C5D3DD" d="M84.188,58.856v-0.06c0,0,0.002-0.044,0.008-0.057c0.008-0.014,0.012-0.03,0.012-0.03v-0.06l-0.01-0.047
		l-0.002-0.011l-0.03,0.035l-0.018,0.086l-0.018,0.028c0,0,0,0-0.019,0.015c-0.021,0.017-0.028,0.04-0.028,0.04
		s-0.003,0.05-0.004,0.06c-0.004,0.009,0,0.05,0,0.05l-0.044,0.086l-0.036,0.06l-0.009,0.053c0,0,0.02,0.059,0.042,0.059
		s0.028-0.065,0.028-0.065v-0.064l0.059-0.068c0,0,0.053-0.066,0.059-0.071C84.185,58.886,84.188,58.856,84.188,58.856z"/>
	<path fill="#C5D3DD" d="M84.265,58.189l0.069,0.101l0.124,0.121l0.021,0.041l-0.06,0.026l0.038,0.029l0.078,0.045l0.045,0.073
		h0.099h0.084l-0.084-0.147c0,0-0.008,0.013-0.008-0.036c0-0.047,0.008-0.192,0.008-0.192l-0.069-0.061c0,0-0.039-0.078-0.052-0.065
		c-0.014,0.014-0.139-0.001-0.139-0.001h-0.058l-0.098,0.001V58.189z"/>
	<path fill="#C5D3DD" d="M60.764,65.75l-0.943,1.729c0,0-1.258,0.211-1.621,0.211c-0.364,0,0.783,0.445,0.783,0.445l-0.655,0.707
		c0,0-0.288,0.419,0,0.84c0.287,0.417,0,0.837,0,0.837h0.551l0.942-0.209c0,0-0.208-0.628,0-1.049
		c0.211-0.419,0.63-0.942,0.943-1.362c0.314-0.42,0-0.839,0-0.839V65.75z"/>
	<path fill="#C5D3DD" d="M27.361,28.486c0.594-0.279,0.384-0.436,0.384-0.436l-0.244,0.104l-0.052-0.104l0.035-0.263l0.559-0.262
		c0.07-0.542,0.506-0.244,0.506-0.244c0.42-0.263,0.822-0.979,0.822-0.979l0.051-0.245l-0.471-0.122l0.21-0.175l0.14,0.175h0.454
		l-0.14-0.315l0.28,0.158h0.489l0.349-0.35l0.298-0.297l0.472-0.139l0.839-0.376c0,0-0.262-0.253-0.333-0.078
		c-0.07,0.173-0.594,0-0.594,0c0.228,0,0.665-0.176,0.665-0.176s-1.677-0.157-0.192-0.139c0.03,0,0.059,0,0.087,0
		c1.403-0.01,1.52-0.665,1.52-0.665c-1.118-2.253-3.808-1.415-3.808-1.415l-0.105,0.123l-0.104,0.35l-0.158,0.053l-0.156-0.209
		v-0.193h-0.246l-0.104,0.193l-0.157,0.069l0.157,0.367l-0.297-0.174l-0.227-0.262l-0.14,0.296l-0.209-0.175l-0.663,0.261v0.228
		h0.191v0.263l-0.175,0.191l0.192,0.035l-0.087,0.087l-0.087,0.122c0.313,1.241,2.515,0.473,2.515,0.473l-0.262,0.279l-0.332,0.209
		h-0.559h-0.384l-0.087,0.561L28.026,24.8l-0.246-0.314c0,0-0.244,0.07-0.296,0.087c-0.053,0.018-0.087,0.35-0.087,0.35
		l-0.052,0.369l-0.315-0.229l0.28-0.175l0.016-0.663l-0.313-0.105c-0.105-0.228,0.053-0.943,0.053-0.943l-0.438-0.251l-0.121,0.198
		c0.454,0.139-0.105,0.245-0.105,0.245c-0.978,0.21-1.206,2.621-1.206,2.621s0.158,0.175,0.192,0.227
		c0.036,0.052,0.245,0.193,0.298,0.244c0.052,0.053,0.191-0.051,0.191-0.051l0.21-0.037l0.104,0.141l0.384,0.209
		c0,0,0,0.333,0,0.455c0,0.054,0.062,0.09,0.129,0.115l-0.198-0.046l-0.035-0.158l-0.035-0.191c0,0-0.193-0.123-0.245-0.14
		c-0.052-0.017-0.227,0.035-0.227,0.035h-0.087l0.087,0.332l0.07,0.244h-0.42l-0.279,0.035l-0.297,0.14l-0.071,0.227l0.071,0.123
		l0.087,0.086l0.123,0.036l0.105,0.087l0.333,0.105l0.157,0.157l0.122-0.141h0.192h0.123l0.087,0.089h0.228V28.19l0.088,0.209
		l0.104,0.017v0.174c0.28,0,0.576-0.262,0.576-0.262V28.486z"/>
	<path fill="#C5D3DD" d="M42.211,42.986c-0.21,0-0.21,0-0.21,0v0.419v0.455v0.209l0.245,0.385l0.244-0.244h0.384
		c0,0,0.139,0.209,0.139-0.141c0-0.349,0-0.664,0-0.68c0-0.018-0.174,0.436,0-0.018c0.176-0.454,0.141-0.664,0.141-0.664H42.84
		h-0.349C42.491,42.707,42.422,42.986,42.211,42.986z"/>
	<path fill="#C5D3DD" d="M43.399,42.183c-0.035,0.209-0.069,0.524-0.069,0.524l0.072,0.14h0.381v0.28c0,0,0.279-0.07,0.21,0.173
		c-0.07,0.246-0.07,0.246-0.07,0.246l-0.245,0.174l-0.036,0.244l-0.151,0.245h0.292c0,0,0.303-0.209,0.221,0
		c-0.081,0.209-0.847,0.489-0.847,0.489h0.341h0.25h0.27l0.569-0.245c0,0,0.314-0.07,0.42,0c0.104,0.07,0.209-0.244,0.209-0.244
		l-0.174-0.245c0,0,0.069-0.14,0.174-0.244c0.106-0.105-0.594-0.14-0.594-0.14s0.069-0.104,0-0.35
		c-0.069-0.245-0.069-0.209-0.139-0.384c-0.071-0.175,0.173,0.035-0.071-0.175c-0.244-0.209-0.31-0.385-0.31-0.385v-0.523
		c0,0-0.109,0.174-0.215,0c-0.104-0.175-0.104-0.175-0.104-0.175l0.14-0.454h-0.56l-0.207,0.385l-0.178,0.244l0.178,0.313
		C43.157,42.078,43.435,41.974,43.399,42.183z"/>
	<path fill="#C5D3DD" d="M57.253,33.098v0.577h1.049c0,0,0.419-0.21,0.261-0.367c-0.157-0.157,0.052,0.472-0.157-0.157
		s-0.209-0.629-0.209-0.629v-1.052l0.053-0.626L58.6,30.32l1.013-0.628l0.208-0.367v-0.472l-0.577-0.262c0,0-0.313,0-0.365,0.262
		c-0.053,0.262-0.053,0.262-0.053,0.262s-0.053,0.525-0.498,0.629c-0.444,0.105-0.444,0.105-0.444,0.105l-0.63,0.47v0.682
		l-0.419,0.682l0.419,0.787V33.098z"/>
	<path fill="#C5D3DD" d="M83.896,59.299c0.006,0,0.04-0.003,0.054-0.005c0.013-0.002,0.032-0.01,0.032-0.01s0.012-0.026,0.012-0.036
		c0-0.009,0-0.052,0-0.052s-0.01-0.035-0.023-0.04c-0.013-0.003-0.05-0.001-0.041-0.021c0.01-0.02,0.01-0.09,0.01-0.09l0.005-0.071
		c0,0,0.004,0.032,0.012-0.035c0.009-0.067,0.009-0.077,0.009-0.077l0.015-0.025l0.057-0.044l0.012-0.054v-0.023l-0.065-0.023
		l-0.053-0.006l-0.043,0.009c0,0-0.005,0.006-0.007,0.018c-0.002,0.01-0.035,0.08-0.035,0.08l-0.023,0.026l0.004,0.038
		c0,0,0,0.05,0,0.056c0,0.007-0.004,0.046-0.007,0.053c-0.002,0.007-0.019,0.036-0.019,0.036h-0.053l-0.039,0.014l-0.049,0.004
		l0.029,0.095l0.002,0.037l0.062,0.048l0.054-0.002l0.051,0.014c0,0,0.01,0.033,0.01,0.038c0,0.008,0,0.044,0,0.044
		S83.888,59.299,83.896,59.299z"/>
	<path fill="#C5D3DD" d="M20.829,26.058c-0.524,0.542-0.734,0.804-0.734,0.804h-0.315l-0.261-0.418c0,0.156,0,0.418,0,0.418
		l-0.812,0.314v0.682h0.405l0.407,0.262l0.576-0.21l0.419,0.21H21.3v-0.682l-0.471-0.577C20.829,26.862,21.353,25.516,20.829,26.058
		z"/>
	<path fill="#C5D3DD" d="M19.256,26.058c0,0,0.158-0.087,0.262-0.35c0.104-0.261,0.157-0.417,0.157-0.417l0.419-0.369h-1.388h-0.509
		l-0.566,0.369l-0.313,0.26l0.053,0.507c0,0,0.261,0.07,0.629,0c0.367-0.07,0.198,0,0.198,0v0.804l0.534-0.262L19.256,26.058z"/>
	<path fill="#C5D3DD" d="M21.667,24.504c-0.367,0-0.943,0.208-0.943,0.208v0.486v0.694l0.577-0.969c0,0,0.315,0.157,0.524,0
		c0.21-0.157,0.21-0.419,0.21-0.419S22.034,24.504,21.667,24.504z"/>
	<polygon fill="#C5D3DD" points="24.025,28.12 24.025,28.591 24.025,29.063 24.706,29.377 24.968,29.377 25.388,29.797 
		25.702,29.797 26.698,30.033 26.855,28.958 26.786,28.591 25.65,28.591 24.968,28.381 24.654,28.12 24.654,27.438 23.885,27.438 
		23.885,26.862 23.554,27.176 23.449,27.438 23.71,28.591 	"/>
	<path fill="#C5D3DD" d="M79.631,62.604c0,0,0.211,0.17,0.198,0.303v0.129v0.172v0.17l0.301-0.039l0.249,0.039v0.224l0.196-0.093
		l0.17-0.013l0.184-0.105l0.197,0.211h0.091v0.117h0.276c0,0,0.234-0.249,0.234-0.314s0.132-0.17,0.132-0.17s-0.027-0.21-0.079-0.21
		c-0.053,0,0.157-0.236,0.157-0.236l0.065,0.027l0.117-0.184v-0.079c0,0,0.132-0.34,0.146-0.42l0.077-0.104l0.08,0.065l0.234-0.038
		c0,0-0.129-0.119-0.223-0.158c0,0-0.156-0.104-0.156-0.196s0.117-0.093,0.117-0.093l-0.235-0.313c0,0,0.092,0.117,0.092,0
		c0-0.118-0.078-0.17-0.078-0.17h0.144l-0.025-0.105l0.209-0.078c0,0-0.131-0.066-0.105-0.184c0,0,0.302-0.025,0.328-0.092
		c0.026-0.065-0.053-0.145-0.13-0.145c0,0-0.145-0.091-0.276,0c0,0,0.039-0.288-0.105-0.13c0,0-0.052-0.067,0-0.118l-0.117-0.079
		l-0.026-0.117H81.99l-0.04,0.064l-0.052-0.064l-0.078,0.117c0,0-0.119,0.21-0.119,0.248c0,0.04-0.196,0.146-0.196,0.146h-0.065
		l0.039,0.116l-0.104,0.054l-0.025-0.17c0,0-0.218,0.196-0.254,0.183v0.184c0,0-0.336,0.314-0.336,0.38c0,0-0.458,0.066-0.458,0.132
		c0,0.064-0.104,0.418-0.104,0.418l-0.354-0.104l-0.104-0.078l-0.198,0.315l-0.078,0.208v0.146l0.078,0.104L79.631,62.604z"/>
	<path fill="#C5D3DD" d="M82.257,59.409c0,0,0.017-0.08,0.069-0.097c0.053-0.019,0.087-0.04,0.087-0.04l0.08-0.07v-0.044v-0.117
		l0.043-0.022h0.128c0,0-0.005-0.139,0.09-0.144c0,0,0.016-0.114-0.025-0.132l-0.035-0.19c0,0-0.057,0.039-0.049,0.152l-0.047,0.009
		l0.047,0.073v0.045l-0.043,0.035l-0.063,0.021l-0.082,0.073l0.014,0.071h-0.048l-0.07,0.13l-0.079,0.08L82.2,59.247l-0.021,0.092
		c0,0-0.136,0.101-0.131,0.174c0,0,0.072-0.03,0.095-0.026C82.143,59.486,82.223,59.387,82.257,59.409z"/>
	<polygon fill="#C5D3DD" points="82.757,58.375 82.757,58.442 82.812,58.442 82.872,58.408 82.815,58.356 	"/>
	<path fill="#C5D3DD" d="M82.93,58.356c0-0.006,0.021-0.026,0.021-0.026l-0.021-0.04l-0.062-0.042c0,0-0.036-0.006-0.057-0.023
		c-0.023-0.018-0.055,0-0.055,0v0.046l0.06,0.06h0.052h0.035C82.903,58.33,82.93,58.36,82.93,58.356z"/>
	<path fill="#C5D3DD" d="M83.356,57.938h-0.052l-0.069-0.035l-0.049-0.075l-0.062-0.047l-0.044,0.022l-0.034,0.024l-0.043-0.047
		l-0.074,0.047l0.062,0.035l0.004,0.075h0.052l0.005,0.032l0.035,0.037l-0.014,0.086l0.069,0.01l-0.03,0.087l0.03,0.018
		c0.057,0.127,0.17,0.026,0.17,0.026l0.005-0.044l0.018-0.026l0.004-0.064l-0.026-0.071h0.022L83.356,57.938z"/>
	<path fill="#C5D3DD" d="M85.044,59.765l-0.041-0.06l0.019-0.07l-0.041-0.038v-0.086c-0.021,0-0.046-0.062-0.046-0.062l0.038-0.004
		l0.008-0.074c0,0,0,0-0.008-0.037c-0.005-0.028-0.002-0.028-0.001-0.026l-0.045-0.058l-0.024-0.002l-0.015,0.018l-0.081-0.052
		l-0.041-0.063l-0.032-0.059l-0.035-0.013l-0.048-0.01l-0.003,0.013l-0.017,0.084l0.043,0.048v0.099l-0.026-0.038H84.61v0.085
		l-0.063-0.016l-0.05-0.015l-0.018,0.015c0,0-0.003,0.01-0.01,0.024c-0.01,0.012-0.004,0.009-0.027,0.063
		c-0.023,0.052,0.011,0.032,0.011,0.032l0.023,0.014l0.003,0.022l-0.026,0.034l-0.025-0.04l-0.04-0.026l-0.033,0.014l-0.046,0.042
		v0.05c0,0-0.037,0.045-0.048,0.047c-0.008,0.003-0.11,0.041-0.11,0.041s0.025-0.025,0.034-0.034s0.007-0.052,0.007-0.063
		c0-0.012-0.037-0.051-0.037-0.051s-0.026-0.03-0.033-0.044c-0.006-0.012-0.023-0.033-0.023-0.033l-0.057-0.005l-0.012,0.036
		l-0.03,0.019l-0.087,0.049c0,0-0.021,0.034-0.029,0.042c-0.008,0.01,0.016,0.025,0.016,0.025l0.014,0.031l-0.026-0.002l-0.05,0.004
		c0,0-0.048-0.018-0.063-0.016c-0.016,0.003-0.065,0.021-0.065,0.021l-0.055,0.051l-0.047,0.057l0.012,0.031l0.018,0.026
		l-0.002,0.055c0,0-0.02,0.042-0.021,0.053c-0.003,0.011-0.024,0.037-0.024,0.037s-0.025,0.032-0.025,0.041
		c0,0.008,0.025,0.024,0.025,0.024l0.046,0.047l0.041-0.045c0,0,0.012-0.076,0.012-0.088c0-0.065,0.062-0.071,0.062-0.071v-0.048
		l0.043-0.048h0.03c0,0,0.011,0.01,0.023,0.027c0.014,0.019,0,0.068,0,0.068l0.024,0.023c0,0,0.015,0.003,0.039-0.007
		c0.023-0.009,0,0,0-0.012c0-0.014,0.033-0.051,0.033-0.051s0,0,0.007,0.009c0.006,0.009,0.022,0.025,0.022,0.025l0.036,0.023
		c0,0,0.011,0.015,0.029,0.019c0.018,0.005,0.012-0.009,0.012-0.009v-0.029l-0.002-0.029l-0.002-0.022l0.021-0.036h0.041
		l0.037,0.059l0.022,0.007l0.032,0.004l0.026,0.011l0.05,0.062l0.061,0.05l-0.035,0.004l-0.042,0.01l-0.014,0.044l-0.013,0.025
		c0,0,0.004,0.008,0.019,0.036c0.013,0.025,0.004,0.034,0.004,0.034l-0.004,0.054c0,0,0,0,0.008,0.026s0.03,0.024,0.03,0.024
		s0,0,0.021,0.042c0.022,0.041,0,0,0.005,0.027c0.005,0.028,0.014,0.019,0.021,0.043c0.008,0.027,0.017,0.022,0.017,0.022h0.039
		l0.024-0.008l0.065,0.059c0,0,0.025,0.018,0.052,0.025c0.027,0.006,0.029,0,0.055-0.007c0.026-0.004,0.042-0.039,0.042-0.039
		s0.018-0.034,0.032-0.034c0.016,0,0.005,0.028,0.005,0.028l-0.02,0.058c0,0,0.002,0.023,0.006,0.035
		c0.005,0.014,0.021,0.023,0.021,0.023l0.057-0.047l0.064-0.045c0,0,0.03-0.042,0.034-0.053s-0.002-0.058-0.002-0.058l-0.026-0.065
		l-0.046-0.073c0,0-0.039-0.053-0.042-0.073c-0.002-0.023,0.129-0.164,0.129-0.164l0.03,0.043l0.024,0.062l0.018,0.077l0.015,0.093
		l0.046,0.08l0.021-0.05c0,0,0.002-0.049,0.002-0.055c0-0.007-0.026-0.097-0.026-0.097l0.018-0.013l0.074-0.02
		c0,0,0.039-0.083,0.044-0.104c0.002-0.021,0-0.09,0-0.09L85.044,59.765z"/>
	<path fill="#C5D3DD" d="M82.729,57.036l0.068,0.131v0.157v0.092l0.137,0.065l-0.014-0.091l0.065-0.053l0.119,0.066l-0.099,0.278
		c0.033-0.03,0.15,0.049,0.15,0.049l0.171,0.064c0-0.077,0.025-0.092,0.187-0.092c0.101,0,0.135,0.062,0.147,0.107l-0.021-0.159
		l0.211,0.25l0.038,0.078l0.171,0.026l0.026,0.183h0.144v-0.169l-0.195-0.118l0.065-0.112l-0.224-0.151c0,0,0.045,0.192,0.011,0.144
		c-0.011-0.016-0.03-0.058-0.063-0.144c-0.132-0.34-0.366,0-0.366,0l-0.105-0.092l-0.025-0.184c0,0-0.053-0.183-0.053-0.222
		c0-0.04,0.184-0.131,0.184-0.131l0.079-0.275V56.46l-0.146-0.157l0.079-0.182c0,0-0.079-0.093-0.104-0.08
		c-0.027,0.014-0.158,0.08-0.158,0.08l-0.077-0.08l-0.297,0.065v0.118l-0.031,0.104c0.065,0.079,0.014,0.262,0,0.354
		c-0.015,0.092,0,0.196,0,0.196l-0.158-0.025L82.729,57.036z"/>
	<path fill="#C5D3DD" d="M78.609,63.862l-0.131-0.235l0.131-0.288l-0.262-0.185l-0.314-0.366l-0.157-0.184V62.37l-0.157-0.131
		h-0.104l-0.5-0.288l-0.366-0.288l-0.13-0.368l-0.42-0.184v-0.157l-0.341-0.366h-0.472h-0.419c0.077,0.208,0.628,0.498,0.628,0.498
		l0.288,0.366l0.054,0.235l0.313,0.21c0,0,0.079,0.419,0.157,0.419c0.08,0,0.38,0.525,0.38,0.525v0.366l0.484,0.34l0.577,0.577
		l0.262,0.235l0.262-0.235h0.236V63.862z"/>
	<path fill="#C5D3DD" d="M50.088,2.705c-25.995,0-47.067,21.073-47.067,47.066c0,25.995,21.072,47.067,47.067,47.067
		c25.993,0,47.066-21.072,47.066-47.067C97.154,23.778,76.081,2.705,50.088,2.705z M90.664,63.444c-0.053-0.133-0.446,0-0.446,0
		l-0.575-0.262l-0.184-0.225h-0.473h-0.472l-0.339,0.407l-0.368,0.079c0,0-0.157-0.158-0.21-0.42
		c-0.052-0.262-0.131-0.274-0.131-0.274v-0.172l-0.288-0.104h-0.393l-0.21,0.237v0.155l0.288,0.158h0.603l-0.104,0.184h-0.211
		c0,0,0,0-0.182,0c-0.184,0-0.105,0.236-0.105,0.236s0,0,0.053,0.104c0.053,0.105,0.183,0.171,0.183,0.171s0.105-0.092,0.184-0.171
		c0.079-0.078,0.211,0.026,0.211,0.026l0.287,0.288l0.419,0.079l0.34,0.026l0.184,0.026l0.08,0.118l0.025,0.248v0.446
		c0,0,0,0,0,0.13c0,0.132,0.419,0.026,0.419,0.026l0.105,0.236l0.394,0.08l0.207,0.154c-0.339,0.862-0.701,1.713-1.093,2.548
		l-0.215-0.135c0,0-0.733-0.157-0.786-0.314s0-0.421,0-0.421l0.472-0.785l-0.576-0.104l-0.735,0.054l-0.444-0.368v0.472
		c-0.656,0.053-0.813,0.892-0.813,0.892h-0.263l-0.209-0.368l-0.473,0.104l-0.523,0.264v0.47l-0.261,0.525l-0.263-0.525
		c0,0-0.42,0.264-0.472,0.578c-0.054,0.315-0.367,0.628-0.367,0.628c-0.63-0.104-2.044,0.683-2.044,0.683l-0.419,0.575l-0.368,0.42
		l0.473,0.577h-0.473l0.314,0.629l0.158,0.839l-0.052,1.019l-0.421,0.395l0.787,0.787c0.156-0.577,1.781-0.21,1.781-0.21
		l0.682-0.262v-0.42l0.787,0.053l0.995-0.343c0.177,0.002,0.327,0.019,0.465,0.042c-7.698,11.39-20.731,18.876-35.512,18.876
		c-23.658,0-42.835-19.177-42.835-42.834c0-2.251,0.177-4.462,0.51-6.62l0.277,0.586l0.158,0.891c0,0-0.472,0.682-0.733,2.096
		c-0.263,1.416,0.314,3.459,0.314,3.459l0.944,0.367c-0.157,0.42,0.472,1.52,0.472,1.52c0.681,0.368,0,0.821,0,0.821
		c0.42,0.089,0.576,1.014,0.576,1.014s0.892,0.839,0.944,0.63c0.052-0.211-0.367-0.735-0.367-0.735c0-0.628-0.262-0.908-0.262-0.908
		c-1.302-1.457-0.366-1.346-0.366-1.346c0,0.473,0.89,1.678,0.89,1.678c0.42,0.524,1.259,1.886,1.259,1.886
		c-0.21,1.048,0.314,0.893,0.314,0.893l0.629,0.419c0.261,0.63,2.159,0.767,2.159,0.767l1.022,0.707l1.258,0.366l1.886,1.757
		l0.55-0.393l0.629,0.393v1.493l-1.179,1.102v0.942v0.865l1.73,2.516l2.2,1.493v5.109l-0.471,1.494l0.078,1.886l0.393,1.023
		c0,0-0.393,4.794,3.381,4.794l0.708-0.472l-1.966-1.492l0.628-1.338l-0.236-2.673l0.787-0.785l1.887-0.943l0.079-0.943l1.888-2.438
		l-0.316-0.865l2.28-1.101c0,0,0.786-1.886,0.472-2.986c0,0,2.201-1.65,0.864-2.829l-0.549-0.315l-0.865-0.549h-1.257l-1.652-0.71
		l0.08-0.628c0,0-0.629-1.493-2.122-1.414c0,0-2.045-1.573-2.752-1.338c0,0-1.966-1.463-3.774-0.022l-1.95-0.533l0.368-1.173
		c0,0-1.258-0.49-1.94,0l0.263-0.767l0.576-1.048c0,0-0.983-0.903-1.729,0.629c0,0-1.625,0.576-1.678-1.835
		c0,0,0.053-2.724,2.463-1.729c0,0,2.254-1.081,2.254,0.453c0,0,0.683,2.323,0.683-0.4l0.104-1.048l0.575-0.264l1.101-0.785
		l-0.053-0.84l1.206-1.572h1.101c0,0-0.472-1.205,1.677-1.467l-0.314,0.786l2.044-0.786c0,0-1.834-0.314-1.363-1.205
		c0,0,0.577-0.996-1.311-0.419l0.944-0.682c0,0,2.201,0.209,2.358-0.314c0,0,0.996,0,0.996-0.944c0,0-0.944-1.468-1.52-1.468
		l0.367-0.524l-0.472-1.729c0,0-1.886,2.569-1.415-0.263l-0.419-0.156c-0.356-1.126-0.839-0.786-0.839-0.786
		c-1.257-0.944-0.785,0.261-0.785,0.261l-0.419,0.472l0.104,0.524l-0.367,0.734c0.734,1.363-0.892,1.938-0.892,1.938
		c0.105,0.419-0.262,1.468-0.262,1.468l-0.524-0.682l0.21-1.258l-0.682,0.159l-0.629-0.629l-0.472-0.158l-0.21-0.733l-0.732,0.263
		l0.104-0.997l-0.472,0.052c-0.209-1.048,2.464-2.934,2.464-2.934l0.261,0.052L22.4,35.51h0.734l0.682-0.315l0.105-0.892
		l0.418-0.209l-0.523-0.943l-0.314,0.732l-0.943,0.525l-0.21-0.577v-0.472l-0.523-0.209l0.262-0.629l0.053-0.996l-0.262-0.262
		l-0.891,0.157l-0.053,1.415l-0.315-0.472l-0.68,0.472v0.314v0.524l-0.263,0.262l-0.839-0.157l-0.419-0.629l0.472-0.367
		c0.681,0,1.049-0.891,1.049-0.891c-0.577-1.153,0.261-2.253,0.261-2.253l-0.42-0.629l-0.47,0.367
		c-0.402,0.133-0.483,0.65-0.49,1.007l-0.036-0.745l-0.418-0.263c-0.315-0.314-0.63,0.104-0.63,0.104l-0.052-0.628
		c-0.384-0.032-0.943,0.249-1.321,0.472l0,0l-0.002,0c0,0,0.001,0,0.002,0l0.168-0.734c0,0,0,0,1.153,0s0-0.262,0-0.262v-0.628
		l-0.472-0.263h-0.524l-0.576,0.263H15.85l-0.105,0.314c0,0,0,0-0.629,0.208c-0.628,0.21,0,0-0.419,0.367
		c-0.418,0.367-0.157,0.84-0.157,0.84l-0.052,0.603h0.576h0.524l0.367-0.445l0.628,0.576H15.85l-0.053,0.786l1.415,0.524
		c0,0-1.415-0.524-1.519-0.052c-0.105,0.471,0.786,0.628,0.786,0.628l0.209,0.472l1.573-0.472l-0.052,0.419l-0.891,0.419
		l-0.315,0.891l-0.261-0.629l-1.101-0.157l0.472-0.472c0,0-0.262-0.525-0.419-0.525c-0.158,0-1.625-1.153-1.625-1.153l-0.471,0.263
		l-0.314-0.943c-0.103,0.345-0.89,0.326-1.414,0.273c7.066-13.94,21.522-23.5,38.22-23.5c15.503,0,29.082,8.238,36.601,20.576
		l-0.42-0.336l-0.943,0.611l-0.393,0.157l-0.55,0.314l-0.865-0.549c0,0,0.079-0.436-0.157-0.533
		c-0.235-0.098-1.729,0.689-1.729,0.689l-0.864-0.689c0,0-1.415-0.846-1.415,0h-1.493l0.472,1.082l-1.337,0.333l-0.629,0.455
		l-0.314,0.988l-0.708-1.442c0,0,0-0.49-0.313-0.568c-0.315-0.079-1.182-0.079-1.182-0.079l-0.864,0.646h-0.785h-1.259h-0.551
		l-0.55,0.926l0.629-2.34l-1.415-0.489l-0.629-0.629l-0.55,1.118L67.48,26.53l-0.234-0.472h-0.668c0,0-0.513,1.293-0.276,1.118
		s0.63,0,0.63,0l-0.354,0.611l-0.904,0.157l-1.102,1.101l0.079,0.988l-1.337,0.505l0.472,0.932l0.314,0.797l-1.258-0.797
		l-0.314,0.797l0.236,0.786l-0.707-0.392l-0.08-1.191h-0.786c0,0-0.078,0.641-0.078,0.876c0,0.236-0.078,0.629-0.078,0.629
		l-0.236,0.471l0.393,0.472l0.472,0.943l-1.1-0.597h-0.551l-0.785-0.426l0.785,1.18l-1.101,0.079l-0.864,0.314l-0.393-0.314
		l-1.416,0.865l-1.195,1.125l-0.376,0.29l-0.157,0.708H53.96l-0.314-0.55l-0.628-0.865l1.57,0.079l0.709-0.629l-0.943-0.628
		l-1.022-0.314l-0.864-0.079l-0.943-0.393l0.943-0.44h-1.809l-1.592,1.226l-1.395,1.887l-0.237,1.119l-0.864,0.688l-0.629,0.832
		v1.212l0.863,0.629l0.787-0.943l0.787,1.18l0.687,0.392l0.413-0.864v-0.708l0.393-0.236v-0.662l-0.806-0.438l0.963-1.083
		l0.061-0.123l0.332-0.682l0.709-0.313l-0.236,1.119l-0.787,1.16l0.236,0.36h0.787h0.864h0.707l-0.392,0.662l-0.865-0.236
		l-0.473,0.314l0.078,0.865l-0.156,0.472l-0.473-0.472l0.08,0.864l-0.709,0.472l-0.727,0.078h-1.082L47.2,43.115l-1.337,0.63
		l-0.236,0.786l-1.179,0.629l-0.864,0.392l0.707,0.943l-0.314,0.786l-0.865,0.157l-0.943-0.078l-0.393,0.157
		c0,0,0.628,1.965,0.235,1.965l0.079,0.388h1.021h0.788l0.864-0.545l0.472-0.079l0.157-0.707h0.471v-1.022h0.708l0.234,0.393
		l0.708-0.629l0.629,0.473l1.257,1.257l-0.334,0.551l0.256,0.309l0.785-0.388l-0.314-1.335l-0.234-0.408l-0.493-0.851l1.514,1.022
		v1.101l0.943,0.86l0.472,0.398l0.472-0.398l-0.236-1.41l0.787,0.786l0.235,0.944h1.415l0.864-0.32l0.235,0.87
		c0,0-0.393,0.708-0.785,1.178l-1.258,0.237l-1.967-0.945l-0.863,0.631c0,0.942-1.258,0.157-1.258,0.157l-0.57-0.473h-0.374
		l-1.021-0.393l0.472-0.473l-0.314-0.471h-2.594l-0.944,0.628l-1.022-0.628l-0.236,0.786c0,0-1.022,0.394-1.179,1.1
		c-0.157,0.708-0.472,0.814-0.472,0.814c-0.629-0.128-1.887,2.408-1.887,2.408c0.865,1.102,0,2.438,0,2.438
		c0.079,1.259,2.995,3.301,2.995,3.301c0.166-0.471,2.272-0.471,2.272-0.471l0.864-0.313l1.258,0.708l0.865,0.076v1.102v0.787
		c0.786,0,1.316,2.279,1.316,2.279v0.858c-0.57,0.153-0.766,2.129-0.766,2.129l0.766,1.415c-0.099,0.55,0.727,1.886,0.727,1.886
		l0.629,0.866v1.257c0,0,1.336,0.157,2.123,0c0.786-0.158,2.438-2.594,2.438-2.594v-0.551h0.707v-1.651
		c0-0.785,1.887-1.494,1.887-1.494l-0.235-1.965c-0.551-0.393,0-1.808,0-1.808c3.143-2.044,3.772-5.109,3.772-5.109h-1.101
		l-0.943,0.551l-0.866-0.473l-0.114-0.808l-0.25-0.214l-0.734-0.629l-0.394-0.629l-0.943-1.288l-0.155-1.306l0.155-0.759
		l1.179,1.702l0.865,1.65l1.258,1.965l0.707-0.393l2.358-1.021l1.023-0.708l0.551-1.131l-0.473-0.441l-0.197-0.078l-0.589-0.234
		l-0.079-0.473L61.97,54.03l-0.542,0.404l-0.55-0.232l-0.629-0.866l-0.078-0.865l0.628-0.078l0.709,0.499h0.784l0.944,0.759
		l2.122,0.314l0.864,0.314c0,0,0.236,0.019,0.394,0.677c0.158,0.659-0.236,0.58,0.158,0.659c0.392,0.078,0.706-0.236,0.706-0.236
		l0.552,1.651l0.786,1.415l0.549,1.101l0.63,0.157l0.629-0.865v-1.179v-0.864l1.336-0.708l0.472-0.394l1.021-0.737h0.473
		l0.314,1.603l0.864,0.551l0.472-0.079l0.393,1.021v1.494l0.472,0.629l0.472,0.63l0.394,1.134h0.551c0,0,0.156-0.191,0-0.977
		C77.7,60.175,76.6,58.996,76.6,58.996l0.472-0.787c0,0,1.241,0.491,0.856,1.258l0.402-0.235l0.942-0.628l0.551-0.237
		c0,0-0.551-0.394-0.551-0.786s0.079-0.863-0.235-0.863S78.33,55.93,78.33,55.93l0.393-0.471l1.101-0.159l1.729-0.344l1.416-2.721
		c0,0-0.314-1.573-0.943-2.044l-0.55-0.472l-0.158-0.865h1.102l-1.494-0.471c0,0-0.079-0.315,0.393-0.787
		c0.472-0.471,0.551,0,0.551,0l1.101,0.158v0.786l0.785,0.078c0,0,0,0.786,0,1.179c0,0.394,0.944-0.235,0.944-0.235
		s-0.394-2.385-0.787-2.175l0.394-0.209l-0.078-0.839l0.472-0.392h0.55l1.258-2.91l-0.473-1.179l-0.234-0.786L85.325,39.5
		l-1.415,0.517L83.675,39.5c0,0,0.551-1.179,0.551-1.494c0-0.315-0.158-0.943-0.158-0.943l1.65-0.472h1.337h0.394v-0.314v-1.65
		l1.102-0.708v1.022h0.471v1.65v0.865l1.415,3.616l0.55-1.055l0.314-1.521l-0.472-1.905l-0.943-1.1c0,0,0.141-0.315,0.357-0.653
		c1.73,4.65,2.68,9.681,2.68,14.933c0,4.789-0.797,9.387-2.246,13.687C90.672,63.453,90.665,63.449,90.664,63.444z"/>
	<path fill="#C5D3DD" d="M83.356,64.99l-0.628,0.026h-0.084h-0.13c0,0,0.166-0.157-0.468-0.157c-0.632,0-1.052-0.105-1.052-0.105
		l-0.132-0.157l-0.209-0.053l-0.342-0.184c0,0-0.077,0.131-0.21,0.157c-0.13,0.026-0.13,0.026-0.13,0.026s0.026,0.053-0.262,0.027
		c-0.288-0.027-0.288-0.027-0.288-0.027l-0.184-0.184h-0.131h-0.263h-0.236l-0.091,0.058l-0.119,0.073l0.21,0.184v0.104l0.34,0.106
		h0.211c0,0,0.104-0.132,0.394,0c0.288,0.131,0.288,0.131,0.288,0.131l0.655,0.079c0.157,0,0.598,0,0.598,0
		c0.109,0.052,0.109,0.052,0.109,0.052h0.68h0.519h0.242h0.712h1.063l-0.34-0.262L83.356,64.99z"/>
	<path fill="#C5D3DD" d="M83.562,58.822l0.058-0.017l0.035-0.019l0.053-0.027l0.031-0.023l0.038-0.028l0.053-0.054
		c0,0,0.013-0.021,0.022-0.036c0.008-0.016,0.008-0.016,0.008-0.016s0.021-0.025,0.036-0.031c0.012-0.009,0.029-0.013,0.032-0.019
		c0.001-0.008,0.001-0.007,0.001-0.019c0-0.013-0.009-0.061-0.012-0.068c-0.005-0.005-0.012-0.014-0.016-0.023
		c-0.004-0.009-0.021-0.013-0.024-0.007c-0.004,0.007-0.016,0.021-0.021,0.03c-0.007,0.013-0.012,0.027-0.012,0.027l-0.02,0.002
		L83.8,58.479c0,0-0.023-0.028-0.03-0.033c-0.006-0.005-0.027-0.014-0.027-0.014l-0.053,0.002c0,0-0.021,0.002-0.028,0.006
		c-0.009,0.001-0.021,0.008-0.021,0.008c-0.006-0.008-0.032-0.054-0.032-0.054s-0.017-0.009-0.021-0.012
		c-0.007-0.003-0.005-0.035-0.025-0.042c-0.019-0.006-0.04-0.01-0.04-0.01s-0.026,0-0.038,0.01c-0.013,0.011-0.021,0.019-0.03,0.028
		c-0.009,0.011-0.003,0.025-0.003,0.025l0.037,0.016c0,0,0.029,0.01,0.036,0.01c0.006,0,0.038,0.028,0.038,0.028l-0.017,0.048v0.069
		v0.073v0.046l-0.037,0.011l0.037,0.123v0.039L83.562,58.822z"/>
	<path fill="#C5D3DD" d="M83.462,57.78h-0.024c0,0-0.033,0-0.033,0.021c0,0.022,0.002,0.057,0.017,0.066
		c0.015,0.009,0.063,0.048,0.074,0.048c0.015,0,0.066-0.067,0.066-0.067l-0.048-0.047L83.462,57.78z"/>
	<path fill="#C5D3DD" d="M83.961,58.271l0.056-0.034l0.016,0.034l0.032,0.08l0.034,0.024h0.07l0.028-0.019V58.29l-0.047-0.042
		c0,0-0.039-0.011-0.052-0.019c-0.012-0.008-0.052-0.019-0.052-0.019l-0.057-0.021l-0.078-0.066l-0.008,0.11l-0.023,0.037
		l0.023,0.06v0.021L83.961,58.271z"/>
	<path fill="#C5D3DD" d="M83.723,58.856c0.032-0.014,0.046-0.023,0.047-0.033c0.003-0.009,0.019-0.038,0.011-0.038
		c-0.006,0-0.017-0.012-0.023-0.012s-0.037,0-0.037,0l0.003,0.012l-0.033,0.034c0,0-0.006,0.009,0,0.016
		c0.003,0.006,0.016,0.021,0.016,0.021S83.689,58.869,83.723,58.856z"/>
	<path fill="#C5D3DD" d="M84.23,57.78c0.019,0,0.041-0.015,0.034-0.035c-0.004-0.022,0-0.053,0-0.053l-0.058-0.054l-0.038-0.022
		H84.15v0.067l-0.022,0.048l0.055,0.069C84.183,57.801,84.213,57.78,84.23,57.78z"/>
	<path fill="#C5D3DD" d="M83.483,58.189v0.081l0.03,0.02l0.048-0.02l0.019-0.06v-0.057l-0.013-0.053l-0.006-0.021l-0.052,0.104
		C83.501,58.203,83.483,58.189,83.483,58.189z"/>
	<path fill="#C5D3DD" d="M84.487,58.992v-0.078l0.049,0.039h0.035l0.022-0.039v-0.058c0,0-0.013-0.028-0.035-0.06
		c-0.022-0.03-0.043-0.023-0.043-0.023l-0.028-0.047v-0.041c0,0,0-0.067,0-0.093c0-0.024-0.029-0.04-0.029-0.04l-0.075,0.04
		l-0.096-0.04c0,0,0.018,0.034,0.018,0.073s-0.013,0.053-0.018,0.06C84.283,58.691,84.34,58.7,84.34,58.7s0,0,0.013-0.015
		c0.014-0.017,0.03,0,0.03,0v0.036l0.037,0.097c0,0,0.012,0.057,0.02,0.083c0.01,0.025,0.026,0.057,0.019,0.074
		C84.449,58.993,84.487,58.992,84.487,58.992z"/>
	<path fill="#C5D3DD" d="M84.398,59.271c0,0,0.012,0.03,0.016,0.028c0.005-0.003,0.024,0,0.024,0l0.02-0.037
		c0,0-0.015-0.05-0.024-0.05s-0.036,0.011-0.036,0.011h-0.017l0.013,0.033L84.398,59.271z"/>
	<path fill="#C5D3DD" d="M84.173,59.118l0.034,0.028l0.032-0.003l0.057-0.025l0.003-0.01h0.018l0.038-0.027l0.008-0.012
		c0,0,0.024-0.026,0.019-0.051c-0.004-0.022-0.017-0.064-0.017-0.064H84.32c0,0-0.034-0.002-0.041,0
		c-0.008,0.002-0.074,0.016-0.072,0.021s-0.01,0.021-0.02,0.025c-0.012,0.007-0.033,0.029-0.035,0.032
		c-0.002,0.002-0.002,0.01-0.002,0.017s0.021,0.043,0.021,0.043L84.173,59.118z"/>
</g>
</svg>
