<?xml version="1.0" encoding="utf-8"?>
<!-- Generator: Adobe Illustrator 21.0.2, SVG Export Plug-In . SVG Version: 6.00 Build 0)  -->
<svg version="1.1" id="Layer_1" xmlns="http://www.w3.org/2000/svg" xmlns:xlink="http://www.w3.org/1999/xlink" x="0px" y="0px"
	 viewBox="0 0 100 100" style="enable-background:new 0 0 100 100;" xml:space="preserve">
<style type="text/css">
	.st0{fill:#35A8E0;}
</style>
<g>
	<path class="st0" d="M84.2,28.4H71.8v-3.7c0-7-5.7-12.7-12.7-12.7H40.9c-7,0-12.7,5.7-12.7,12.7v3.7H15.8c-4.7,0-8.5,3.8-8.5,8.5
		v13.9h36.5v-3.2h12.9v3.2h35.9V36.9C92.6,32.2,88.8,28.4,84.2,28.4z M39.3,24.7c0-0.9,0.7-1.5,1.5-1.5h18.3c0.9,0,1.5,0.7,1.5,1.5
		v3.7H39.3V24.7z"/>
	<path class="st0" d="M56.8,64.3H43.9v-7.4H7.4v22.7c0,4.7,3.8,8.5,8.5,8.5h68.3c4.7,0,8.5-3.8,8.5-8.5V56.8H56.8V64.3z"/>
</g>
</svg>
