<?xml version="1.0" encoding="utf-8"?>
<!-- Generator: Adobe Illustrator 21.0.2, SVG Export Plug-In . SVG Version: 6.00 Build 0)  -->
<svg version="1.1" id="Layer_1" xmlns="http://www.w3.org/2000/svg" xmlns:xlink="http://www.w3.org/1999/xlink" x="0px" y="0px"
	 viewBox="0 0 762.7 384.9" style="enable-background:new 0 0 762.7 384.9;" xml:space="preserve">
<style type="text/css">
	.st0{fill:#35A8E0;}
	.st1{fill:#217BBF;}
	.st2{fill:#FFFFFF;}
	.st3{fill:#1D1D1B;}
</style>
<circle class="st0" cx="381.4" cy="148" r="118.2"/>
<g>
	<path class="st1" d="M303.5,126.8l-7.6,40.8h-3.2l98.2,98.2c60.8-4.8,108.7-55.7,108.7-117.8c0-3.9-0.2-7.8-0.6-11.7l-25.4-25.4
		H309.7v3.7h-16.9l50.3,50.3l-0.7,0.7L303.5,126.8z"/>
</g>
<g>
	<path class="st2" d="M470.7,108.9l-86.6-29c-0.8-0.3-1.6-0.3-2.4,0l-86.6,29c-3.5,1.2-3.5,6.1,0,7.3l38.5,12.9
		c2.5,0.8,3.5,3.9,1.8,6c0,0-0.1,0.1-0.1,0.1c-1.6,2.1-0.7,5.2,1.8,6l0,0c5.2-4.1,11.5-6.4,18.2-6.4c7.8,0,15.1,3,20.7,8.6
		c3.4,3.4,5.8,7.4,7.2,11.9c1.4-4.4,3.8-8.5,7.2-11.9c5.5-5.5,12.9-8.6,20.7-8.6c6.6,0,12.9,2.2,18.1,6.3l0.4-0.1
		c2.5-0.8,3.5-4,1.8-6c0,0,0-0.1-0.1-0.1c-1.7-2.1-0.7-5.2,1.8-6l37.7-12.6C474.2,115.1,474.2,110.1,470.7,108.9z"/>
	<path class="st2" d="M305.6,130.7c-0.3-3-2.8-5.3-5.8-5.3h0c-3,0-5.5,2.3-5.8,5.3l-2.8,32.5c-0.3,3.4,2.4,6.3,5.8,6.3h5.7
		c3.4,0,6.1-2.9,5.8-6.3L305.6,130.7z"/>
	<path class="st2" d="M431.7,184.8c-5.5,5.5-12.9,8.6-20.7,8.6s-15.1-3-20.7-8.6c-3.4-3.4-5.8-7.4-7.2-11.9
		c-1.4,4.4-3.8,8.5-7.2,11.9c-5.5,5.5-12.9,8.6-20.7,8.6c-7.8,0-15.1-3-20.7-8.6c-4.2-4.2-6.9-9.3-8-15c0,0.5,0,1-0.1,1.5
		c-0.8,32.6,26.2,59.3,58.8,58.2c30.4-1,54.8-26.1,54.8-56.8c0-1.5-0.1-3.1-0.2-4.6C439.1,174.4,436.3,180.2,431.7,184.8z
		 M410.4,207.5c-0.2,0.8-0.7,1.3-1.4,1.8c-3.2,2.4-6.8,4.2-10.5,5.6c-6.4,2.3-13.4,3.1-20.1,2.3c-3.5-0.4-6.9-1.2-10.2-2.4
		c-0.7-0.3-1.4-0.5-2-0.8c0,0-0.1-0.1-0.2-0.1c-0.3-0.1-0.6-0.2-0.9-0.4c-0.8-0.4-1.6-0.7-2.4-1.1c-1.7-0.9-3.4-1.9-5-3
		c-1.4-1-1.9-2.6-1.1-4.1c0.7-1.4,2.8-2,4.1-1.1c1.7,1.2,3.5,2.3,5.4,3.2c0.4,0.2,0.9,0.4,1.3,0.6c0.1,0,0.1,0.1,0.2,0.1
		c0,0,0.1,0,0.2,0.1c0.3,0.1,0.7,0.3,0.9,0.4c0.1,0,0.4,0.2,0.5,0.3c0,0-0.1,0-0.2-0.1c0.2,0.1,0.4,0.1,0.6,0.2
		c0.4,0.2,0.9,0.3,1.3,0.5c1.5,0.5,3,0.9,4.6,1.3c0.8,0.2,1.7,0.3,2.5,0.5c0.1,0,0.2,0,0.3,0c0.2,0,0.1,0,0,0c-0.1,0-0.2,0-0.3,0
		c0.1,0,0.3,0,0.4,0.1c0.4,0.1,0.9,0.1,1.3,0.1c1.6,0.1,3.1,0.2,4.7,0.1c0.9,0,1.7-0.1,2.6-0.1c0.4,0,0.7-0.1,1.1-0.1
		c0.2,0,0.4,0,0.5-0.1c0.1,0,0.1,0,0.2,0c3.2-0.5,6.3-1.3,9.2-2.5c0,0,0.1,0,0.1,0c0.2-0.1,0.4-0.2,0.5-0.2c0.3-0.1,0.6-0.3,1-0.5
		c0.7-0.3,1.4-0.7,2.1-1.1c1.4-0.8,2.8-1.7,4.2-2.7c1.4-1,3.3-0.2,4.1,1.1C410.5,205.8,410.6,206.8,410.4,207.5z"/>
	<path class="st2" d="M407.5,171.8C407.5,171.8,407.6,171.8,407.5,171.8C407.6,171.8,407.5,171.8,407.5,171.8z"/>
	<path class="st2" d="M429.5,164.1c0-0.1,0-0.3,0-0.4c0,0,0-0.1,0-0.1c0-0.1,0-0.2,0-0.3c0-0.1,0-0.1,0-0.2c0-0.1,0-0.2,0-0.3
		c0-0.1,0-0.1,0-0.2c0-0.1,0-0.2,0-0.3c0-0.1,0-0.1,0-0.2c0-0.1,0-0.2,0-0.3c0-0.1,0-0.1,0-0.2c0-0.1,0-0.2,0-0.3c0,0,0-0.1,0-0.1
		c0-0.1,0-0.3-0.1-0.4c0-0.1,0-0.1,0-0.2c0-0.1,0-0.2,0-0.2c0-0.1,0-0.1,0-0.2c0-0.1,0-0.1,0-0.2c0-0.1,0-0.1,0-0.2
		c0-0.1,0-0.1,0-0.2c0-0.1,0-0.1-0.1-0.2c0-0.1,0-0.1-0.1-0.2c0-0.1,0-0.2-0.1-0.2c0-0.1,0-0.1,0-0.2c-0.1-0.3-0.2-0.6-0.3-0.9
		c0,0,0-0.1,0-0.1c0-0.1-0.1-0.2-0.1-0.3c0,0,0-0.1,0-0.1c0-0.1-0.1-0.2-0.1-0.3c0,0,0-0.1,0-0.1c0-0.1-0.1-0.2-0.1-0.3
		c0,0,0-0.1,0-0.1c0-0.1-0.1-0.2-0.1-0.3c0,0,0,0,0,0c-0.2-0.5-0.4-0.9-0.7-1.3c0,0,0,0,0,0c-0.1-0.1-0.1-0.2-0.2-0.3c0,0,0,0,0,0
		c-0.1-0.1-0.1-0.2-0.2-0.3c0,0,0,0,0,0c-3.3-5.2-9.1-8.7-15.7-8.7c-10.2,0-18.4,8.3-18.4,18.4c0,10.2,8.3,18.4,18.4,18.4
		S429.5,174.3,429.5,164.1z M410.4,170.6c-0.1,0-0.1,0-0.2,0c-0.4,0.1-0.7,0.2-1.1,0.3c0,0,0,0-0.1,0c-0.1,0.1-0.3,0.2-0.5,0.2
		c-0.1,0-0.5,0.3-0.8,0.4c0,0-0.1,0.1-0.2,0.1c-0.2,0.1-0.3,0.3-0.4,0.4c-0.1,0.1-0.8,0.7-0.7,0.8c0.3-0.4,0.3-0.4,0.1-0.1
		c0,0.1-0.1,0.1-0.1,0.2c-0.1,0.2-0.2,0.3-0.3,0.5c-0.2,0.3-0.4,0.7-0.5,1.1c-0.7,1.6-2.8,1.8-4.1,1.1c-0.7-0.3-1.2-1.1-1.4-1.8
		c-0.2-0.9,0-1.6,0.3-2.3c1.8-4.1,6.1-6.8,10.5-7c4.7-0.2,9.3,2.7,11.2,7c0.7,1.6,0.4,3.2-1.1,4.1c-0.6,0.4-1.6,0.5-2.3,0.3
		c-0.6-0.2-1.5-0.7-1.8-1.4c-0.2-0.4-0.4-0.8-0.6-1.2c-0.1-0.2-0.2-0.4-0.4-0.5c0,0,0,0,0,0c0,0,0,0,0,0c-0.3-0.3-0.6-0.6-0.9-0.9
		c0,0,0,0-0.1-0.1c0,0,0,0,0,0c-0.1-0.1-0.3-0.2-0.4-0.3c-0.2-0.1-0.8-0.6-1-0.6c0.4,0.2,0.4,0.2,0.1,0.1c-0.1,0-0.1,0-0.2-0.1
		c-0.2-0.1-0.4-0.1-0.6-0.2c-0.2-0.1-0.4-0.1-0.6-0.1c0,0,0,0-0.1,0c-0.4,0-0.8,0-1.1,0C410.7,170.6,410.5,170.6,410.4,170.6z"/>
	<path class="st2" d="M355.3,145.7c-5.9,0-11.1,2.7-14.5,7l0,0c-0.1,0.1-0.1,0.1-0.2,0.2c0,0-0.1,0.1-0.1,0.1
		c-0.1,0.1-0.1,0.1-0.2,0.2c0,0-0.1,0.1-0.1,0.1c-0.1,0.1-0.1,0.1-0.1,0.2c0,0-0.1,0.1-0.1,0.1c0,0.1-0.1,0.1-0.1,0.2
		c0,0,0,0.1-0.1,0.1c-0.2,0.3-0.3,0.5-0.5,0.8c0,0,0,0.1-0.1,0.1c0,0.1-0.1,0.1-0.1,0.2c0,0-0.1,0.1-0.1,0.1c0,0.1-0.1,0.1-0.1,0.2
		c0,0.1-0.1,0.1-0.1,0.2c0,0.1-0.1,0.1-0.1,0.2c0,0.1-0.1,0.1-0.1,0.2c0,0.1-0.1,0.1-0.1,0.2c0,0.1-0.1,0.1-0.1,0.2
		c-0.1,0.1-0.1,0.2-0.2,0.4c0,0.1-0.1,0.1-0.1,0.2c0,0.1-0.1,0.1-0.1,0.2c0,0.1-0.1,0.1-0.1,0.2c0,0.1-0.1,0.1-0.1,0.2
		c0,0.1,0,0.1-0.1,0.2c0,0.1,0,0.1-0.1,0.2c0,0.1,0,0.1-0.1,0.2c0,0.1,0,0.1-0.1,0.2c0,0.1,0,0.1-0.1,0.2c0,0.1,0,0.1-0.1,0.2
		c0,0.1-0.1,0.2-0.1,0.3c0,0.1,0,0.1-0.1,0.2c0,0.1-0.1,0.2-0.1,0.3c0,0.1,0,0.1,0,0.2c0,0.1,0,0.2-0.1,0.2c0,0.1,0,0.1,0,0.2
		c0,0.1,0,0.2-0.1,0.2c0,0.1,0,0.1,0,0.2c0,0.1,0,0.2,0,0.3c0,0.1,0,0.1,0,0.2c0,0.1,0,0.2-0.1,0.3c0,0,0,0.1,0,0.1
		c0,0.1,0,0.3-0.1,0.4c0,0,0,0.1,0,0.1c0,0.1,0,0.2,0,0.3c0,0.1,0,0.1,0,0.2c0,0.1,0,0.2,0,0.3c0,0.1,0,0.1,0,0.2c0,0.1,0,0.2,0,0.3
		c0,0.1,0,0.1,0,0.2c0,0.1,0,0.2,0,0.3c0,0,0,0.1,0,0.1c0,0.1,0,0.3,0,0.4c0,10.2,8.3,18.4,18.4,18.4c10.2,0,18.4-8.3,18.4-18.4
		c0-0.1,0-0.3,0-0.4v0C373.5,153.7,365.3,145.7,355.3,145.7z M366.1,173.8c-0.2,0.8-0.7,1.4-1.4,1.8c-0.6,0.4-1.6,0.5-2.3,0.3
		c-0.6-0.2-1.5-0.7-1.8-1.4c-0.2-0.4-0.4-0.8-0.6-1.2c-0.1-0.2-0.2-0.3-0.3-0.5c0,0,0,0,0,0c-0.3-0.2-0.5-0.6-0.7-0.8
		c-0.1-0.1-0.3-0.2-0.4-0.4c0,0,0,0,0,0c-0.3-0.2-0.7-0.4-1.1-0.6c-0.1,0-0.5-0.2-0.4-0.2c-0.1,0-0.2-0.1-0.2-0.1
		c-0.4-0.1-0.7-0.2-1.1-0.3c-0.2,0-0.4,0-0.6,0c-0.2,0-0.4,0-0.6,0c0,0-0.1,0-0.1,0c-0.4,0.1-0.8,0.2-1.1,0.3
		c-0.2,0.1-0.4,0.1-0.6,0.2c0,0,0,0,0,0c-0.3,0.2-0.7,0.4-1,0.6c-0.1,0.1-0.3,0.2-0.4,0.3c0,0,0,0,0,0c-0.3,0.3-0.6,0.5-0.8,0.8
		c-0.1,0.1-0.1,0.1-0.2,0.2c-0.1,0.1-0.2,0.2-0.2,0.4c-0.1,0.2-0.2,0.4-0.3,0.6c-0.1,0.2-0.4,0.8,0,0c-0.3,0.8-0.7,1.4-1.4,1.8
		c-0.7,0.4-1.6,0.5-2.3,0.3c-0.7-0.2-1.4-0.8-1.8-1.4c-0.3-0.6-0.6-1.7-0.3-2.3c1-2.4,2.5-4.3,4.7-5.8c1.9-1.2,4.2-2,6.5-2
		c4.5,0,9,2.9,10.8,7.1C366.2,172.3,366.3,173,366.1,173.8z"/>
</g>
<g>
	<path class="st3" d="M40.5,293.5l10.9,26.4l11.2-26.4h18.2l-21.1,40.9v20.2H43.1v-20.4l-20.7-40.7H40.5z"/>
	<path class="st3" d="M129,340v14.6H85.4v-61.1h42.8v14.6h-26v8.6h22.2v13.6h-22.2v9.6H129z"/>
	<path class="st3" d="M152.7,293.5H168l21.2,61.1h-17l-3.7-12h-16.3l-3.6,12h-17.1L152.7,293.5z M165.7,331.5l-5.4-18.9l-5.7,18.9
		H165.7z"/>
	<path class="st3" d="M194.2,354.6v-61.1h28.1c3,0,5.7,0.6,8.3,1.9c2.5,1.2,4.7,2.8,6.5,4.8c1.8,2,3.2,4.2,4.3,6.8
		c1,2.6,1.5,5.1,1.5,7.7c0,3.6-0.8,6.9-2.3,9.9c-1.5,3.1-3.7,5.6-6.5,7.5l12.9,22.5H228l-10.8-18.8H211v18.8H194.2z M211,321.2h10.6
		c1,0,2-0.6,2.9-1.7c0.9-1.1,1.3-2.8,1.3-4.8c0-2.1-0.5-3.7-1.5-4.9c-1-1.1-2.1-1.7-3.1-1.7H211V321.2z"/>
	<path class="st3" d="M304.3,338.9c0,2.8-0.6,5.1-1.7,7.1c-1.1,2-2.7,3.6-4.7,4.9c-2,1.3-4.3,2.2-7,2.8c-2.7,0.6-5.5,0.9-8.5,0.9
		h-30v-61.1h35.5c2.1,0,4,0.5,5.8,1.4c1.7,0.9,3.2,2.1,4.4,3.6c1.2,1.5,2.1,3.1,2.8,5c0.7,1.9,1,3.8,1,5.7c0,2.9-0.7,5.6-2.2,8.2
		c-1.5,2.6-3.7,4.6-6.6,5.9c3.5,1,6.3,2.8,8.3,5.4C303.3,331.2,304.3,334.6,304.3,338.9z M269.1,307.8v9.4h11.4
		c1.1,0,2.2-0.3,3.1-0.9c0.9-0.6,1.4-1.9,1.4-3.8c0-1.7-0.4-2.9-1.2-3.6c-0.8-0.7-1.8-1.1-2.8-1.1H269.1z M287.2,335.5
		c0-1.5-0.4-2.7-1.2-3.7c-0.8-1-1.8-1.5-3.1-1.5h-13.9v10.2h13.3c1.4,0,2.5-0.4,3.5-1.3C286.8,338.3,287.2,337.1,287.2,335.5z"/>
	<path class="st3" d="M339.2,355.1c-4.6,0-8.9-0.9-12.6-2.7c-3.8-1.8-7-4.1-9.7-7c-2.7-2.9-4.8-6.2-6.3-9.9
		c-1.5-3.7-2.2-7.6-2.2-11.5c0-4,0.8-7.9,2.3-11.6c1.5-3.7,3.7-7,6.5-9.9c2.8-2.8,6.1-5.1,9.9-6.8c3.8-1.7,8-2.5,12.5-2.5
		c4.6,0,8.9,0.9,12.6,2.7c3.8,1.8,7,4.1,9.7,7.1c2.7,2.9,4.8,6.3,6.2,10c1.5,3.7,2.2,7.5,2.2,11.4c0,4-0.8,7.9-2.3,11.6
		c-1.5,3.7-3.7,7-6.5,9.8c-2.8,2.8-6,5.1-9.9,6.8C347.9,354.3,343.8,355.1,339.2,355.1z M325.4,324.1c0,2.1,0.3,4.1,0.9,6
		c0.6,1.9,1.4,3.6,2.6,5.1c1.1,1.5,2.6,2.7,4.3,3.6c1.7,0.9,3.8,1.4,6.2,1.4c2.4,0,4.5-0.5,6.3-1.4c1.8-0.9,3.2-2.2,4.3-3.7
		c1.1-1.5,1.9-3.3,2.5-5.2c0.5-2,0.8-3.9,0.8-5.9c0-2.1-0.3-4.1-0.9-6c-0.6-1.9-1.4-3.6-2.6-5.1c-1.2-1.5-2.6-2.6-4.4-3.5
		c-1.8-0.9-3.8-1.3-6.2-1.3c-2.4,0-4.5,0.5-6.2,1.4c-1.8,0.9-3.2,2.1-4.3,3.7s-2,3.2-2.5,5.2C325.6,320.2,325.4,322.1,325.4,324.1z"
		/>
	<path class="st3" d="M405.1,355.1c-4.6,0-8.9-0.9-12.6-2.7c-3.8-1.8-7-4.1-9.7-7c-2.7-2.9-4.8-6.2-6.3-9.9
		c-1.5-3.7-2.2-7.6-2.2-11.5c0-4,0.8-7.9,2.3-11.6c1.5-3.7,3.7-7,6.5-9.9c2.8-2.8,6.1-5.1,9.9-6.8c3.8-1.7,8-2.5,12.5-2.5
		c4.6,0,8.9,0.9,12.6,2.7c3.8,1.8,7,4.1,9.7,7.1c2.7,2.9,4.8,6.3,6.2,10c1.5,3.7,2.2,7.5,2.2,11.4c0,4-0.8,7.9-2.3,11.6
		c-1.5,3.7-3.7,7-6.5,9.8c-2.8,2.8-6,5.1-9.9,6.8C413.8,354.3,409.6,355.1,405.1,355.1z M391.2,324.1c0,2.1,0.3,4.1,0.9,6
		c0.6,1.9,1.4,3.6,2.6,5.1c1.1,1.5,2.6,2.7,4.3,3.6c1.7,0.9,3.8,1.4,6.2,1.4s4.5-0.5,6.3-1.4c1.8-0.9,3.2-2.2,4.3-3.7
		c1.1-1.5,1.9-3.3,2.5-5.2c0.5-2,0.8-3.9,0.8-5.9c0-2.1-0.3-4.1-0.9-6c-0.6-1.9-1.4-3.6-2.6-5.1c-1.2-1.5-2.6-2.6-4.4-3.5
		c-1.8-0.9-3.8-1.3-6.2-1.3c-2.4,0-4.5,0.5-6.2,1.4c-1.8,0.9-3.2,2.1-4.3,3.7c-1.1,1.5-2,3.2-2.5,5.2
		C391.5,320.2,391.2,322.1,391.2,324.1z"/>
	<path class="st3" d="M443.3,354.6v-61.1h16.8v23.2l18.6-23.2h18.9l-22.2,27.4l23.8,33.7h-19.3l-15.1-22.5l-4.6,4.8v17.6H443.3z"/>
	<path class="st0" d="M558.5,317.4v13.4h-21.9v23.8h-14.9v-23.8h-21.9v-13.4h21.9v-23.8h14.9v23.8H558.5z"/>
	<path class="st3" d="M593.3,324.6v30h-16.8v-61.1h13.1l24.5,31.1v-31.1h16.8v61.1h-13.3L593.3,324.6z"/>
	<path class="st3" d="M684.9,340v14.6h-43.6v-61.1h42.8v14.6h-26v8.6h22.2v13.6h-22.2v9.6H684.9z"/>
	<path class="st3" d="M740.4,308.1h-17.6v46.5H706v-46.5h-17.6v-14.6h52V308.1z"/>
	<circle class="st3" cx="558" cy="345.5" r="8.9"/>
</g>
</svg>
