<?xml version="1.0" encoding="utf-8"?>
<!-- Generator: Adobe Illustrator 21.0.2, SVG Export Plug-In . SVG Version: 6.00 Build 0)  -->
<svg version="1.1" id="Layer_1" xmlns="http://www.w3.org/2000/svg" xmlns:xlink="http://www.w3.org/1999/xlink" x="0px" y="0px"
	 viewBox="0 0 100 100" style="enable-background:new 0 0 100 100;" xml:space="preserve">
<style type="text/css">
	.st0{fill:#39A8E0;}
</style>
<g>
	<path class="st0" d="M91.5,37.7l-1.3-20.1c-0.3-4.3-3.7-7.7-8-7.9L62.3,8.5c-2.4-0.1-4.8,0.8-6.5,2.5L11,55.8
		c-3.3,3.3-3.3,8.7,0,12L32.2,89c3.3,3.3,8.7,3.3,12,0L89,44.2C90.7,42.5,91.6,40.1,91.5,37.7z M33.5,72.7l-5.9-2.3l4.1,4.1
		l-1.3,1.3l-6.3-6.3l1.3-1.3l6,2.3l-4.1-4.1l1.3-1.3l6.3,6.3L33.5,72.7z M35.9,70.4l-6.3-6.3l1.3-1.3l6.3,6.3L35.9,70.4z M38,67
		c-0.8-0.1-1.7-0.6-2.6-1.4l-1.1-1.1c-0.9-0.9-1.3-1.7-1.4-2.6c-0.1-0.9,0.2-1.6,0.9-2.3c0.7-0.7,1.4-1,2.1-1c0.7,0,1.5,0.4,2.2,1
		L37,61c-0.5-0.4-0.8-0.7-1.1-0.7c-0.3,0-0.6,0.1-0.9,0.4c-0.3,0.3-0.5,0.7-0.4,1.1c0.1,0.4,0.4,0.8,0.9,1.4l1.2,1.2
		c0.6,0.6,1.1,1,1.5,1.1c0.4,0.1,0.7,0,1.1-0.4c0.3-0.3,0.5-0.6,0.4-0.9c0-0.3-0.3-0.7-0.7-1.1l1.3-1.3c0.7,0.7,1,1.5,1,2.2
		c0,0.7-0.3,1.4-1,2.1C39.6,66.8,38.9,67.1,38,67z M40.7,57.2L39.8,54l1.5-1.5l1,4.5l5.3,1.7l-1.5,1.5l-3.6-1.3l0.1,1.1l1.8,1.8
		l-1.3,1.3l-6.3-6.3l1.3-1.3l2.7,2.7L40.7,57.2z M44.9,48.8l1.3-1.3l6.3,6.3l-1.3,1.3l-5.9-2.3l4.1,4.1l-1.3,1.3L41.8,52l1.3-1.3
		l6,2.3L44.9,48.8z M56.5,37.2l1.6-1.6l6.3,6.3l-1.3,1.3l-1.7-1.7L59,38.7l3,5.5l-0.9,0.9l-5.5-3l2.7,2.5l1.7,1.7l-1.3,1.3l-6.3-6.3
		l1.6-1.6l5.7,3.3L56.5,37.2z M63,35.8l2-2l1,1l-2,2l1.7,1.7l2.3-2.3l1,1l-3.6,3.6l-6.3-6.3l3.6-3.6l1.1,1.1l-2.3,2.3L63,35.8z
		 M58.2,48.1l-1.3,1.3l-1.6-0.9l-1.7,1.7l0.9,1.6l-1.3,1.3l-4.3-8.2l1.2-1.2L58.2,48.1z M70.1,29.9c-2.7-2.7-2.7-7.2,0-9.9
		c2.7-2.7,7.2-2.7,9.9,0s2.7,7.2,0,9.9S72.9,32.6,70.1,29.9z"/>
	<polygon class="st0" points="53.9,47.7 51.1,46.1 52.7,48.9 	"/>
</g>
</svg>
