<?xml version="1.0" encoding="utf-8"?>
<!-- Generator: Adobe Illustrator 21.0.2, SVG Export Plug-In . SVG Version: 6.00 Build 0)  -->
<svg version="1.1" id="Layer_1" xmlns="http://www.w3.org/2000/svg" xmlns:xlink="http://www.w3.org/1999/xlink" x="0px" y="0px"
	 viewBox="0 0 78.2 100" style="enable-background:new 0 0 78.2 100;" xml:space="preserve">
<style type="text/css">
	.st0{fill:#35A8E0;}
</style>
<g>
	<polygon class="st0" points="9.7,23.3 12.1,23.3 12.1,18.6 39,27 39.1,27.1 74.9,15.9 39.3,4.8 39.1,4.7 3.3,15.9 9.7,17.9 	"/>
	<polygon class="st0" points="12.8,29.3 12.1,25.8 9.7,25.8 9,29.3 	"/>
	<rect x="9.7" y="23.4" class="st0" width="2.4" height="1.8"/>
	<path class="st0" d="M52.5,61.1c4.2-3.9,6.6-9.3,6.6-15.1c0-3.3-0.8-6.4-2.1-9.1h0.1V23.3l-18,5.6L39,28.8l-18.3-5.7v12.7
		c-1.7,3-2.7,6.5-2.7,10.2c0,5.8,2.4,11.2,6.6,15.1c-9.6,6.2-15.9,18.4-16.2,32l-0.1,2.2h60.6l-0.1-2.2
		C68.4,79.5,62.1,67.3,52.5,61.1z M22.2,46c0-3.4,1-6.5,2.8-9.1h27c1.8,2.6,2.8,5.7,2.8,9.1c0,5.5-2.7,10.6-7.3,13.6l-3.1,2l3.3,1.6
		c0.1,0.1,0.2,0.1,0.3,0.2L38.5,73l-9.6-9.6c0.1-0.1,0.2-0.1,0.3-0.2l3.3-1.6l-3.1-2C24.9,56.6,22.2,51.5,22.2,46z M12.6,91
		c0.6-8.1,3.5-15.4,8-20.8l17.9,17.9l17.9-17.9c4.5,5.4,7.4,12.8,8,20.8H12.6z"/>
</g>
</svg>
