<?xml version="1.0" encoding="utf-8"?>
<!-- Generator: Adobe Illustrator 21.0.2, SVG Export Plug-In . SVG Version: 6.00 Build 0)  -->
<svg version="1.1" id="Layer_1" xmlns="http://www.w3.org/2000/svg" xmlns:xlink="http://www.w3.org/1999/xlink" x="0px" y="0px"
	 viewBox="0 0 68.2 100" style="enable-background:new 0 0 68.2 100;" xml:space="preserve">
<style type="text/css">
	.st0{fill:#39A8E0;}
</style>
<g>
	<g>
		<polygon class="st0" points="33.9,48 54.6,27.3 13.3,27.3 		"/>
		<rect x="28.1" y="4.1" class="st0" width="11.7" height="21.6"/>
		<rect x="13.4" y="4.1" class="st0" width="10.1" height="21.6"/>
		<rect x="44.5" y="4.1" class="st0" width="10.4" height="21.6"/>
	</g>
	<g>
		<path class="st0" d="M56,68.8l5.2-3.6l-6-2.1l4.1-4.8L53,57.9l2.7-5.7l-6.2,1.2l1.2-6.2L45,49.9l-0.5-6.3l-4.8,4.1l-2.1-6L34.1,47
			l-3.6-5.2l-2.1,6l-4.8-4.1l-0.5,6.3l-5.7-2.7l1.2,6.2l-6.2-1.2l2.7,5.7l-6.3,0.5l4.1,4.8l-6,2.1l5.2,3.6L7,72.4l6,2.1l-4.1,4.8
			l6.3,0.5l-2.7,5.7l6.2-1.2l-1.2,6.2l5.7-2.7l0.5,6.3l4.8-4.1l2.1,6l3.6-5.2l3.6,5.2l2.1-6l4.8,4.1l0.5-6.3l5.7,2.7l-1.2-6.2
			l6.2,1.2L53,79.8l6.3-0.5l-4.1-4.8l6-2.1L56,68.8z M34.1,89.1c-11.2,0-20.2-9-20.2-20.2c0-11.2,9-20.2,20.2-20.2s20.2,9,20.2,20.2
			C54.3,80,45.3,89.1,34.1,89.1z"/>
		<path class="st0" d="M34.1,50.9c-9.9,0-17.9,8-17.9,17.9c0,9.9,8,17.9,17.9,17.9c9.9,0,17.9-8,17.9-17.9
			C52,58.9,44,50.9,34.1,50.9z M34.1,83.5c-8.1,0-14.7-6.6-14.7-14.7c0-8.1,6.6-14.7,14.7-14.7c8.1,0,14.7,6.6,14.7,14.7
			C48.8,76.9,42.2,83.5,34.1,83.5z"/>
		<path class="st0" d="M34.1,56.4c-6.9,0-12.5,5.6-12.5,12.5c0,6.9,5.6,12.5,12.5,12.5c6.9,0,12.5-5.6,12.5-12.5
			C46.6,62,41,56.4,34.1,56.4z M32,77.1l-2.3-1.5l-2.3,1.5l0.7-2.6l-2.1-1.7l2.7-0.2l1-2.5l1,2.5l2.7,0.2l-2.1,1.7L32,77.1z
			 M31.3,67.7l0.7,2.6l-2.3-1.5l-2.3,1.5l0.7-2.6L26.1,66l2.7-0.2l1-2.5l1,2.5l2.7,0.2L31.3,67.7z M32,64.7l0.7-2.6l-2.1-1.7
			l2.7-0.2l1-2.5l1,2.5l2.7,0.2l-2.1,1.7l0.7,2.6l-2.3-1.5L32,64.7z M41.2,77.1l-2.3-1.5l-2.3,1.5l0.7-2.6l-2.1-1.7l2.7-0.2l1-2.5
			l1,2.5l2.7,0.2l-2.1,1.7L41.2,77.1z M40.5,67.7l0.7,2.6l-2.3-1.5l-2.3,1.5l0.7-2.6L35.2,66l2.7-0.2l1-2.5l1,2.5l2.7,0.2L40.5,67.7
			z"/>
	</g>
</g>
</svg>
