<?xml version="1.0" encoding="utf-8"?>
<!-- Generator: Adobe Illustrator 16.0.0, SVG Export Plug-In . SVG Version: 6.00 Build 0)  -->
<!DOCTYPE svg PUBLIC "-//W3C//DTD SVG 1.1//EN" "http://www.w3.org/Graphics/SVG/1.1/DTD/svg11.dtd">
<svg version="1.1" id="Layer_1" xmlns="http://www.w3.org/2000/svg" xmlns:xlink="http://www.w3.org/1999/xlink" x="0px" y="0px"
	 width="500px" height="500px" viewBox="0 0 500 500" enable-background="new 0 0 500 500" xml:space="preserve">
<polygon fill="#FFFFFF" points="50.91,168.061 66.875,168.061 71.639,191.642 45.671,191.642 "/>
<rect x="50.64" y="151.499" fill="#FFFFFF" width="16.03" height="12.061"/>
<path fill="#FFFFFF" d="M250.196,172.168L67.502,115.165v31.742h-17.69v-37.261L5.252,95.739l244.945-76.425l244.952,76.425
	L250.196,172.168z M58.697,103.192l191.499,59.753l215.388-67.207L250.197,28.537l-1.062,0.332L34.813,95.739l23.806,7.43v34.933
	h0.079V103.192z"/>
<path fill="#FFFFFF" d="M247.555,480.716l-66.52-66.517c-12.74,4.521-26.006,6.813-39.481,6.813
	c-65.437,0-118.674-53.234-118.674-118.669c0-26.1,8.349-50.876,24.142-71.652c14.509-19.084,34.78-33.552,57.396-41.041v-52.113
	l147.438,46l138.827-43.315v49.428c22.616,7.489,42.887,21.957,57.396,41.041c15.795,20.776,24.144,45.552,24.144,71.652
	c0,65.435-53.238,118.669-118.676,118.669c-13.473,0-26.736-2.291-39.476-6.813L247.555,480.716z M183.555,402.487l64,63.996
	l63.996-63.996l3.054,1.179c12.52,4.832,25.621,7.282,38.942,7.282c59.889,0,108.612-48.721,108.612-108.605
	c0-47.794-32.048-90.63-77.933-104.169l-3.607-1.065v-43.204l-128.764,40.176L114.481,151.22v45.889l-3.608,1.065
	c-45.884,13.539-77.93,56.375-77.93,104.169c0,59.885,48.723,108.605,108.61,108.605c13.324,0,26.428-2.45,38.947-7.282
	L183.555,402.487z"/>
<path fill="#FFFFFF" d="M247.549,343.238c-9.436,24.368-27.052,44.666-49.442,57.583l49.448,23.531l49.441-23.531
	C274.606,387.904,256.985,367.606,247.549,343.238z"/>
<path fill="#FFFFFF" d="M353.547,205.204c-53.559,0-97.14,43.575-97.14,97.139c0,53.564,43.581,97.137,97.14,97.137
	c53.565,0,97.142-43.572,97.142-97.137C450.688,248.779,407.112,205.204,353.547,205.204z M354.738,354.346
	c-28.991,0-52.494-23.505-52.494-52.496c0-28.992,23.503-52.497,52.494-52.497c28.994,0,52.497,23.505,52.497,52.497
	C407.235,330.841,383.732,354.346,354.738,354.346z"/>
<path fill="#FFFFFF" d="M141.554,205.204c-53.564,0-97.139,43.575-97.139,97.139c0,53.564,43.575,97.137,97.139,97.137
	c53.561,0,97.139-43.572,97.139-97.137C238.693,248.779,195.114,205.204,141.554,205.204z M142.813,354.346
	c-28.992,0-52.496-23.505-52.496-52.496c0-28.992,23.503-52.497,52.496-52.497c28.993,0,52.496,23.505,52.496,52.497
	C195.309,330.841,171.806,354.346,142.813,354.346z"/>
<polygon fill="#FFFFFF" points="247.549,439.678 201.951,405.436 247.555,450.267 293.152,405.436 "/>
<circle fill="#FFFFFF" cx="356.542" cy="306.618" r="14.487"/>
<circle fill="#FFFFFF" cx="381.376" cy="291.098" r="8.74"/>
<circle fill="#FFFFFF" cx="143.08" cy="306.618" r="14.486"/>
<circle fill="#FFFFFF" cx="167.914" cy="291.098" r="8.74"/>
</svg>
