<?xml version="1.0" encoding="utf-8"?>
<!-- Generator: Adobe Illustrator 21.0.2, SVG Export Plug-In . SVG Version: 6.00 Build 0)  -->
<svg version="1.1" id="Layer_1" xmlns="http://www.w3.org/2000/svg" xmlns:xlink="http://www.w3.org/1999/xlink" x="0px" y="0px"
	 viewBox="0 0 170 45" style="enable-background:new 0 0 170 45;" xml:space="preserve">
<style type="text/css">
	.st0{fill:#39A8E0;}
	.st1{fill:#1E1E1C;}
</style>
<g>
	<path class="st0" d="M45.2,13.1L26.6,6.9c-0.2-0.1-0.4-0.1-0.5,0L7.5,13.1c-0.7,0.3-0.7,1.3,0,1.6l8.2,2.8c0.5,0.2,0.7,0.8,0.4,1.3
		c0,0,0,0,0,0c-0.4,0.4-0.2,1.1,0.4,1.3l0,0c1.1-0.9,2.5-1.4,3.9-1.4c1.7,0,3.2,0.7,4.4,1.8c0.7,0.7,1.2,1.6,1.5,2.5
		c0.3-0.9,0.8-1.8,1.5-2.5c1.2-1.2,2.8-1.8,4.4-1.8c1.4,0,2.8,0.5,3.9,1.3l0.1,0c0.5-0.2,0.7-0.8,0.4-1.3c0,0,0,0,0,0
		c-0.4-0.4-0.2-1.1,0.4-1.3l8.1-2.7C45.9,14.4,45.9,13.4,45.2,13.1z"/>
	<path class="st0" d="M9.8,17.8c-0.1-0.6-0.6-1.1-1.2-1.1h0c-0.6,0-1.2,0.5-1.2,1.1l-0.6,7c-0.1,0.7,0.5,1.4,1.2,1.4h1.2
		c0.7,0,1.3-0.6,1.2-1.4L9.8,17.8z"/>
	<path class="st0" d="M36.8,29.4c-1.2,1.2-2.8,1.8-4.4,1.8c-1.7,0-3.2-0.7-4.4-1.8c-0.7-0.7-1.2-1.6-1.5-2.5
		c-0.3,0.9-0.8,1.8-1.5,2.5c-1.2,1.2-2.8,1.8-4.4,1.8c-1.7,0-3.2-0.7-4.4-1.8c-0.9-0.9-1.5-2-1.7-3.2c0,0.1,0,0.2,0,0.3
		c-0.2,7,5.6,12.7,12.6,12.5c6.5-0.2,11.7-5.6,11.7-12.2c0-0.3,0-0.7,0-1C38.4,27.1,37.8,28.4,36.8,29.4z M32.2,34.2
		c0,0.2-0.2,0.3-0.3,0.4c-0.7,0.5-1.4,0.9-2.2,1.2c-1.4,0.5-2.9,0.7-4.3,0.5c-0.7-0.1-1.5-0.3-2.2-0.5c-0.1-0.1-0.3-0.1-0.4-0.2
		c0,0,0,0,0,0c-0.1,0-0.1,0-0.2-0.1c-0.2-0.1-0.3-0.2-0.5-0.2c-0.4-0.2-0.7-0.4-1.1-0.6c-0.3-0.2-0.4-0.6-0.2-0.9
		c0.2-0.3,0.6-0.4,0.9-0.2c0.4,0.3,0.8,0.5,1.2,0.7c0.1,0,0.2,0.1,0.3,0.1c0,0,0,0,0,0c0,0,0,0,0,0c0.1,0,0.1,0.1,0.2,0.1
		c0,0,0.1,0,0.1,0.1c0,0,0,0,0,0c0,0,0.1,0,0.1,0c0.1,0,0.2,0.1,0.3,0.1c0.3,0.1,0.6,0.2,1,0.3c0.2,0,0.4,0.1,0.5,0.1c0,0,0,0,0.1,0
		c0,0,0,0,0,0c0,0,0,0-0.1,0c0,0,0.1,0,0.1,0c0.1,0,0.2,0,0.3,0c0.3,0,0.7,0,1,0c0.2,0,0.4,0,0.5,0c0.1,0,0.2,0,0.2,0
		c0,0,0.1,0,0.1,0c0,0,0,0,0,0c0.7-0.1,1.3-0.3,2-0.5c0,0,0,0,0,0c0,0,0.1,0,0.1-0.1c0.1,0,0.1-0.1,0.2-0.1c0.2-0.1,0.3-0.2,0.4-0.2
		c0.3-0.2,0.6-0.4,0.9-0.6c0.3-0.2,0.7,0,0.9,0.2C32.3,33.9,32.3,34.1,32.2,34.2z"/>
	<path class="st0" d="M31.6,26.6C31.6,26.6,31.6,26.6,31.6,26.6C31.6,26.6,31.6,26.6,31.6,26.6z"/>
	<path class="st0" d="M36.3,24.9C36.3,24.9,36.3,24.9,36.3,24.9c0-0.1,0-0.1,0-0.1c0,0,0,0,0-0.1c0,0,0,0,0,0c0,0,0,0,0-0.1
		c0,0,0,0,0,0c0,0,0,0,0-0.1c0,0,0,0,0,0c0,0,0,0,0-0.1c0,0,0,0,0,0c0,0,0,0,0-0.1c0,0,0,0,0,0c0,0,0-0.1,0-0.1c0,0,0,0,0,0
		c0,0,0,0,0-0.1c0,0,0,0,0,0c0,0,0,0,0,0c0,0,0,0,0,0c0,0,0,0,0,0c0,0,0,0,0,0c0,0,0,0,0,0c0,0,0,0,0,0c0,0,0,0,0,0
		c0-0.1,0-0.1-0.1-0.2c0,0,0,0,0,0c0,0,0,0,0-0.1c0,0,0,0,0,0c0,0,0,0,0-0.1c0,0,0,0,0,0c0,0,0,0,0-0.1c0,0,0,0,0,0c0,0,0,0,0-0.1
		c0,0,0,0,0,0c0-0.1-0.1-0.2-0.1-0.3c0,0,0,0,0,0c0,0,0,0,0-0.1c0,0,0,0,0,0c0,0,0,0,0-0.1c0,0,0,0,0,0C35,21.7,33.8,21,32.4,21
		c-2.2,0-3.9,1.8-3.9,3.9s1.8,3.9,3.9,3.9S36.3,27.1,36.3,24.9z M32.2,26.3C32.2,26.3,32.2,26.3,32.2,26.3c-0.1,0-0.2,0-0.3,0.1
		c0,0,0,0,0,0c0,0-0.1,0-0.1,0c0,0-0.1,0.1-0.2,0.1c0,0,0,0,0,0c0,0-0.1,0.1-0.1,0.1c0,0-0.2,0.2-0.2,0.2c0.1-0.1,0.1-0.1,0,0
		c0,0,0,0,0,0c0,0,0,0.1-0.1,0.1c0,0.1-0.1,0.2-0.1,0.2c-0.1,0.3-0.6,0.4-0.9,0.2c-0.1-0.1-0.3-0.2-0.3-0.4c-0.1-0.2,0-0.3,0.1-0.5
		c0.4-0.9,1.3-1.5,2.2-1.5c1,0,2,0.6,2.4,1.5c0.1,0.3,0.1,0.7-0.2,0.9c-0.1,0.1-0.3,0.1-0.5,0.1c-0.1,0-0.3-0.2-0.4-0.3
		c0-0.1-0.1-0.2-0.1-0.2c0,0-0.1-0.1-0.1-0.1c0,0,0,0,0,0c0,0,0,0,0,0c-0.1-0.1-0.1-0.1-0.2-0.2c0,0,0,0,0,0c0,0,0,0,0,0
		c0,0-0.1,0-0.1-0.1c0,0-0.2-0.1-0.2-0.1c0.1,0,0.1,0,0,0c0,0,0,0,0,0c0,0-0.1,0-0.1,0c0,0-0.1,0-0.1,0c0,0,0,0,0,0
		c-0.1,0-0.2,0-0.2,0C32.3,26.3,32.3,26.3,32.2,26.3z"/>
	<path class="st0" d="M20.4,21c-1.3,0-2.4,0.6-3.1,1.5l0,0c0,0,0,0,0,0c0,0,0,0,0,0c0,0,0,0,0,0c0,0,0,0,0,0c0,0,0,0,0,0
		c0,0,0,0,0,0c0,0,0,0,0,0c0,0,0,0,0,0c0,0.1-0.1,0.1-0.1,0.2c0,0,0,0,0,0c0,0,0,0,0,0c0,0,0,0,0,0c0,0,0,0,0,0c0,0,0,0,0,0
		c0,0,0,0,0,0c0,0,0,0,0,0c0,0,0,0,0,0c0,0,0,0,0,0c0,0,0,0.1,0,0.1c0,0,0,0,0,0c0,0,0,0,0,0c0,0,0,0,0,0c0,0,0,0,0,0c0,0,0,0,0,0
		c0,0,0,0,0,0c0,0,0,0,0,0c0,0,0,0,0,0c0,0,0,0,0,0c0,0,0,0,0,0c0,0,0,0,0,0.1c0,0,0,0,0,0c0,0,0,0,0,0.1c0,0,0,0,0,0c0,0,0,0,0,0.1
		c0,0,0,0,0,0c0,0,0,0,0,0.1c0,0,0,0,0,0c0,0,0,0,0,0.1c0,0,0,0,0,0c0,0,0,0,0,0.1c0,0,0,0,0,0c0,0,0,0.1,0,0.1c0,0,0,0,0,0
		c0,0,0,0,0,0.1c0,0,0,0,0,0c0,0,0,0,0,0.1c0,0,0,0,0,0c0,0,0,0,0,0.1c0,0,0,0,0,0c0,0,0,0,0,0.1c0,0,0,0,0,0c0,0,0,0.1,0,0.1
		c0,2.2,1.8,3.9,3.9,3.9s3.9-1.8,3.9-3.9c0,0,0-0.1,0-0.1v0C24.3,22.7,22.6,21,20.4,21z M22.8,27c0,0.2-0.2,0.3-0.3,0.4
		c-0.1,0.1-0.3,0.1-0.5,0.1c-0.1,0-0.3-0.2-0.4-0.3c0-0.1-0.1-0.2-0.1-0.3c0,0,0-0.1-0.1-0.1c0,0,0,0,0,0c-0.1,0-0.1-0.1-0.2-0.2
		c0,0-0.1-0.1-0.1-0.1c0,0,0,0,0,0c-0.1,0-0.1-0.1-0.2-0.1c0,0-0.1,0-0.1,0c0,0,0,0,0,0c-0.1,0-0.2,0-0.2-0.1c0,0-0.1,0-0.1,0
		c0,0-0.1,0-0.1,0c0,0,0,0,0,0c-0.1,0-0.2,0-0.2,0.1c0,0-0.1,0-0.1,0c0,0,0,0,0,0c-0.1,0-0.1,0.1-0.2,0.1c0,0-0.1,0-0.1,0.1
		c0,0,0,0,0,0c-0.1,0.1-0.1,0.1-0.2,0.2c0,0,0,0,0,0c0,0,0,0.1-0.1,0.1c0,0-0.1,0.1-0.1,0.1c0,0-0.1,0.2,0,0
		c-0.1,0.2-0.1,0.3-0.3,0.4c-0.1,0.1-0.3,0.1-0.5,0.1c-0.2,0-0.3-0.2-0.4-0.3C18,27,17.9,26.8,18,26.7c0.2-0.5,0.5-0.9,1-1.2
		c0.4-0.3,0.9-0.4,1.4-0.4c1,0,1.9,0.6,2.3,1.5C22.8,26.7,22.8,26.8,22.8,27z"/>
</g>
<g>
	<path class="st1" d="M51.6,20.7l1.7,4.2l1.8-4.2H58l-3.4,6.5v3.2H52v-3.2l-3.3-6.5H51.6z"/>
	<path class="st1" d="M65.7,28.1v2.3h-6.9v-9.7h6.8V23h-4.1v1.4H65v2.2h-3.5v1.5H65.7z"/>
	<path class="st1" d="M69.5,20.7h2.4l3.4,9.7h-2.7L72,28.5h-2.6l-0.6,1.9h-2.7L69.5,20.7z M71.5,26.7l-0.9-3l-0.9,3H71.5z"/>
	<path class="st1" d="M76.1,30.4v-9.7h4.5c0.5,0,0.9,0.1,1.3,0.3c0.4,0.2,0.7,0.5,1,0.8c0.3,0.3,0.5,0.7,0.7,1.1
		c0.2,0.4,0.2,0.8,0.2,1.2c0,0.6-0.1,1.1-0.4,1.6c-0.2,0.5-0.6,0.9-1,1.2l2.1,3.6h-3l-1.7-3h-1v3H76.1z M78.7,25.1h1.7
		c0.2,0,0.3-0.1,0.5-0.3c0.1-0.2,0.2-0.4,0.2-0.8c0-0.3-0.1-0.6-0.2-0.8c-0.2-0.2-0.3-0.3-0.5-0.3h-1.6V25.1z"/>
	<path class="st1" d="M93.6,27.9c0,0.4-0.1,0.8-0.3,1.1c-0.2,0.3-0.4,0.6-0.8,0.8c-0.3,0.2-0.7,0.3-1.1,0.4
		c-0.4,0.1-0.9,0.1-1.3,0.1h-4.8v-9.7H91c0.3,0,0.6,0.1,0.9,0.2c0.3,0.1,0.5,0.3,0.7,0.6c0.2,0.2,0.3,0.5,0.4,0.8
		c0.1,0.3,0.2,0.6,0.2,0.9c0,0.5-0.1,0.9-0.3,1.3c-0.2,0.4-0.6,0.7-1,0.9c0.6,0.2,1,0.4,1.3,0.9C93.4,26.7,93.6,27.2,93.6,27.9z
		 M88,23v1.5h1.8c0.2,0,0.3-0.1,0.5-0.2c0.2-0.1,0.2-0.3,0.2-0.6c0-0.3-0.1-0.5-0.2-0.6C90.2,23,90.1,23,89.9,23H88z M90.9,27.4
		c0-0.2-0.1-0.4-0.2-0.6c-0.1-0.2-0.3-0.2-0.5-0.2H88v1.6h2.1c0.2,0,0.4-0.1,0.6-0.2C90.8,27.8,90.9,27.6,90.9,27.4z"/>
	<path class="st1" d="M99.1,30.5c-0.7,0-1.4-0.1-2-0.4c-0.6-0.3-1.1-0.7-1.5-1.1c-0.4-0.5-0.8-1-1-1.6c-0.2-0.6-0.4-1.2-0.4-1.8
		c0-0.6,0.1-1.3,0.4-1.8c0.2-0.6,0.6-1.1,1-1.6c0.4-0.5,1-0.8,1.6-1.1c0.6-0.3,1.3-0.4,2-0.4c0.7,0,1.4,0.1,2,0.4
		c0.6,0.3,1.1,0.7,1.5,1.1c0.4,0.5,0.8,1,1,1.6c0.2,0.6,0.3,1.2,0.3,1.8c0,0.6-0.1,1.3-0.4,1.8c-0.2,0.6-0.6,1.1-1,1.6
		c-0.4,0.5-1,0.8-1.6,1.1C100.5,30.4,99.9,30.5,99.1,30.5z M96.9,25.6c0,0.3,0,0.6,0.1,1c0.1,0.3,0.2,0.6,0.4,0.8
		c0.2,0.2,0.4,0.4,0.7,0.6c0.3,0.1,0.6,0.2,1,0.2s0.7-0.1,1-0.2c0.3-0.2,0.5-0.3,0.7-0.6c0.2-0.2,0.3-0.5,0.4-0.8
		c0.1-0.3,0.1-0.6,0.1-0.9c0-0.3,0-0.6-0.1-1c-0.1-0.3-0.2-0.6-0.4-0.8c-0.2-0.2-0.4-0.4-0.7-0.6c-0.3-0.1-0.6-0.2-1-0.2
		c-0.4,0-0.7,0.1-1,0.2c-0.3,0.1-0.5,0.3-0.7,0.6c-0.2,0.2-0.3,0.5-0.4,0.8C97,24.9,96.9,25.3,96.9,25.6z"/>
	<path class="st1" d="M109.6,30.5c-0.7,0-1.4-0.1-2-0.4c-0.6-0.3-1.1-0.7-1.5-1.1c-0.4-0.5-0.8-1-1-1.6c-0.2-0.6-0.4-1.2-0.4-1.8
		c0-0.6,0.1-1.3,0.4-1.8c0.2-0.6,0.6-1.1,1-1.6c0.4-0.5,1-0.8,1.6-1.1c0.6-0.3,1.3-0.4,2-0.4c0.7,0,1.4,0.1,2,0.4
		c0.6,0.3,1.1,0.7,1.5,1.1c0.4,0.5,0.8,1,1,1.6c0.2,0.6,0.3,1.2,0.3,1.8c0,0.6-0.1,1.3-0.4,1.8c-0.2,0.6-0.6,1.1-1,1.6
		c-0.4,0.5-1,0.8-1.6,1.1C111,30.4,110.3,30.5,109.6,30.5z M107.4,25.6c0,0.3,0,0.6,0.1,1c0.1,0.3,0.2,0.6,0.4,0.8
		c0.2,0.2,0.4,0.4,0.7,0.6c0.3,0.1,0.6,0.2,1,0.2s0.7-0.1,1-0.2c0.3-0.2,0.5-0.3,0.7-0.6c0.2-0.2,0.3-0.5,0.4-0.8
		c0.1-0.3,0.1-0.6,0.1-0.9c0-0.3,0-0.6-0.1-1c-0.1-0.3-0.2-0.6-0.4-0.8c-0.2-0.2-0.4-0.4-0.7-0.6c-0.3-0.1-0.6-0.2-1-0.2
		c-0.4,0-0.7,0.1-1,0.2c-0.3,0.1-0.5,0.3-0.7,0.6c-0.2,0.2-0.3,0.5-0.4,0.8C107.5,24.9,107.4,25.3,107.4,25.6z"/>
	<path class="st1" d="M115.7,30.4v-9.7h2.7v3.7l3-3.7h3l-3.5,4.4l3.8,5.4h-3.1l-2.4-3.6l-0.7,0.8v2.8H115.7z"/>
	<path class="st0" d="M134.1,24.5v2.1h-3.5v3.8h-2.4v-3.8h-3.5v-2.1h3.5v-3.8h2.4v3.8H134.1z"/>
	<path class="st1" d="M139.6,25.6v4.8h-2.7v-9.7h2.1l3.9,4.9v-4.9h2.7v9.7h-2.1L139.6,25.6z"/>
	<path class="st1" d="M154.2,28.1v2.3h-6.9v-9.7h6.8V23h-4.1v1.4h3.5v2.2h-3.5v1.5H154.2z"/>
	<path class="st1" d="M163,23h-2.8v7.4h-2.7V23h-2.8v-2.3h8.3V23z"/>
	<circle class="st1" cx="134" cy="29" r="1.4"/>
</g>
</svg>
