<?xml version="1.0" encoding="utf-8"?>
<!-- Generator: Adobe Illustrator 16.0.0, SVG Export Plug-In . SVG Version: 6.00 Build 0)  -->
<!DOCTYPE svg PUBLIC "-//W3C//DTD SVG 1.1//EN" "http://www.w3.org/Graphics/SVG/1.1/DTD/svg11.dtd">
<svg version="1.1" id="Layer_1" xmlns="http://www.w3.org/2000/svg" xmlns:xlink="http://www.w3.org/1999/xlink" x="0px" y="0px"
	 width="500px" height="500px" viewBox="0 0 500 500" enable-background="new 0 0 500 500" xml:space="preserve">
<g>
	<g>
		<rect x="-3.002" y="-2.377" fill="#BE1E2D" width="504.953" height="504.953"/>
	</g>
	<path fill="#FFFFFF" d="M426.118,234.082h-30.774v-30.771H364.57v30.771h-30.768v30.774h30.768v30.768h30.773v-30.768h30.774
		 M195.326,234.082v36.93h61.542c-3.075,15.381-18.462,46.154-61.542,46.154c-36.93,0-66.163-30.773-66.163-67.697
		c0-36.927,29.233-67.698,66.163-67.698c21.537,0,35.39,9.231,43.08,16.924L267.64,171c-18.462-18.462-43.08-29.233-72.313-29.233
		c-60.007,0-107.702,47.698-107.702,107.702c0,60.001,47.695,107.702,107.702,107.702c61.542,0,103.087-43.08,103.087-104.624
		c0-7.694,0-12.309-1.54-18.465H195.326z"/>
</g>
</svg>
