<?xml version="1.0" encoding="utf-8"?>
<!-- Generator: Adobe Illustrator 16.0.0, SVG Export Plug-In . SVG Version: 6.00 Build 0)  -->
<!DOCTYPE svg PUBLIC "-//W3C//DTD SVG 1.1//EN" "http://www.w3.org/Graphics/SVG/1.1/DTD/svg11.dtd">
<svg version="1.1" id="Layer_1" xmlns="http://www.w3.org/2000/svg" xmlns:xlink="http://www.w3.org/1999/xlink" x="0px" y="0px"
	 width="500px" height="500px" viewBox="0 0 500 500" enable-background="new 0 0 500 500" xml:space="preserve">
<g>
	<rect x="-1.944" y="-1.771" fill="#9B51A0" width="503.738" height="503.741"/>
	<path fill="#FFFFFF" d="M155.542,123.114H344.32c17.936,0,32.601,14.668,32.601,32.604v188.778
		c0,17.936-14.665,32.589-32.601,32.589H155.542c-17.936,0-32.613-14.653-32.613-32.589V155.718
		C122.929,137.782,137.606,123.114,155.542,123.114z M307.961,151.324c-6.302,0-11.438,5.157-11.438,11.449v27.358
		c0,6.298,5.136,11.443,11.438,11.443h28.706c6.283,0,11.431-5.145,11.431-11.443v-27.358c0-6.292-5.147-11.449-11.431-11.449
		H307.961z M348.208,230.517h-22.349c2.123,6.922,3.265,14.217,3.265,21.806c0,42.229-35.353,76.483-78.958,76.483
		c-43.593,0-78.953-34.255-78.953-76.483c0-7.589,1.16-14.884,3.265-21.806h-23.312v107.294c0,5.562,4.536,10.079,10.085,10.079
		h176.866c5.561,0,10.091-4.518,10.091-10.079V230.517z M250.166,200.129c-28.163,0-51,22.121-51,49.435
		c0,27.287,22.836,49.419,51,49.419c28.175,0,51.012-22.133,51.012-49.419C301.178,222.25,278.341,200.129,250.166,200.129z"/>
</g>
</svg>
