<?xml version="1.0" encoding="utf-8"?>
<!-- Generator: Adobe Illustrator 16.0.0, SVG Export Plug-In . SVG Version: 6.00 Build 0)  -->
<!DOCTYPE svg PUBLIC "-//W3C//DTD SVG 1.1//EN" "http://www.w3.org/Graphics/SVG/1.1/DTD/svg11.dtd">
<svg version="1.1" id="Layer_1" xmlns="http://www.w3.org/2000/svg" xmlns:xlink="http://www.w3.org/1999/xlink" x="0px" y="0px"
	 width="500px" height="500px" viewBox="0 0 500 500" enable-background="new 0 0 500 500" xml:space="preserve">
<g>
	<rect x="-3.542" y="-2.95" fill="#57A0D7" width="506.135" height="506.132"/>
	<g>
		<path fill="#FFFFFF" d="M122.09,205.958h54.669v175.625H122.09V205.958z M149.442,118.648c17.476,0,31.649,14.192,31.649,31.643
			c0,17.469-14.173,31.658-31.649,31.658c-17.541,0-31.686-14.189-31.686-31.658C117.756,132.84,131.901,118.648,149.442,118.648"/>
		<path fill="#FFFFFF" d="M211.028,205.958h52.356v24.003h0.744c7.28-13.817,25.109-28.369,51.677-28.369
			c55.267,0,65.487,36.356,65.487,83.658v96.333h-54.566v-85.388c0-20.384-0.403-46.585-28.385-46.585
			c-28.428,0-32.762,22.183-32.762,45.078v86.895h-54.552V205.958z"/>
	</g>
</g>
</svg>
