<?xml version="1.0" encoding="utf-8"?>
<!-- Generator: Adobe Illustrator 16.0.0, SVG Export Plug-In . SVG Version: 6.00 Build 0)  -->
<!DOCTYPE svg PUBLIC "-//W3C//DTD SVG 1.1//EN" "http://www.w3.org/Graphics/SVG/1.1/DTD/svg11.dtd">
<svg version="1.1" id="Layer_1" xmlns="http://www.w3.org/2000/svg" xmlns:xlink="http://www.w3.org/1999/xlink" x="0px" y="0px"
	 width="500px" height="500px" viewBox="0 0 500 500" enable-background="new 0 0 500 500" xml:space="preserve">
<g>
	<rect x="-1.321" y="-1.131" fill="#D74527" width="502.492" height="502.495"/>
	<path fill="#FFFFFF" d="M175.403,256.182c0,0,4.685,1.435,2.647,10.195l-5.295,17.511c0,0-3.466,3.269-8.761,0.621
		c0,0-42.5-15.226-33.881-86.219c0,0,8.207-60.318,68.119-82.892c59.905-22.562,110.785-0.41,116.948,2.869
		c6.15,3.288,60.317,36.125,55.393,100.546c-4.932,64.421-36.929,87.805-43.491,93.556c-6.57,5.744-64.844,38.979-97.259-3.694
		l-16.408,59.499c0,0-8.207,20.514-15.183,26.671c0,0-20.114-5.738-20.927-8.207c0,0-1.237-27.908,2.044-37.341l24.215-100.118
		c0,0-10.67-28.318-2.869-47.192c0,0,12.307-33.237,37.747-27.493c0,0,22.978,5.335,18.058,35.285l-13.539,47.191
		c0,0-6.157,22.152,4.101,31.19c0,0,17.233,22.152,47.598,1.638c0,0,21.745-8.619,30.365-65.243c0,0,6.981-50.477-20.515-71.41
		c0,0-31.185-29.943-87.808-11.476c0,0-42.685,14.761-51.298,60.318C165.404,201.987,157.499,228.326,175.403,256.182z"/>
</g>
</svg>
