<?xml version="1.0" encoding="utf-8"?>
<!-- Generator: Adobe Illustrator 16.0.0, SVG Export Plug-In . SVG Version: 6.00 Build 0)  -->
<!DOCTYPE svg PUBLIC "-//W3C//DTD SVG 1.1//EN" "http://www.w3.org/Graphics/SVG/1.1/DTD/svg11.dtd">
<svg version="1.1" id="Layer_1" xmlns="http://www.w3.org/2000/svg" xmlns:xlink="http://www.w3.org/1999/xlink" x="0px" y="0px"
	 width="500px" height="500px" viewBox="0 0 500 500" enable-background="new 0 0 500 500" xml:space="preserve">
<g>
	<rect x="-1.188" y="-1.165" fill="#00AEEF" width="502.525" height="502.528"/>
	<path fill="#FFFFFF" d="M368.004,277.045c1.804-8.257,2.746-16.821,2.746-25.614c0-65.925-53.42-119.375-119.348-119.375
		c-6.952,0-13.765,0.603-20.408,1.754c-10.661-6.727-23.287-10.633-36.82-10.633c-38.236,0-69.219,30.992-69.219,69.244
		c0,12.77,3.476,24.727,9.513,35.013c-1.588,7.746-2.417,15.778-2.417,23.998c0,65.932,53.429,119.376,119.351,119.376
		c7.472,0,14.773-0.689,21.854-2.001c9.753,5.245,20.886,8.22,32.726,8.22c38.23,0,69.213-30.996,69.213-69.231
		C375.195,296.748,372.597,286.317,368.004,277.045z M312.62,308.483c-5.511,7.819-13.676,14.001-24.253,18.397
		c-10.462,4.348-23.004,6.563-37.285,6.563c-17.151,0-31.519-3.017-42.74-8.965c-8.026-4.322-14.626-10.184-19.657-17.462
		c-5.064-7.296-7.629-14.556-7.629-21.563c0-4.359,1.672-8.151,4.972-11.255c3.266-3.085,7.456-4.637,12.456-4.637
		c4.104,0,7.644,1.22,10.516,3.651c2.746,2.34,5.095,5.788,7.001,10.228c2.118,4.857,4.417,8.934,6.843,12.142
		c2.353,3.122,5.72,5.72,10.018,7.758c4.322,2.038,10.166,3.091,17.333,3.091c9.86,0,17.964-2.111,24.047-6.262
		c5.947-4.058,8.829-8.94,8.829-14.9c0-4.704-1.509-8.41-4.605-11.329c-3.251-3.029-7.536-5.381-12.733-7.02
		c-5.43-1.687-12.791-3.521-21.9-5.43c-12.395-2.648-22.911-5.795-31.282-9.359c-8.562-3.633-15.461-8.694-20.503-14.999
		c-5.123-6.422-7.724-14.469-7.724-23.939c0-9.008,2.724-17.142,8.106-24.139c5.329-6.967,13.133-12.397,23.166-16.092
		c9.91-3.664,21.686-5.517,35.025-5.517c10.655,0,20.026,1.235,27.846,3.664c7.875,2.441,14.494,5.748,19.716,9.827
		c5.245,4.109,9.161,8.478,11.612,13.047c2.469,4.6,3.725,9.18,3.725,13.607c0,4.267-1.644,8.146-4.901,11.523
		c-3.27,3.405-7.395,5.129-12.259,5.129c-4.414,0-7.881-1.093-10.27-3.202c-2.235-1.985-4.557-5.073-7.13-9.498
		c-2.969-5.649-6.576-10.104-10.708-13.25c-4.021-3.06-10.72-4.596-19.937-4.596c-8.543,0-15.51,1.708-20.676,5.113
		c-4.979,3.248-7.401,6.998-7.401,11.44c0,2.712,0.785,4.984,2.392,6.936c1.69,2.084,4.088,3.882,7.105,5.403
		c3.14,1.582,6.382,2.848,9.615,3.737c3.313,0.92,8.878,2.284,16.507,4.051c9.667,2.069,18.546,4.396,26.39,6.912
		c7.955,2.543,14.814,5.661,20.424,9.325c5.708,3.722,10.239,8.49,13.453,14.198c3.221,5.744,4.852,12.813,4.852,21.033
		C320.975,291.674,318.155,300.639,312.62,308.483z"/>
</g>
</svg>
