<?xml version="1.0" encoding="utf-8"?>
<!-- Generator: Adobe Illustrator 16.0.0, SVG Export Plug-In . SVG Version: 6.00 Build 0)  -->
<!DOCTYPE svg PUBLIC "-//W3C//DTD SVG 1.1//EN" "http://www.w3.org/Graphics/SVG/1.1/DTD/svg11.dtd">
<svg version="1.1" id="Layer_1" xmlns="http://www.w3.org/2000/svg" xmlns:xlink="http://www.w3.org/1999/xlink" x="0px" y="0px"
	 width="500px" height="500px" viewBox="0 0 500 500" enable-background="new 0 0 500 500" xml:space="preserve">
<g>
	<rect x="-1.488" y="-1.165" fill="#57A0D7" width="502.525" height="502.528"/>
	<path fill="#FFFFFF" d="M378.01,170.563c-9.438,4.187-19.586,7.016-30.219,8.284c10.861-6.514,19.216-16.818,23.132-29.108
		c-10.153,6.028-21.408,10.415-33.402,12.773c-9.605-10.233-23.28-16.621-38.415-16.621c-29.056,0-52.619,23.563-52.619,52.619
		c0,4.132,0.468,8.137,1.361,11.985c-43.728-2.186-82.494-23.13-108.453-54.981c-4.52,7.786-7.118,16.818-7.118,26.463
		c0,18.247,9.285,34.367,23.397,43.793c-8.62-0.268-16.729-2.647-23.829-6.582v0.662c0,25.488,18.146,46.758,42.202,51.591
		c-4.409,1.201-9.07,1.859-13.86,1.859c-3.38,0-6.693-0.345-9.895-0.96c6.693,20.909,26.119,36.118,49.141,36.549
		c-17.998,14.112-40.681,22.523-65.347,22.523c-4.242,0-8.429-0.259-12.542-0.733c23.28,14.919,50.938,23.625,80.665,23.625
		c96.778,0,149.7-80.154,149.7-149.696c0-2.275-0.062-4.544-0.142-6.819C362.026,190.386,370.941,181.119,378.01,170.563z"/>
</g>
</svg>
