<?xml version="1.0" encoding="utf-8"?>
<!-- Generator: Adobe Illustrator 16.0.0, SVG Export Plug-In . SVG Version: 6.00 Build 0)  -->
<!DOCTYPE svg PUBLIC "-//W3C//DTD SVG 1.1//EN" "http://www.w3.org/Graphics/SVG/1.1/DTD/svg11.dtd">
<svg version="1.1" id="Layer_1" xmlns="http://www.w3.org/2000/svg" xmlns:xlink="http://www.w3.org/1999/xlink" x="0px" y="0px"
	 width="500px" height="500px" viewBox="0 0 500 500" enable-background="new 0 0 500 500" xml:space="preserve">
<g>
	<rect x="-1.839" y="-1.268" fill="#D74527" width="502.729" height="502.735"/>
	<g>
		<path fill="#FFFFFF" d="M222.726,95.267h-17.527l-11.827,45.458l-12.301-45.458h-18.249c3.65,10.724,7.462,21.513,11.115,32.252
			c5.556,16.142,9.03,28.313,10.595,36.625v46.885h17.34v-46.885L222.726,95.267z M269.063,183.099v-30.22
			c0-9.218-1.583-15.954-4.859-20.321c-4.331-5.889-10.407-8.842-18.236-8.842c-7.786,0-13.884,2.954-18.205,8.842
			c-3.329,4.367-4.894,11.103-4.894,20.321v30.22c0,9.172,1.564,15.966,4.894,20.296c4.321,5.879,10.419,8.833,18.205,8.833
			c7.829,0,13.905-2.954,18.236-8.833C267.479,199.064,269.063,192.271,269.063,183.099z M253.42,186.043
			c0,7.983-2.414,11.975-7.453,11.975c-5.048,0-7.466-3.992-7.466-11.975V149.75c0-7.986,2.418-11.959,7.466-11.959
			c5.039,0,7.453,3.973,7.453,11.959V186.043z M326.872,211.03v-86.264h-15.64V190.7c-3.468,4.894-6.751,7.318-9.874,7.318
			c-2.101,0-3.32-1.235-3.665-3.662c-0.191-0.505-0.191-2.415-0.191-6.086v-63.503h-15.584v68.212
			c0,6.086,0.529,10.219,1.393,12.825c1.558,4.374,5.026,6.425,10.064,6.425c5.698,0,11.636-3.471,17.857-10.61v9.412H326.872z"/>
		<g>
			<path fill="#FFFFFF" d="M277.858,298.621c-2.544,0-5.124,1.22-7.712,3.764v52.037c2.588,2.581,5.168,3.795,7.712,3.795
				c4.46,0,6.727-3.795,6.727-11.507v-36.435C284.585,302.582,282.318,298.621,277.858,298.621z"/>
			<path fill="#FFFFFF" d="M335.268,298.621c-5.174,0-7.762,3.961-7.762,11.852v7.891h15.461v-7.891
				C342.967,302.582,340.374,298.621,335.268,298.621z"/>
			<path fill="#FFFFFF" d="M373.076,255.217c-3.13-13.601-14.254-23.645-27.67-25.138c-31.734-3.554-63.87-3.56-95.845-3.554
				c-31.978-0.006-64.107,0-95.845,3.554c-13.407,1.494-24.541,11.538-27.663,25.138c-4.463,19.406-4.509,40.54-4.509,60.516
				c0,19.951,0,41.129,4.457,60.508c3.123,13.606,14.254,23.641,27.66,25.149c31.741,3.542,63.867,3.561,95.849,3.542
				c31.972,0.019,64.107,0,95.849-3.542c13.403-1.509,24.54-11.543,27.663-25.149c4.472-19.379,4.49-40.557,4.49-60.508
				C377.511,295.757,377.529,274.623,373.076,255.217z M194.555,272.67h-18.541v98.433h-17.201V272.67h-18.199v-16.139h53.94V272.67
				z M241.292,371.103h-15.485v-9.301c-6.141,7.046-11.984,10.483-17.672,10.483c-4.989,0-8.423-2.021-9.963-6.351
				c-0.853-2.593-1.368-6.659-1.368-12.695v-67.498h15.461v62.854c0,3.609,0,5.507,0.142,6.012c0.378,2.396,1.549,3.61,3.619,3.61
				c3.102,0,6.363-2.396,9.782-7.232v-65.243h15.485V371.103z M300.053,345.496c0,7.891-0.53,13.583-1.559,17.198
				c-2.07,6.351-6.197,9.591-12.369,9.591c-5.507,0-10.811-3.055-15.979-9.449v8.267H254.68V256.531h15.467v37.421
				c5.002-6.142,10.3-9.258,15.979-9.258c6.172,0,10.299,3.239,12.369,9.634c1.028,3.437,1.559,9.092,1.559,17.16V345.496z
				 M358.44,331.249h-30.935v15.122c0,7.915,2.588,11.846,7.891,11.846c3.801,0,6.03-2.07,6.918-6.209
				c0.147-0.838,0.332-4.257,0.332-10.466h15.794v2.248c0,4.978-0.197,8.414-0.345,9.979c-0.518,3.412-1.731,6.529-3.598,9.264
				c-4.287,6.197-10.632,9.252-18.707,9.252c-8.112,0-14.266-2.914-18.731-8.747c-3.277-4.263-4.965-11.014-4.965-20.068V313.57
				c0-9.135,1.49-15.806,4.78-20.117c4.459-5.852,10.631-8.759,18.521-8.759c7.762,0,13.915,2.907,18.252,8.759
				c3.233,4.312,4.792,10.982,4.792,20.117V331.249z"/>
		</g>
	</g>
</g>
</svg>
