<?xml version="1.0" encoding="utf-8"?>
<!-- Generator: Adobe Illustrator 16.0.0, SVG Export Plug-In . SVG Version: 6.00 Build 0)  -->
<!DOCTYPE svg PUBLIC "-//W3C//DTD SVG 1.1//EN" "http://www.w3.org/Graphics/SVG/1.1/DTD/svg11.dtd">
<svg version="1.1" id="Layer_1" xmlns="http://www.w3.org/2000/svg" xmlns:xlink="http://www.w3.org/1999/xlink" x="0px" y="0px"
	 width="500px" height="500px" viewBox="0 0 500 500" enable-background="new 0 0 500 500" xml:space="preserve">
<path fill="#FFFFFF" d="M310.392,257.087c-32.464,0-58.878-26.409-58.878-58.871c0-32.466,26.414-58.875,58.878-58.875
	c32.465,0,58.875,26.409,58.875,58.875C369.267,230.678,342.855,257.087,310.392,257.087z"/>
<path fill="#DDDDDD" d="M310.391,248.547c-27.754,0-50.336-22.578-50.336-50.331c0-27.757,22.582-50.336,50.336-50.336
	c27.757,0,50.336,22.579,50.336,50.336C360.727,225.969,338.146,248.547,310.391,248.547z"/>
<g>
	<g>
		<path fill="#0086B5" d="M69.979,323.861l8.877,21.461l9.087-21.461h14.819l-17.125,33.203v16.428H72.076v-16.566l-16.847-33.063
			h14.75V323.861z"/>
		<path fill="#0086B5" d="M141.837,361.609v11.883h-35.371v-49.631h34.742v11.884h-21.111v6.991h18.035v11.043h-18.035v7.83H141.837
			z"/>
		<path fill="#0086B5" d="M161.059,323.861h12.443l17.196,49.631h-13.84l-3.006-9.717H160.64l-2.936,9.717h-13.911L161.059,323.861z
			 M171.685,354.689l-4.404-15.379l-4.614,15.379H171.685z"/>
		<path fill="#0086B5" d="M194.821,373.492v-49.631h22.788c2.423,0,4.659,0.502,6.711,1.504c2.05,1.003,3.81,2.307,5.277,3.914
			c1.468,1.607,2.622,3.449,3.46,5.521c0.84,2.074,1.259,4.159,1.259,6.258c0,2.89-0.63,5.58-1.888,8.072
			c-1.258,2.493-3.006,4.532-5.242,6.116l10.484,18.244h-15.378l-8.737-15.238h-5.104v15.238L194.821,373.492L194.821,373.492z
			 M208.452,346.37h8.599c0.839,0,1.618-0.466,2.341-1.397s1.084-2.236,1.084-3.914c0-1.725-0.42-3.041-1.258-3.949
			c-0.839-0.908-1.678-1.363-2.517-1.363h-8.249V346.37L208.452,346.37z"/>
		<path fill="#0086B5" d="M284.227,360.771c0,2.235-0.468,4.158-1.398,5.767c-0.932,1.608-2.214,2.926-3.844,3.948
			c-1.633,1.027-3.53,1.783-5.697,2.272c-2.168,0.489-4.464,0.733-6.887,0.733h-24.396v-49.631h28.8
			c1.725,0,3.285,0.375,4.685,1.119c1.397,0.746,2.586,1.713,3.563,2.9c0.979,1.188,1.735,2.54,2.272,4.055
			c0.534,1.516,0.804,3.064,0.804,4.647c0,2.331-0.595,4.556-1.783,6.676c-1.188,2.121-2.971,3.718-5.348,4.788
			c2.842,0.839,5.092,2.296,6.746,4.369C283.396,354.491,284.227,357.275,284.227,360.771z M255.636,335.466v7.619h9.298
			c0.932,0,1.781-0.255,2.551-0.769s1.154-1.539,1.154-3.075c0-1.353-0.328-2.318-0.979-2.901c-0.653-0.582-1.421-0.874-2.306-0.874
			H255.636L255.636,335.466z M270.385,357.975c0-1.211-0.326-2.226-0.979-3.041c-0.653-0.813-1.492-1.223-2.518-1.223h-11.254v8.316
			H266.4c1.117,0,2.063-0.348,2.83-1.047C270.001,360.281,270.385,359.279,270.385,357.975z"/>
		<path fill="#0086B5" d="M312.605,373.912c-3.775,0-7.2-0.723-10.276-2.167c-3.075-1.444-5.709-3.343-7.899-5.697
			c-2.189-2.353-3.892-5.043-5.103-8.073c-1.212-3.029-1.817-6.15-1.817-9.367c0-3.26,0.631-6.406,1.889-9.437
			c1.258-3.028,3.017-5.696,5.276-8.004c2.261-2.308,4.939-4.147,8.039-5.522c3.1-1.373,6.489-2.062,10.171-2.062
			c3.774,0,7.2,0.724,10.275,2.166c3.075,1.444,5.708,3.356,7.898,5.731c2.189,2.377,3.88,5.08,5.067,8.108
			c1.188,3.03,1.782,6.129,1.782,9.297c0,3.263-0.629,6.396-1.887,9.402c-1.26,3.006-3.007,5.662-5.243,7.969
			c-2.236,2.308-4.905,4.16-8.004,5.558C319.676,373.213,316.286,373.912,312.605,373.912z M301.351,348.747
			c0,1.678,0.232,3.298,0.699,4.858c0.465,1.562,1.164,2.947,2.099,4.158c0.932,1.213,2.106,2.191,3.528,2.937
			s3.111,1.118,5.068,1.118s3.657-0.385,5.103-1.152c1.443-0.77,2.622-1.771,3.53-3.006s1.583-2.645,2.027-4.229
			c0.441-1.584,0.664-3.191,0.664-4.824c0-1.678-0.234-3.295-0.699-4.857c-0.467-1.561-1.178-2.936-2.133-4.124
			s-2.145-2.144-3.564-2.866c-1.422-0.722-3.088-1.083-4.998-1.083c-1.957,0-3.646,0.373-5.067,1.118
			c-1.423,0.746-2.599,1.736-3.529,2.971c-0.934,1.235-1.62,2.635-2.063,4.194C301.571,345.521,301.351,347.117,301.351,348.747z"/>
		<path fill="#0086B5" d="M366.08,373.912c-3.774,0-7.2-0.723-10.275-2.167c-3.074-1.444-5.709-3.343-7.898-5.697
			c-2.19-2.353-3.893-5.043-5.104-8.073c-1.213-3.029-1.816-6.15-1.816-9.367c0-3.26,0.629-6.406,1.888-9.437
			c1.258-3.028,3.016-5.696,5.277-8.004c2.26-2.308,4.938-4.147,8.039-5.522c3.099-1.373,6.487-2.062,10.17-2.062
			c3.774,0,7.2,0.724,10.275,2.166c3.075,1.444,5.708,3.356,7.898,5.731c2.188,2.377,3.879,5.08,5.067,8.108
			c1.188,3.03,1.782,6.129,1.782,9.297c0,3.263-0.629,6.396-1.888,9.402c-1.258,3.006-3.006,5.662-5.242,7.969
			c-2.236,2.308-4.905,4.16-8.004,5.558C373.151,373.213,369.761,373.912,366.08,373.912z M354.826,348.747
			c0,1.678,0.231,3.298,0.698,4.858c0.466,1.562,1.165,2.947,2.098,4.158c0.932,1.213,2.106,2.191,3.529,2.937
			c1.422,0.745,3.11,1.118,5.067,1.118s3.657-0.385,5.104-1.152c1.442-0.77,2.621-1.771,3.528-3.006
			c0.909-1.234,1.584-2.645,2.027-4.229c0.442-1.584,0.664-3.191,0.664-4.824c0-1.678-0.233-3.295-0.699-4.857
			c-0.466-1.561-1.178-2.936-2.132-4.124c-0.955-1.188-2.144-2.144-3.565-2.866c-1.422-0.722-3.088-1.083-4.996-1.083
			c-1.958,0-3.647,0.373-5.068,1.118c-1.423,0.746-2.599,1.736-3.53,2.971c-0.933,1.235-1.62,2.635-2.063,4.194
			C355.046,345.521,354.826,347.117,354.826,348.747z"/>
		<path fill="#0086B5" d="M397.188,373.492v-49.631h13.631v18.875l15.099-18.875h15.379l-18.035,22.229l19.293,27.401h-15.656
			l-12.304-18.244l-3.774,3.914v14.33H397.188z"/>
	</g>
</g>
<g>
	<g>
		<circle fill="#A7A9AC" cx="288.491" cy="420.6" r="7.197"/>
		<path fill="#A7A9AC" d="M94.705,428.067v-40.958h17.191c1.846,0,3.548,0.386,5.105,1.154c1.558,0.771,2.894,1.778,4.01,3.027
			c1.114,1.25,1.99,2.674,2.625,4.27c0.634,1.597,0.952,3.223,0.952,4.875c0,1.729-0.298,3.395-0.894,4.989
			c-0.597,1.597-1.433,3.021-2.509,4.271c-1.078,1.248-2.375,2.248-3.895,2.998s-3.202,1.125-5.047,1.125h-11.076v14.249H94.705z
			 M101.166,408.107h10.672c0.923,0,1.76-0.191,2.51-0.576s1.393-0.924,1.932-1.615c0.539-0.691,0.961-1.5,1.27-2.423
			c0.307-0.923,0.461-1.942,0.461-3.058c0-1.153-0.173-2.191-0.519-3.115c-0.347-0.922-0.828-1.721-1.443-2.394
			c-0.615-0.674-1.317-1.192-2.105-1.559c-0.789-0.364-1.606-0.548-2.451-0.548h-10.326L101.166,408.107L101.166,408.107z"/>
		<path fill="#A7A9AC" d="M142.181,428.067v-40.958h6.461v35.248h21.979v5.71H142.181z"/>
		<path fill="#A7A9AC" d="M201.946,422.53c2.153,0,3.941-0.423,5.365-1.271c1.422-0.846,2.567-1.951,3.432-3.316
			c0.866-1.363,1.48-2.922,1.846-4.672c0.365-1.75,0.548-3.549,0.548-5.396v-20.769h6.519v20.769c0,2.81-0.327,5.452-0.981,7.933
			c-0.654,2.481-1.692,4.653-3.115,6.52s-3.259,3.337-5.509,4.413c-2.25,1.077-4.953,1.615-8.105,1.615
			c-3.27,0-6.029-0.566-8.278-1.701c-2.25-1.134-4.067-2.654-5.452-4.559c-1.384-1.903-2.385-4.085-2.999-6.547
			c-0.616-2.462-0.923-5.021-0.923-7.674v-20.769h6.461v20.769c0,1.886,0.182,3.702,0.547,5.452
			c0.365,1.751,0.981,3.309,1.846,4.673c0.865,1.366,2.02,2.461,3.461,3.288S199.831,422.53,201.946,422.53z"/>
		<path fill="#A7A9AC" d="M264.018,396.744c-0.385-0.424-0.941-0.875-1.672-1.355c-0.73-0.479-1.587-0.933-2.568-1.354
			c-0.979-0.423-2.057-0.771-3.229-1.039s-2.374-0.403-3.604-0.403c-2.73,0-4.74,0.499-6.028,1.499
			c-1.29,1.001-1.933,2.386-1.933,4.154c0,1,0.202,1.815,0.605,2.45c0.404,0.636,1.028,1.192,1.875,1.674
			c0.846,0.48,1.903,0.904,3.173,1.27c1.27,0.366,2.749,0.76,4.441,1.184c2.076,0.5,3.951,1.059,5.625,1.673
			c1.673,0.614,3.086,1.364,4.238,2.25c1.154,0.885,2.049,1.972,2.685,3.26c0.634,1.288,0.951,2.854,0.951,4.701
			c0,2.077-0.396,3.864-1.183,5.364c-0.789,1.5-1.867,2.722-3.23,3.664c-1.365,0.941-2.951,1.635-4.76,2.075
			c-1.809,0.441-3.75,0.663-5.826,0.663c-3.114,0-6.125-0.47-9.028-1.413c-2.904-0.94-5.529-2.314-7.875-4.125l2.942-5.538
			c0.5,0.502,1.221,1.061,2.164,1.674c0.942,0.615,2.038,1.184,3.288,1.701c1.25,0.521,2.604,0.963,4.067,1.327
			c1.461,0.365,2.979,0.549,4.558,0.549c2.539,0,4.5-0.442,5.885-1.327c1.384-0.885,2.076-2.192,2.076-3.924
			c0-1.037-0.26-1.902-0.778-2.596c-0.519-0.691-1.261-1.297-2.222-1.816s-2.135-0.989-3.52-1.414
			c-1.384-0.422-2.962-0.864-4.73-1.326c-2.039-0.537-3.817-1.104-5.336-1.701c-1.519-0.596-2.778-1.316-3.778-2.164
			c-1-0.845-1.759-1.835-2.279-2.97c-0.519-1.136-0.778-2.511-0.778-4.125c0-2,0.383-3.778,1.153-5.337
			c0.769-1.557,1.817-2.864,3.144-3.922c1.326-1.059,2.894-1.854,4.701-2.396c1.808-0.538,3.77-0.808,5.885-0.808
			c2.769,0,5.326,0.443,7.672,1.326c2.346,0.887,4.404,1.981,6.172,3.289L264.018,396.744z"/>
		<path fill="#A7A9AC" d="M316.859,399.225v28.844h-6.461v-40.959h5.075l23.423,29.537v-29.479h6.52v40.899h-5.366L316.859,399.225z
			"/>
		<path fill="#A7A9AC" d="M394.276,422.357v5.71h-28.096v-40.958h27.575v5.711h-21.113v11.652h18.287v5.365h-18.287v12.52H394.276z"
			/>
		<path fill="#A7A9AC" d="M442.561,392.82h-13.613v35.247h-6.52V392.82h-13.672v-5.711h33.805V392.82L442.561,392.82z"/>
	</g>
</g>
<g>
	<path fill="#A7A9AC" d="M58.723,450.387l3.749,7.326l3.813-7.326h3.192l-5.526,9.896v5.312h-2.935v-5.354l-5.505-9.854H58.723z"/>
	<path fill="#A7A9AC" d="M76.608,465.702c-1.114,0-2.125-0.218-3.031-0.653c-0.906-0.435-1.685-1.014-2.334-1.734
		c-0.65-0.722-1.153-1.546-1.51-2.475c-0.357-0.928-0.536-1.878-0.536-2.849c0-1.015,0.189-1.985,0.568-2.913
		c0.378-0.929,0.899-1.749,1.563-2.464c0.664-0.714,1.453-1.281,2.367-1.703c0.914-0.421,1.906-0.631,2.977-0.631
		c1.1,0,2.103,0.225,3.01,0.674c0.907,0.45,1.681,1.039,2.324,1.768c0.643,0.729,1.143,1.558,1.5,2.484
		c0.357,0.929,0.536,1.871,0.536,2.828c0,1.014-0.186,1.979-0.557,2.902c-0.372,0.921-0.885,1.733-1.542,2.44
		c-0.657,0.707-1.443,1.271-2.356,1.692S77.679,465.702,76.608,465.702z M72.196,457.991c0,0.657,0.1,1.292,0.3,1.906
		c0.2,0.613,0.489,1.155,0.868,1.628c0.378,0.471,0.842,0.85,1.392,1.135c0.55,0.286,1.174,0.429,1.875,0.429
		c0.714,0,1.346-0.146,1.896-0.438c0.55-0.292,1.014-0.683,1.392-1.167c0.378-0.485,0.664-1.031,0.857-1.64
		c0.193-0.605,0.289-1.225,0.289-1.853c0-0.657-0.104-1.293-0.311-1.907c-0.207-0.613-0.5-1.156-0.878-1.627
		c-0.379-0.472-0.843-0.847-1.393-1.125c-0.55-0.278-1.167-0.418-1.853-0.418c-0.714,0-1.35,0.146-1.907,0.438
		c-0.557,0.293-1.021,0.68-1.392,1.156c-0.372,0.479-0.653,1.021-0.846,1.628C72.292,456.745,72.196,457.362,72.196,457.991z"/>
	<path fill="#A7A9AC" d="M92.737,463.089c0.7,0,1.289-0.143,1.767-0.429c0.479-0.285,0.864-0.656,1.157-1.113
		c0.292-0.457,0.5-0.981,0.621-1.574c0.121-0.593,0.182-1.203,0.182-1.832v-7.754h2.935v7.754c0,1.043-0.125,2.021-0.375,2.936
		s-0.643,1.714-1.178,2.398c-0.535,0.687-1.225,1.229-2.067,1.628c-0.843,0.399-1.849,0.601-3.02,0.601
		c-1.214,0-2.246-0.211-3.095-0.632c-0.85-0.421-1.539-0.979-2.067-1.671c-0.529-0.692-0.911-1.495-1.146-2.409
		c-0.236-0.914-0.354-1.864-0.354-2.851v-7.754h2.956v7.754c0,0.644,0.061,1.262,0.182,1.854s0.328,1.117,0.621,1.574
		c0.292,0.457,0.675,0.823,1.146,1.103S92.052,463.089,92.737,463.089z"/>
	<path fill="#A7A9AC" d="M102.376,465.595v-15.208h6.726c0.7,0,1.346,0.146,1.938,0.439c0.593,0.293,1.103,0.678,1.532,1.156
		c0.428,0.479,0.764,1.021,1.007,1.628c0.243,0.606,0.364,1.218,0.364,1.832c0,0.983-0.247,1.881-0.739,2.688
		c-0.492,0.807-1.16,1.39-2.003,1.746l3.47,5.719h-3.32l-3.106-5.098h-2.913v5.098H102.376L102.376,465.595z M105.332,457.905h3.706
		c0.271,0,0.524-0.064,0.76-0.192c0.236-0.129,0.439-0.304,0.61-0.524c0.171-0.222,0.307-0.481,0.407-0.781s0.15-0.621,0.15-0.964
		c0-0.357-0.058-0.687-0.171-0.985c-0.115-0.3-0.268-0.561-0.46-0.782c-0.193-0.222-0.415-0.393-0.664-0.514
		c-0.25-0.122-0.503-0.183-0.761-0.183h-3.577V457.905z"/>
	<path fill="#A7A9AC" d="M122.747,450.387l3.749,7.326l3.813-7.326h3.191l-5.526,9.896v5.312h-2.934v-5.354l-5.505-9.854H122.747z"
		/>
	<path fill="#A7A9AC" d="M145.729,463.003v2.592h-10.56v-15.208h10.367v2.593h-7.412v3.662h6.405v2.398h-6.405v3.963H145.729
		L145.729,463.003z"/>
	<path fill="#A7A9AC" d="M152.37,450.387h2.613l5.784,15.208h-3.042l-1.414-3.791h-5.312l-1.392,3.791h-3.042L152.37,450.387z
		 M155.776,459.726l-2.099-5.976l-2.185,5.976H155.776z"/>
	<path fill="#A7A9AC" d="M162.438,465.595v-15.208h6.726c0.699,0,1.346,0.146,1.938,0.439c0.592,0.293,1.103,0.678,1.532,1.156
		c0.428,0.479,0.764,1.021,1.006,1.628c0.243,0.606,0.364,1.218,0.364,1.832c0,0.983-0.246,1.881-0.739,2.688
		c-0.493,0.807-1.161,1.39-2.003,1.746l3.47,5.719h-3.32l-3.106-5.098h-2.913v5.098H162.438L162.438,465.595z M165.393,457.905
		h3.706c0.271,0,0.525-0.064,0.761-0.192c0.235-0.129,0.439-0.304,0.61-0.524c0.171-0.222,0.307-0.481,0.407-0.781
		s0.15-0.621,0.15-0.964c0-0.357-0.058-0.687-0.171-0.985c-0.115-0.3-0.268-0.561-0.461-0.782c-0.192-0.222-0.414-0.393-0.664-0.514
		c-0.25-0.122-0.503-0.183-0.76-0.183h-3.577L165.393,457.905L165.393,457.905z"/>
	<path fill="#A7A9AC" d="M188.934,461.675c0,0.644-0.129,1.207-0.386,1.692c-0.257,0.484-0.61,0.893-1.06,1.221
		c-0.45,0.329-0.971,0.579-1.564,0.75c-0.593,0.172-1.225,0.257-1.896,0.257h-7.347v-15.208h8.139c0.528,0,1.007,0.114,1.435,0.343
		c0.429,0.229,0.793,0.525,1.093,0.89c0.3,0.364,0.532,0.778,0.696,1.243c0.164,0.464,0.247,0.932,0.247,1.401
		c0,0.743-0.186,1.439-0.557,2.089c-0.371,0.65-0.914,1.133-1.628,1.445c0.871,0.257,1.56,0.718,2.067,1.382
		C188.68,459.844,188.934,460.676,188.934,461.675z M179.637,452.914v3.834h3.941c0.5,0,0.924-0.171,1.274-0.514
		c0.35-0.344,0.525-0.813,0.525-1.414c0-0.585-0.161-1.05-0.482-1.393s-0.718-0.515-1.189-0.515L179.637,452.914L179.637,452.914z
		 M185.956,461.118c0-0.271-0.046-0.531-0.139-0.782c-0.093-0.249-0.218-0.467-0.375-0.652c-0.158-0.186-0.343-0.332-0.557-0.438
		c-0.214-0.107-0.45-0.161-0.707-0.161h-4.541v4.006h4.391c0.271,0,0.525-0.05,0.761-0.148c0.235-0.102,0.438-0.239,0.61-0.418
		c0.171-0.18,0.307-0.39,0.407-0.633C185.906,461.646,185.956,461.39,185.956,461.118z"/>
	<path fill="#A7A9AC" d="M197.737,465.702c-1.114,0-2.125-0.218-3.031-0.653c-0.907-0.436-1.686-1.014-2.335-1.734
		c-0.65-0.722-1.153-1.546-1.51-2.475c-0.357-0.928-0.536-1.878-0.536-2.849c0-1.015,0.189-1.985,0.568-2.913
		c0.378-0.929,0.899-1.749,1.563-2.464c0.664-0.714,1.453-1.281,2.367-1.703c0.913-0.421,1.906-0.631,2.978-0.631
		c1.099,0,2.102,0.225,3.009,0.674c0.907,0.45,1.682,1.039,2.324,1.768c0.642,0.729,1.143,1.558,1.499,2.484
		c0.357,0.929,0.536,1.871,0.536,2.828c0,1.014-0.187,1.979-0.558,2.902c-0.371,0.921-0.885,1.733-1.542,2.44
		c-0.657,0.707-1.442,1.271-2.356,1.692S198.808,465.702,197.737,465.702z M193.324,457.991c0,0.657,0.1,1.292,0.3,1.906
		c0.2,0.613,0.489,1.155,0.868,1.628c0.378,0.471,0.842,0.85,1.392,1.135c0.55,0.286,1.175,0.429,1.875,0.429
		c0.713,0,1.346-0.146,1.896-0.438c0.55-0.292,1.014-0.683,1.392-1.167c0.379-0.485,0.664-1.031,0.857-1.64
		c0.192-0.605,0.289-1.225,0.289-1.853c0-0.657-0.104-1.293-0.311-1.907c-0.207-0.613-0.5-1.156-0.878-1.627
		c-0.379-0.472-0.843-0.847-1.393-1.125c-0.55-0.278-1.167-0.418-1.853-0.418c-0.715,0-1.35,0.146-1.906,0.438
		c-0.558,0.293-1.021,0.68-1.393,1.156c-0.372,0.479-0.653,1.021-0.847,1.628C193.421,456.745,193.324,457.362,193.324,457.991z"/>
	<path fill="#A7A9AC" d="M213.931,465.702c-1.114,0-2.125-0.218-3.031-0.653c-0.907-0.436-1.686-1.014-2.335-1.734
		c-0.649-0.722-1.153-1.546-1.51-2.475c-0.357-0.928-0.536-1.878-0.536-2.849c0-1.015,0.189-1.985,0.568-2.913
		c0.378-0.929,0.899-1.749,1.563-2.464c0.664-0.714,1.453-1.281,2.367-1.703c0.913-0.421,1.906-0.631,2.978-0.631
		c1.099,0,2.102,0.225,3.009,0.674c0.907,0.45,1.682,1.039,2.324,1.768c0.642,0.729,1.143,1.558,1.499,2.484
		c0.357,0.929,0.536,1.871,0.536,2.828c0,1.014-0.186,1.979-0.558,2.902c-0.371,0.921-0.885,1.733-1.542,2.44
		c-0.657,0.707-1.442,1.271-2.356,1.692C215.993,465.49,215.001,465.702,213.931,465.702z M209.518,457.991
		c0,0.657,0.1,1.292,0.3,1.906c0.2,0.613,0.489,1.155,0.868,1.628c0.378,0.471,0.842,0.85,1.392,1.135
		c0.55,0.286,1.175,0.429,1.875,0.429c0.713,0,1.346-0.146,1.896-0.438c0.55-0.292,1.014-0.683,1.392-1.167
		c0.379-0.485,0.664-1.031,0.857-1.64c0.192-0.605,0.289-1.225,0.289-1.853c0-0.657-0.104-1.293-0.311-1.907
		c-0.207-0.613-0.5-1.156-0.878-1.627c-0.379-0.472-0.843-0.847-1.393-1.125c-0.55-0.278-1.167-0.418-1.853-0.418
		c-0.715,0-1.35,0.146-1.906,0.438c-0.558,0.293-1.021,0.68-1.393,1.156c-0.372,0.479-0.653,1.021-0.847,1.628
		C209.614,456.745,209.518,457.362,209.518,457.991z"/>
	<path fill="#A7A9AC" d="M223.634,465.595v-15.187h2.956v7.219l6.383-7.24h3.256l-5.826,6.747l6.19,8.461h-3.32l-4.733-6.575
		l-1.949,2.034v4.541H223.634L223.634,465.595z"/>
	<path fill="#A7A9AC" d="M242.847,465.595v-15.208h5.526c1.243,0,2.331,0.2,3.268,0.601c0.936,0.399,1.717,0.941,2.346,1.628
		c0.628,0.686,1.1,1.489,1.414,2.41c0.313,0.921,0.471,1.902,0.471,2.944c0,1.156-0.176,2.203-0.523,3.139
		c-0.352,0.936-0.854,1.734-1.512,2.398c-0.656,0.664-1.445,1.178-2.366,1.542s-1.953,0.546-3.096,0.546H242.847L242.847,465.595z
		 M252.893,457.97c0-0.729-0.1-1.398-0.3-2.014s-0.491-1.143-0.878-1.585c-0.386-0.442-0.859-0.785-1.425-1.028
		c-0.565-0.243-1.203-0.364-1.917-0.364h-2.57v10.024h2.57c0.729,0,1.374-0.128,1.938-0.386c0.564-0.257,1.035-0.61,1.414-1.061
		c0.379-0.449,0.668-0.981,0.867-1.597C252.793,459.348,252.893,458.684,252.893,457.97z"/>
	<path fill="#A7A9AC" d="M258.184,465.595v-15.208h2.957v15.208H258.184z"/>
	<path fill="#A7A9AC" d="M264.311,465.595v-15.208h6.726c0.7,0,1.346,0.146,1.938,0.439c0.592,0.293,1.104,0.678,1.53,1.156
		c0.429,0.479,0.765,1.021,1.009,1.628c0.241,0.606,0.362,1.218,0.362,1.832c0,0.983-0.246,1.881-0.737,2.688
		c-0.494,0.807-1.162,1.39-2.004,1.746l3.471,5.719h-3.32l-3.105-5.098h-2.912v5.098H264.311L264.311,465.595z M267.266,457.905
		h3.705c0.271,0,0.525-0.064,0.762-0.192c0.234-0.129,0.438-0.304,0.609-0.524c0.172-0.222,0.307-0.481,0.407-0.781
		s0.149-0.621,0.149-0.964c0-0.357-0.058-0.687-0.172-0.985c-0.113-0.299-0.268-0.561-0.461-0.782
		c-0.191-0.222-0.414-0.393-0.664-0.514c-0.25-0.122-0.502-0.183-0.76-0.183h-3.576V457.905L267.266,457.905z"/>
	<path fill="#A7A9AC" d="M289.113,463.003v2.592h-10.561v-15.208h10.367v2.593h-7.411v3.662h6.404v2.398h-6.404v3.963H289.113
		L289.113,463.003z"/>
	<path fill="#A7A9AC" d="M290.186,457.884c0-0.928,0.168-1.846,0.502-2.752c0.336-0.907,0.826-1.718,1.469-2.432
		s1.428-1.292,2.355-1.735c0.928-0.441,1.984-0.664,3.17-0.664c1.399,0,2.609,0.309,3.631,0.922s1.781,1.413,2.281,2.398
		l-2.271,1.563c-0.2-0.428-0.443-0.788-0.729-1.081s-0.593-0.524-0.921-0.695c-0.329-0.172-0.672-0.296-1.028-0.375
		c-0.356-0.078-0.707-0.118-1.049-0.118c-0.742,0-1.39,0.149-1.938,0.45c-0.55,0.3-1.007,0.688-1.371,1.167
		c-0.363,0.479-0.64,1.021-0.824,1.628c-0.187,0.606-0.278,1.211-0.278,1.811c0,0.671,0.106,1.317,0.321,1.938
		c0.214,0.621,0.519,1.167,0.91,1.639c0.394,0.471,0.864,0.851,1.414,1.135c0.549,0.286,1.151,0.43,1.81,0.43
		c0.344,0,0.699-0.043,1.071-0.129c0.371-0.085,0.725-0.222,1.062-0.407c0.335-0.186,0.646-0.424,0.932-0.717
		c0.285-0.293,0.514-0.646,0.685-1.062l2.421,1.394c-0.242,0.57-0.589,1.073-1.039,1.51c-0.448,0.436-0.956,0.804-1.521,1.104
		s-1.168,0.528-1.81,0.687c-0.644,0.155-1.271,0.234-1.887,0.234c-1.084,0-2.076-0.229-2.978-0.686
		c-0.899-0.457-1.675-1.053-2.324-1.789c-0.649-0.734-1.155-1.57-1.521-2.506C290.366,459.809,290.186,458.855,290.186,457.884z"/>
	<path fill="#A7A9AC" d="M317.024,452.979h-4.863v12.615h-2.936v-12.615h-4.861v-2.593h12.66V452.979z"/>
	<path fill="#A7A9AC" d="M324.692,465.702c-1.114,0-2.125-0.218-3.031-0.653c-0.907-0.436-1.687-1.014-2.335-1.734
		c-0.649-0.722-1.153-1.546-1.51-2.475c-0.357-0.928-0.536-1.878-0.536-2.849c0-1.015,0.188-1.985,0.567-2.913
		c0.378-0.929,0.899-1.749,1.563-2.464c0.664-0.714,1.452-1.281,2.367-1.703c0.913-0.421,1.905-0.631,2.977-0.631
		c1.1,0,2.104,0.225,3.01,0.674c0.907,0.45,1.683,1.039,2.324,1.768c0.642,0.729,1.142,1.558,1.499,2.484
		c0.357,0.929,0.536,1.871,0.536,2.828c0,1.014-0.188,1.979-0.558,2.902c-0.371,0.921-0.886,1.733-1.542,2.44
		c-0.657,0.707-1.442,1.271-2.356,1.692S325.763,465.702,324.692,465.702z M320.279,457.991c0,0.657,0.1,1.292,0.3,1.906
		c0.2,0.613,0.489,1.155,0.868,1.628c0.378,0.471,0.842,0.85,1.392,1.135c0.55,0.286,1.175,0.429,1.874,0.429
		c0.715,0,1.347-0.146,1.896-0.438c0.549-0.292,1.014-0.683,1.392-1.167c0.379-0.485,0.664-1.031,0.857-1.64
		c0.191-0.605,0.288-1.225,0.288-1.853c0-0.657-0.104-1.293-0.311-1.907c-0.207-0.613-0.5-1.156-0.879-1.627
		c-0.378-0.472-0.842-0.847-1.392-1.125c-0.551-0.278-1.167-0.418-1.854-0.418c-0.714,0-1.349,0.146-1.906,0.438
		c-0.557,0.293-1.021,0.68-1.392,1.156c-0.372,0.479-0.654,1.021-0.847,1.628C320.376,456.745,320.279,457.362,320.279,457.991z"/>
	<path fill="#A7A9AC" d="M334.396,465.595v-15.208h6.726c0.699,0,1.346,0.146,1.938,0.439c0.593,0.293,1.104,0.678,1.531,1.156
		c0.429,0.479,0.765,1.021,1.007,1.628c0.243,0.606,0.364,1.218,0.364,1.832c0,0.983-0.246,1.881-0.739,2.688
		c-0.491,0.807-1.16,1.39-2.002,1.746l3.471,5.719h-3.32l-3.105-5.098h-2.914v5.098H334.396L334.396,465.595z M337.351,457.905
		h3.706c0.271,0,0.525-0.064,0.762-0.192c0.234-0.129,0.438-0.304,0.609-0.524c0.171-0.222,0.308-0.481,0.407-0.781
		s0.149-0.621,0.149-0.964c0-0.357-0.058-0.687-0.172-0.985c-0.114-0.3-0.268-0.561-0.461-0.782
		c-0.191-0.222-0.414-0.393-0.664-0.514c-0.25-0.122-0.503-0.183-0.76-0.183h-3.578L337.351,457.905L337.351,457.905z"/>
	<path fill="#A7A9AC" d="M349.86,450.387l3.748,7.326l3.813-7.326h3.191l-5.526,9.896v5.312h-2.935v-5.354l-5.506-9.854H349.86z"/>
	<path fill="#A7A9AC" d="M373.188,465.702c-1.114,0-2.125-0.218-3.031-0.653c-0.907-0.436-1.687-1.014-2.335-1.734
		c-0.649-0.722-1.153-1.546-1.511-2.475c-0.356-0.928-0.535-1.878-0.535-2.849c0-1.015,0.188-1.985,0.567-2.913
		c0.378-0.929,0.899-1.749,1.563-2.464c0.664-0.714,1.453-1.281,2.367-1.703c0.912-0.421,1.905-0.631,2.978-0.631
		c1.099,0,2.103,0.225,3.009,0.674c0.907,0.45,1.683,1.039,2.324,1.768c0.642,0.729,1.143,1.558,1.499,2.484
		c0.357,0.929,0.536,1.871,0.536,2.828c0,1.014-0.187,1.979-0.558,2.902c-0.371,0.921-0.886,1.733-1.543,2.44
		c-0.655,0.707-1.441,1.271-2.355,1.692C375.25,465.491,374.257,465.702,373.188,465.702z M368.774,457.991
		c0,0.657,0.1,1.292,0.299,1.906c0.2,0.613,0.489,1.155,0.868,1.628c0.378,0.471,0.843,0.85,1.392,1.135
		c0.55,0.286,1.175,0.429,1.875,0.429c0.714,0,1.346-0.146,1.896-0.438c0.551-0.292,1.015-0.683,1.393-1.167
		c0.379-0.485,0.665-1.031,0.856-1.64c0.192-0.605,0.289-1.225,0.289-1.853c0-0.657-0.104-1.293-0.311-1.907
		c-0.207-0.613-0.5-1.156-0.878-1.627c-0.379-0.472-0.843-0.847-1.394-1.125c-0.55-0.278-1.167-0.418-1.853-0.418
		c-0.715,0-1.35,0.146-1.906,0.438c-0.558,0.293-1.021,0.68-1.393,1.156c-0.371,0.479-0.653,1.021-0.848,1.628
		C368.87,456.745,368.774,457.362,368.774,457.991z"/>
	<path fill="#A7A9AC" d="M385.846,455.849v9.746h-2.956v-15.208h2.292l7.926,9.981v-9.96h2.955v15.187h-2.397L385.846,455.849z"/>
	<path fill="#A7A9AC" d="M399.232,465.595v-15.208h2.955v12.616h7.755v2.592H399.232z"/>
	<path fill="#A7A9AC" d="M411.741,465.595v-15.208h2.956v15.208H411.741z"/>
	<path fill="#A7A9AC" d="M420.823,455.849v9.746h-2.955v-15.208h2.291l7.926,9.981v-9.96h2.956v15.187h-2.399L420.823,455.849z"/>
	<path fill="#A7A9AC" d="M444.771,463.003v2.592h-10.561v-15.208h10.367v2.593h-7.411v3.662h6.404v2.398h-6.404v3.963H444.771
		L444.771,463.003z"/>
</g>
<path fill="#0086B5" d="M329.847,132.154v-28.05l-81.091,25.301l-86.31-26.931v29.68c-28.53,8.419-49.417,34.838-49.417,66.061
	c0,37.976,30.896,68.874,68.876,68.874c8.706,0,17.029-1.655,24.703-4.623l39.543,39.543l39.537-39.543
	c7.679,2.964,15.997,4.623,24.703,4.623c37.979,0,68.875-30.898,68.875-68.874C379.269,166.992,358.378,140.573,329.847,132.154z
	 M181.907,257.087c-32.465,0-58.875-26.409-58.875-58.871c0-32.466,26.409-58.875,58.875-58.875
	c32.461,0,58.874,26.409,58.874,58.875C240.78,230.678,214.368,257.087,181.907,257.087z M310.392,257.087
	c-32.464,0-58.878-26.409-58.878-58.871c0-32.466,26.414-58.875,58.878-58.875c32.465,0,58.875,26.409,58.875,58.875
	C369.267,230.678,342.855,257.087,310.392,257.087z"/>
<path fill="#FFFFFF" d="M310.391,237.51c-21.668,0-39.3-17.627-39.3-39.294c0-21.671,17.632-39.298,39.3-39.298
	c21.67,0,39.3,17.627,39.3,39.298C349.689,219.883,332.061,237.51,310.391,237.51z"/>
<path fill="#231F20" d="M337.51,183.525c-5.221-9.619-15.407-16.147-27.117-16.147c-17.031,0-30.834,13.806-30.834,30.838
	c0,17.027,13.805,30.837,30.834,30.837c12.252,0,22.813-7.17,27.782-17.525l-27.782-13.312L337.51,183.525z"/>
<polygon fill="#231F20" points="248.756,34.276 388.257,77.802 248.756,121.328 135.361,85.946 135.361,106.144 129.975,106.144 
	129.975,84.266 109.26,77.802 "/>
<polygon fill="#0086B5" points="127.974,118.258 137.649,118.258 140.539,132.552 124.798,132.552 "/>
<rect x="127.81" y="108.218" fill="#0086B5" width="9.714" height="7.313"/>
<polygon fill="#FFFFFF" points="246.148,282.477 218.511,260.696 246.15,287.868 273.786,260.696 "/>
<path fill="#FFFFFF" d="M312.555,151.243c-0.718-0.033-1.439-0.054-2.163-0.054c-22.725,0-41.732,16.201-46.087,37.66
	C275.859,171.659,292.736,158.332,312.555,151.243z"/>
<path fill="#FFFFFF" d="M184.084,151.243c-0.719-0.033-1.438-0.054-2.166-0.054c-22.719,0-41.729,16.201-46.084,37.66
	C147.389,171.659,164.264,158.332,184.084,151.243z"/>
<path fill="#FFFFFF" d="M246.148,223c-5.723,14.77-16.396,27.069-29.966,34.898l29.97,10.914l29.961-10.914
	C262.546,250.069,251.864,237.77,246.148,223z"/>
<circle fill="#FFFFFF" cx="299.279" cy="196.866" r="10.873"/>
<circle fill="#FFFFFF" cx="313.671" cy="179.048" r="5.39"/>
<path fill="#FFFFFF" d="M181.974,257.087c-32.463,0-58.877-26.409-58.877-58.871c0-32.466,26.414-58.875,58.877-58.875
	c32.465,0,58.875,26.409,58.875,58.875C240.849,230.678,214.438,257.087,181.974,257.087z"/>
<circle fill="#FFFFFF" cx="185.253" cy="179.048" r="5.39"/>
<path fill="#DDDDDD" d="M181.799,248.547c-27.754,0-50.337-22.578-50.337-50.331c0-27.757,22.583-50.336,50.337-50.336
	c27.756,0,50.336,22.579,50.336,50.336C232.135,225.969,209.555,248.547,181.799,248.547z"/>
<path fill="#FFFFFF" d="M181.799,237.51c-21.668,0-39.3-17.627-39.3-39.294c0-21.671,17.632-39.298,39.3-39.298
	c21.67,0,39.299,17.627,39.299,39.298C221.098,219.883,203.469,237.51,181.799,237.51z"/>
<path fill="#231F20" d="M208.918,183.525c-5.221-9.619-15.407-16.147-27.117-16.147c-17.032,0-30.835,13.806-30.835,30.838
	c0,17.027,13.805,30.837,30.835,30.837c12.252,0,22.813-7.17,27.782-17.525l-27.782-13.312L208.918,183.525z"/>
<path fill="#FFFFFF" d="M183.963,151.243c-0.718-0.033-1.44-0.054-2.163-0.054c-22.725,0-41.733,16.201-46.088,37.66
	C147.269,171.659,164.145,158.332,183.963,151.243z"/>
<circle fill="#FFFFFF" cx="170.688" cy="196.866" r="10.873"/>
<circle fill="#FFFFFF" cx="185.079" cy="179.048" r="5.39"/>
<rect x="54.477" y="402.802" fill="#A7A9AC" width="30.842" height="6.704"/>
</svg>
