<?xml version="1.0" encoding="utf-8"?>
<!-- Generator: Adobe Illustrator 16.0.0, SVG Export Plug-In . SVG Version: 6.00 Build 0)  -->
<!DOCTYPE svg PUBLIC "-//W3C//DTD SVG 1.0//EN" "http://www.w3.org/TR/2001/REC-SVG-20010904/DTD/svg10.dtd">
<svg version="1.0" id="Layer_2" xmlns="http://www.w3.org/2000/svg" xmlns:xlink="http://www.w3.org/1999/xlink" x="0px" y="0px"
	 width="100px" height="100px" viewBox="0 0 100 100" enable-background="new 0 0 100 100" xml:space="preserve">
<path fill="#FFFFFF" d="M96.621,77.921V23.961l0.046-0.035h-0.046v-0.19H3.733v0.19H3.615l0.118,0.09v53.849l-0.118,0.09h0.118
	v0.287h92.888v-0.287h0.046L96.621,77.921z M93.655,26.702v48.575h-0.522L61.028,50.94l31.978-24.239H93.655z M87.844,26.893
	L50.947,54.861c-0.385,0.291-1.227,0.292-1.613-0.001L12.438,26.893H87.844z M47.543,57.225c0.71,0.538,1.632,0.835,2.598,0.835
	c0.964,0,1.887-0.297,2.598-0.835l5.835-4.423l29.27,22.188H12.438l29.271-22.188L47.543,57.225z M6.699,75.276V26.702h0.577
	L39.253,50.94L7.148,75.276H6.699z"/>
</svg>
