<?xml version="1.0" encoding="utf-8"?>
<!-- Generator: Adobe Illustrator 16.0.0, SVG Export Plug-In . SVG Version: 6.00 Build 0)  -->
<!DOCTYPE svg PUBLIC "-//W3C//DTD SVG 1.1//EN" "http://www.w3.org/Graphics/SVG/1.1/DTD/svg11.dtd">
<svg version="1.1" id="Layer_1" xmlns="http://www.w3.org/2000/svg" xmlns:xlink="http://www.w3.org/1999/xlink" x="0px" y="0px"
	 width="50px" height="50px" viewBox="0 0 50 50" enable-background="new 0 0 50 50" xml:space="preserve">
<g>
	<path fill="#3CA4DD" d="M25.004,1.25C11.887,1.25,1.25,11.885,1.25,25.005c0,13.118,10.637,23.754,23.754,23.754
		c13.12,0,23.755-10.637,23.755-23.754C48.76,11.885,38.124,1.25,25.004,1.25z M25.004,7.866c7.145,0,13.27,4.374,15.841,10.587
		l-29.74,16.581c-2.038-2.821-3.241-6.284-3.241-10.029C7.865,15.538,15.54,7.866,25.004,7.866z M25.004,42.143
		c-3.236,0-6.264-0.896-8.846-2.457l25.982-14.486C42.036,34.576,34.406,42.143,25.004,42.143z"/>
	<g>
		<path fill="#3CA4DD" d="M14.914,31.904l3.831-2.135L15.4,30.838c0.097,0.07,0.191,0.146,0.285,0.225
			c-0.059,0.018-0.117,0.035-0.177,0.056C15.29,31.182,15.094,31.473,14.914,31.904z"/>
		<path fill="#3CA4DD" d="M33.821,30.813l-5.886,3.334l-1.588,3.567l-0.5-2.386l-1.643,0.928l0.012,0.146l-0.546,1.048l-0.346-0.696
			l-6.544,3.707c0.687,0.245,2.777,1.014,2.777,1.014l3.244,1.707l5.134,0.814c0,0,3.151-0.092,3.515-0.092
			c0.358,0,4.772-4.596,4.772-4.596s0.088-3.238-0.272-5.13C35.627,32.462,34.104,31.063,33.821,30.813z"/>
	</g>
	<path fill="#3CA4DD" d="M16.031,21.042c-0.02,0.234-0.028,0.471-0.028,0.709c0,3.063,1.563,5.767,3.931,7.354l0.832-0.463
		c-1.365-0.815-2.469-2.021-3.156-3.467c2.135,0.276,4.608,0.435,7.244,0.435c0.465,0,0.925-0.003,1.378-0.015l7.466-4.159
		c-0.005-0.132-0.013-0.265-0.022-0.395c0.389-0.066,0.76-0.138,1.114-0.211l4.625-2.577c-0.228-1.044-2.593-1.958-6.129-2.527
		C33.229,11.1,29.477,6.2,24.854,6.2c-4.621,0-8.374,4.9-8.429,9.527c-3.721,0.597-6.149,1.581-6.149,2.69
		C10.276,19.487,12.534,20.438,16.031,21.042z M31.05,21.402c-0.202,1.464-1.459,2.589-2.979,2.589c-1.408,0-2.592-0.97-2.917-2.278
		C27.259,21.704,29.256,21.594,31.05,21.402z M24.75,21.713c-0.328,1.311-1.51,2.278-2.919,2.278c-1.511,0-2.763-1.115-2.975-2.568
		C20.656,21.606,22.649,21.711,24.75,21.713z"/>
</g>
</svg>
