<?xml version="1.0" encoding="utf-8"?>
<!-- Generator: Adobe Illustrator 16.0.0, SVG Export Plug-In . SVG Version: 6.00 Build 0)  -->
<!DOCTYPE svg PUBLIC "-//W3C//DTD SVG 1.1//EN" "http://www.w3.org/Graphics/SVG/1.1/DTD/svg11.dtd">
<svg version="1.1" id="Layer_1" xmlns="http://www.w3.org/2000/svg" xmlns:xlink="http://www.w3.org/1999/xlink" x="0px" y="0px"
	 width="50px" height="50px" viewBox="0 0 50 50" enable-background="new 0 0 50 50" xml:space="preserve">
<path fill="#FBB040" d="M33.264,39.009c-0.729,0.298-1.493,0.526-2.284,0.681c0.143,0.779,0.249,1.576,0.311,2.387H2.407
	c0.542-6.963,4.097-12.968,9.263-15.508l1.849-0.909l-1.714-1.142c-2.548-1.698-4.071-4.536-4.071-7.591
	c0-5.026,4.09-9.116,9.115-9.116c4.63,0,8.462,3.471,9.038,7.945c0.76-0.174,1.545-0.278,2.35-0.305
	C27.511,9.812,22.682,5.439,16.849,5.439c-6.333,0-11.486,5.153-11.486,11.487c0,3.227,1.346,6.26,3.671,8.417
	c-5.358,3.466-8.857,10.272-9.06,17.887l-0.033,1.217h33.815l-0.031-1.217C33.686,41.787,33.529,40.375,33.264,39.009z"/>
<path fill="#FBB040" d="M16.951,39.793l1.822-10.163L41.738,6.663l8.031,8.032l-22.95,22.951L16.951,39.793z M20.809,30.692
	l-1.122,6.262l6.038-1.313l20.946-20.946l-4.933-4.932L20.809,30.692z"/>
</svg>
