<?xml version="1.0" encoding="utf-8"?>
<!-- Generator: Adobe Illustrator 16.0.0, SVG Export Plug-In . SVG Version: 6.00 Build 0)  -->
<!DOCTYPE svg PUBLIC "-//W3C//DTD SVG 1.1//EN" "http://www.w3.org/Graphics/SVG/1.1/DTD/svg11.dtd">
<svg version="1.1" id="Layer_1" xmlns="http://www.w3.org/2000/svg" xmlns:xlink="http://www.w3.org/1999/xlink" x="0px" y="0px"
	 width="500px" height="500px" viewBox="0 0 500 500" enable-background="new 0 0 500 500" xml:space="preserve">
<g>
	<path fill="#FFFFFF" d="M283.154,246.465c-3.115,0-5.691,0.757-7.737,2.269c-2.048,1.513-3.068,3.422-3.068,5.735
		c0,1.956,0.779,3.557,2.331,4.802c1.557,1.248,3.536,1.869,5.939,1.869c1.508,0,3.066-0.246,4.669-0.732
		c1.602-0.49,3.024-1.137,4.269-1.938c0.976-0.711,1.776-1.489,2.399-2.336c0.625-0.842,0.936-1.711,0.936-2.6v-5.204
		c-1.514-0.531-3.156-0.975-4.935-1.331C286.174,246.646,284.574,246.465,283.154,246.465z"/>
	<path fill="#FFFFFF" d="M463.5,227.909c0-81.676-95.361-147.888-213-147.888c-117.635,0-213,66.212-213,147.888
		c0,75.097,80.646,137.078,185.082,146.578c11.215,21.566,42.286,54.612,128.35,67.524c0,0-53.506-25.979-49.521-70.504
		C394.453,355.661,463.5,297.396,463.5,227.909z M392.934,182.305h25.346v55.625h-25.346V182.305z M392.934,253.401h25.346v24.548
		h-25.346V253.401z M327.575,207.785h8.669v-22.012h25.343v22.012h13.741v19.075h-13.741v23.208c0,2.313,0.488,3.936,1.47,4.869
		c0.978,0.938,2.313,1.4,4.003,1.4c1.246,0,2.668-0.2,4.269-0.599c1.599-0.399,3.197-0.954,4.801-1.667l4.534,20.007
		c-3.556,1.514-7.357,2.779-11.403,3.804c-4.051,1.021-8.026,1.533-11.939,1.533c-2.847,0-5.561-0.357-8.139-1.068
		c-2.576-0.709-4.821-1.865-6.733-3.468c-1.917-1.602-3.425-3.687-4.535-6.269c-1.114-2.577-1.669-5.781-1.669-9.605V226.86h-8.669
		V207.785z M155.567,266.078c-2.891,2.755-6.184,5.065-9.872,6.934c-3.692,1.868-7.65,3.292-11.872,4.269
		c-4.224,0.98-8.336,1.47-12.339,1.47c-7.026,0-13.453-1.403-19.277-4.202c-5.824-2.805-10.85-6.513-15.072-11.138
		c-4.225-4.626-7.491-9.873-9.805-15.743c-2.314-5.866-3.469-11.827-3.469-17.874c0-5.781,1.088-11.471,3.269-17.075
		c2.176-5.604,5.356-10.625,9.537-15.073c4.179-4.444,9.25-8.047,15.208-10.803c5.957-2.756,12.759-4.137,20.409-4.137
		c9.157,0,17.096,1.891,23.81,5.67c6.715,3.781,11.719,8.783,15.007,15.007l-19.875,14.139c-0.891-2.311-2.068-4.222-3.535-5.737
		c-1.467-1.512-3.091-2.713-4.868-3.602c-1.78-0.888-3.625-1.513-5.535-1.865c-1.915-0.355-3.759-0.535-5.538-0.535
		c-3.734,0-6.957,0.731-9.67,2.2c-2.713,1.467-4.935,3.383-6.67,5.736c-1.734,2.359-3.025,5.027-3.868,8.005
		c-0.848,2.98-1.267,5.937-1.267,8.867c0,3.293,0.487,6.45,1.468,9.473c0.976,3.024,2.402,5.69,4.269,8.003
		c1.867,2.311,4.156,4.157,6.871,5.535c2.711,1.382,5.757,2.067,9.137,2.067c1.777,0,3.601-0.201,5.471-0.6
		c1.865-0.398,3.667-1.066,5.4-2.002c1.734-0.933,3.289-2.134,4.67-3.602c1.377-1.468,2.466-3.267,3.269-5.403l21.208,12.673
		C160.612,260.207,158.455,263.319,155.567,266.078z M240.071,277.949h-0.001h-25.345v-39.486c0-3.471-0.781-5.98-2.333-7.537
		c-1.558-1.557-3.492-2.335-5.803-2.335c-0.799,0-1.757,0.247-2.869,0.733c-1.113,0.487-2.223,1.158-3.333,2.001
		c-1.114,0.847-2.16,1.891-3.137,3.134c-0.979,1.25-1.78,2.626-2.402,4.136v39.353h-25.344v-97.378h25.344v37.617
		c2.489-3.821,5.737-6.736,9.74-8.738c4.002-2.002,8.492-3.002,13.472-3.002c4.89,0,8.806,0.848,11.739,2.538
		c2.936,1.69,5.156,3.798,6.671,6.335c1.509,2.533,2.487,5.27,2.934,8.203c0.444,2.936,0.668,5.691,0.668,8.268V277.949z
		 M297.426,269.543l-0.534-2.531c-3.112,3.999-6.716,7.047-10.806,9.135c-4.088,2.089-8.447,3.135-13.069,3.135
		c-3.472,0-6.717-0.58-9.736-1.731c-3.026-1.156-5.628-2.736-7.809-4.737c-2.18-2.003-3.89-4.38-5.135-7.137
		c-1.246-2.756-1.868-5.736-1.868-8.938c0-3.554,0.756-6.802,2.269-9.738c1.51-2.934,3.602-5.467,6.267-7.602
		c2.672-2.135,5.853-3.778,9.539-4.938c3.688-1.153,7.761-1.731,12.206-1.731c5.691,0,10.406,0.889,14.14,2.666v-2.134
		c0-3.289-0.958-5.736-2.865-7.335c-1.913-1.598-5.004-2.401-9.27-2.401c-4.007,0-7.698,0.647-11.074,1.932
		c-3.381,1.292-6.935,3.183-10.671,5.671l-7.337-15.74c9.246-5.957,19.785-8.938,31.612-8.938c11.204,0,19.831,2.493,25.879,7.472
		c6.048,4.983,9.071,12.45,9.071,22.412v13.605c0,2.401,0.354,4.067,1.067,5.001c0.711,0.938,1.952,1.491,3.733,1.668v21.344
		c-2.047,0.441-3.98,0.775-5.802,0.998c-1.823,0.221-3.449,0.331-4.868,0.331c-4.534,0-7.981-0.821-10.339-2.465
		C299.672,275.169,298.139,272.746,297.426,269.543z"/>
</g>
</svg>
