<?xml version="1.0" encoding="utf-8"?>
<!-- Generator: Adobe Illustrator 16.0.0, SVG Export Plug-In . SVG Version: 6.00 Build 0)  -->
<!DOCTYPE svg PUBLIC "-//W3C//DTD SVG 1.1//EN" "http://www.w3.org/Graphics/SVG/1.1/DTD/svg11.dtd">
<svg version="1.1" id="Layer_1" xmlns="http://www.w3.org/2000/svg" xmlns:xlink="http://www.w3.org/1999/xlink" x="0px" y="0px"
	 width="500px" height="500px" viewBox="0 0 500 500" enable-background="new 0 0 500 500" xml:space="preserve">
<path fill="#FFDE17" d="M259.475,395.974H112.107l0.141-5.303c0.887-33.179,16.136-62.845,39.483-77.944
	c-10.13-9.399-15.994-22.619-15.994-36.68c0-27.601,22.454-50.057,50.053-50.057c27.6,0,50.054,22.457,50.054,50.057
	c0,14.059-5.866,27.28-15.996,36.68c23.348,15.103,38.597,44.766,39.485,77.944L259.475,395.974z"/>
<path fill="#FFDE17" d="M122.854,385.642h125.874c-2.362-30.34-17.851-56.509-40.368-67.578l-8.057-3.962l7.471-4.973
	c11.106-7.398,17.737-19.766,17.737-33.082c0-21.905-17.819-39.724-39.721-39.724c-21.903,0-39.722,17.819-39.722,39.724
	c0,13.316,6.631,25.684,17.738,33.082l7.471,4.973l-8.056,3.962C140.705,329.133,125.216,355.302,122.854,385.642z"/>
<path fill="#FFDE17" d="M13.164,182.746v248.376H359.69V182.746H13.164z M329.43,403.814H43.422V210.054H329.43V403.814z"/>
<path fill="#FFDE17" d="M255.094,201.137h77.685h9.141v22.434c7.739-26.124-6.939-53.81-33.036-61.975
	c-26.339-8.242-54.475,6.482-62.716,32.825c-0.694,2.219-1.212,4.462-1.589,6.716H255.094z"/>
<polygon fill="#FFDE17" points="157.047,68.777 115.172,202.613 146.877,202.613 177.771,103.874 450.729,189.277 392.868,374.198 
	338.969,357.336 338.969,385.949 413.595,409.298 487.763,172.253 "/>
</svg>
