<?xml version="1.0" encoding="utf-8"?>
<!-- Generator: Adobe Illustrator 16.0.0, SVG Export Plug-In . SVG Version: 6.00 Build 0)  -->
<!DOCTYPE svg PUBLIC "-//W3C//DTD SVG 1.1//EN" "http://www.w3.org/Graphics/SVG/1.1/DTD/svg11.dtd">
<svg version="1.1" id="Layer_1" xmlns="http://www.w3.org/2000/svg" xmlns:xlink="http://www.w3.org/1999/xlink" x="0px" y="0px"
	 width="50px" height="50px" viewBox="0 0 50 50" enable-background="new 0 0 50 50" xml:space="preserve">
<g>
	<g>
		<path fill="#2BB673" d="M23.238,26.663v1.206c0,0.347,0.281,0.629,0.628,0.629h1.206L23.238,26.663z"/>
		<path fill="#2BB673" d="M26.983,24.428v-0.563c0-0.348-0.28-0.629-0.628-0.629h-2.49c-0.347,0-0.628,0.281-0.628,0.629v0.563
			l1.873,1.874L26.983,24.428z"/>
		<path fill="#2BB673" d="M25.149,28.498h1.206c0.348,0,0.628-0.282,0.628-0.629v-1.206L25.149,28.498z"/>
	</g>
	<g>
		<path fill="#2BB673" d="M9.979,9.135H6.515c-0.33,0-0.598,0.268-0.598,0.597v0.622h4.66V9.732
			C10.577,9.402,10.31,9.135,9.979,9.135z"/>
		<path fill="#2BB673" d="M43.706,9.135h-3.464c-0.33,0-0.599,0.268-0.599,0.597v0.622h4.659V9.732
			C44.303,9.402,44.035,9.135,43.706,9.135z"/>
	</g>
	<path fill="#2BB673" d="M46.305,11.145h-1.844v0.585c0,0.331-0.269,0.598-0.6,0.598h-3.463c-0.33,0-0.597-0.268-0.597-0.598v-0.585
		H10.735v0.585c0,0.331-0.268,0.598-0.598,0.598H6.673c-0.33,0-0.598-0.268-0.598-0.598v-0.585h-2.16
		c-1.091,0-1.976,0.884-1.976,1.976v5.461c1.087,0.891,2.412,1.731,3.958,2.499c4.438,2.205,10.165,3.549,16.359,3.866v-2.13
		c0-0.53,0.429-0.958,0.958-0.958h3.791c0.529,0,0.959,0.428,0.959,0.958v2.13c6.193-0.316,11.92-1.66,16.358-3.865
		c1.546-0.768,2.871-1.608,3.959-2.499v-5.461C48.282,12.029,47.396,11.145,46.305,11.145z"/>
	<path fill="#2BB673" d="M20.842,10.274v-2.38h8.538v2.38h2.089V7.372c0-0.865-0.701-1.567-1.566-1.567h-9.583
		c-0.865,0-1.567,0.702-1.567,1.567v2.902H20.842z"/>
	<path fill="#2BB673" d="M45.378,23.205c-4.751,2.36-10.85,3.793-17.413,4.115v1.597c0,0.529-0.43,0.958-0.959,0.958h-3.791
		c-0.529,0-0.958-0.429-0.958-0.958V27.32c-6.563-0.322-12.663-1.755-17.414-4.115c-1.057-0.525-2.025-1.086-2.903-1.678v20.521
		c0,1.093,0.885,1.977,1.976,1.977h42.389c1.092,0,1.978-0.884,1.978-1.977V21.527C47.404,22.119,46.436,22.68,45.378,23.205z
		 M46.839,40.872c0,0.989-0.804,1.792-1.794,1.792H28.517c0.849-0.113,7.524-0.255,12.926-4.855
		c5.454-4.645,4.953-8.602,5.396-9.729V40.872z"/>
</g>
</svg>
