<?xml version="1.0" encoding="utf-8"?>
<!-- Generator: Adobe Illustrator 16.0.0, SVG Export Plug-In . SVG Version: 6.00 Build 0)  -->
<!DOCTYPE svg PUBLIC "-//W3C//DTD SVG 1.1//EN" "http://www.w3.org/Graphics/SVG/1.1/DTD/svg11.dtd">
<svg version="1.1" id="Layer_1" xmlns="http://www.w3.org/2000/svg" xmlns:xlink="http://www.w3.org/1999/xlink" x="0px" y="0px"
	 width="500px" height="500px" viewBox="0 0 500 500" enable-background="new 0 0 500 500" xml:space="preserve">
<g>
	<path fill="#C2B59B" d="M435.674,99.336l-73.942-73.942v0.373l-0.28-0.284H64.846v449.141h370.828V99.705l-0.369-0.369H435.674z
		 M419.55,458.503H80.969V41.606h280.762v57.73h57.818V458.503z"/>
	<rect x="109.659" y="192.908" fill="#C2B59B" width="91.363" height="27.637"/>
	<rect x="212.974" y="192.908" fill="#C2B59B" width="91.364" height="27.637"/>
	<rect x="317.857" y="192.908" fill="#C2B59B" width="79.848" height="27.637"/>
	<rect x="109.659" y="277.182" fill="#C2B59B" width="62.896" height="27.641"/>
	<rect x="185.723" y="277.182" fill="#C2B59B" width="165.162" height="27.641"/>
	<rect x="362.384" y="277.182" fill="#C2B59B" width="35.321" height="27.641"/>
	<rect x="109.659" y="319.32" fill="#C2B59B" width="101.226" height="27.641"/>
	<rect x="224.048" y="319.32" fill="#C2B59B" width="95.576" height="27.641"/>
	<rect x="328.306" y="319.32" fill="#C2B59B" width="69.399" height="27.641"/>
	<rect x="109.659" y="403.595" fill="#C2B59B" width="101.485" height="27.637"/>
	<rect x="221.468" y="403.595" fill="#C2B59B" width="105.346" height="27.637"/>
	<rect x="109.659" y="361.456" fill="#C2B59B" width="117.655" height="27.641"/>
	<rect x="236.332" y="361.456" fill="#C2B59B" width="107.746" height="27.641"/>
	<rect x="355.18" y="361.456" fill="#C2B59B" width="42.525" height="27.641"/>
	<rect x="109.659" y="235.047" fill="#C2B59B" width="41.952" height="27.641"/>
	<rect x="160.601" y="235.047" fill="#C2B59B" width="143.737" height="27.641"/>
	<rect x="317.857" y="235.047" fill="#C2B59B" width="79.848" height="27.641"/>
	<rect x="108.035" y="79.635" fill="#C2B59B" width="92.841" height="94.9"/>
</g>
</svg>
