<?xml version="1.0" encoding="utf-8"?>
<!-- Generator: Adobe Illustrator 16.0.0, SVG Export Plug-In . SVG Version: 6.00 Build 0)  -->
<!DOCTYPE svg PUBLIC "-//W3C//DTD SVG 1.1//EN" "http://www.w3.org/Graphics/SVG/1.1/DTD/svg11.dtd">
<svg version="1.1" id="Layer_1" xmlns="http://www.w3.org/2000/svg" xmlns:xlink="http://www.w3.org/1999/xlink" x="0px" y="0px"
	 width="500px" height="500px" viewBox="0 0 500 500" enable-background="new 0 0 500 500" xml:space="preserve">
<g>
	<polygon fill="#EFA8CA" points="105.097,119.423 117.017,119.423 117.017,96.245 249.15,137.468 249.959,137.728 426.071,82.778 
		250.778,28.085 249.959,27.825 73.857,82.778 105.097,92.521 	"/>
	<polygon fill="#EFA8CA" points="120.472,148.673 117.017,131.573 105.437,131.573 101.637,148.673 	"/>
	<rect x="105.244" y="119.562" fill="#EFA8CA" width="11.624" height="8.749"/>
	<path fill="#EFA8CA" d="M315.767,304.945c20.467-18.987,32.319-45.709,32.319-74.113c0-16.092-3.8-31.311-10.52-44.826h0.707
		v-66.968l-88.314,27.557l-0.809-0.26l-89.989-28.076v62.476c-8.47,14.783-13.342,31.879-13.342,50.097
		c0,28.412,11.847,55.126,32.317,74.113c-47.175,30.511-77.986,90.448-79.774,157.485l-0.286,10.713h297.748l-0.287-10.713
		C393.749,395.394,362.934,335.46,315.767,304.945z M166.695,230.832c0-16.608,5.107-32.024,13.787-44.826h132.965
		c8.666,12.809,13.758,28.228,13.758,44.826c0,26.912-13.397,51.895-35.838,66.84l-15.098,10.055l16.282,7.998
		c0.506,0.252,0.987,0.554,1.485,0.813l-47.085,47.077l-47.085-47.077c0.502-0.26,0.98-0.562,1.484-0.813l16.277-7.998
		l-15.096-10.055C180.092,282.727,166.695,257.744,166.695,230.832z M119.79,452.269c3.091-39.683,17.344-75.772,39.318-102.404
		l87.843,87.847l87.845-87.847c21.973,26.632,36.222,62.722,39.315,102.404H119.79z"/>
</g>
</svg>
