<?xml version="1.0" encoding="utf-8"?>
<!-- Generator: Adobe Illustrator 16.0.0, SVG Export Plug-In . SVG Version: 6.00 Build 0)  -->
<!DOCTYPE svg PUBLIC "-//W3C//DTD SVG 1.1//EN" "http://www.w3.org/Graphics/SVG/1.1/DTD/svg11.dtd">
<svg version="1.1" id="Layer_1" xmlns="http://www.w3.org/2000/svg" xmlns:xlink="http://www.w3.org/1999/xlink" x="0px" y="0px"
	 width="500px" height="500px" viewBox="0 0 500 500" enable-background="new 0 0 500 500" xml:space="preserve">
<path fill="#FFFFFF" d="M268.709,370.477c0.928-11.925,3.249-23.396,6.728-34.16h-53.323c3.478,10.765,5.799,22.235,6.727,34.16
	H40.973c3.525-45.284,26.639-84.343,60.25-100.865l12.022-5.917l-11.15-7.42c-16.577-11.036-26.477-29.499-26.477-49.375
	c0-32.692,26.598-59.292,59.288-59.292c32.693,0,59.286,26.6,59.286,59.292c0,19.876-9.896,38.339-26.474,49.375l-11.152,7.42
	l12.027,5.917c2.169,1.067,4.292,2.232,6.371,3.485c10.293-16.533,23.981-29.71,40.126-37.651l12.023-5.911l-11.15-7.419
	c-16.577-11.046-26.475-29.499-26.475-49.373c0-32.697,26.596-59.295,59.288-59.295c32.689,0,59.285,26.598,59.285,59.295
	c0,19.874-9.898,38.327-26.474,49.373l-11.151,7.419l12.026,5.911c16.144,7.94,29.834,21.118,40.126,37.651
	c2.079-1.253,4.201-2.418,6.37-3.485l12.023-5.917l-11.147-7.42c-16.579-11.036-26.478-29.499-26.478-49.375
	c0-32.692,26.594-59.292,59.286-59.292c32.688,0,59.283,26.6,59.283,59.292c0,19.876-9.892,38.339-26.47,49.375l-11.152,7.42
	l12.023,5.917c33.61,16.522,56.721,55.581,60.252,100.865H268.709z"/>
</svg>
